<svg width="255" height="255" viewBox="0 0 255 255" fill="none" xmlns="http://www.w3.org/2000/svg">
<rect width="255" height="255" fill="#DFCB89"/>
<rect x="3" y="2" width="250" height="250" fill="#1E3E34"/>
<rect x="20" y="58" width="16" height="139" rx="4" fill="#E7E7E7"/>
<rect x="220" y="58" width="16" height="139" rx="4" fill="#E7E7E7"/>
<rect x="69" y="20" width="117" height="15" rx="4" fill="#E7E7E7"/>
<rect x="69" y="221" width="117" height="15" rx="4" fill="#E7E7E7"/>
<g filter="url(#filter0_d_11_2)">
<rect x="28" y="27" width="200" height="200" rx="4" fill="#E7E7E7"/>
</g>
<path d="M49.1364 88H45.0114V76.3636H49.1705C50.3409 76.3636 51.3485 76.5966 52.1932 77.0625C53.0379 77.5246 53.6875 78.1894 54.142 79.0568C54.6004 79.9242 54.8295 80.9621 54.8295 82.1705C54.8295 83.3826 54.6004 84.4242 54.142 85.2955C53.6875 86.1667 53.0341 86.8352 52.1818 87.3011C51.3333 87.767 50.3182 88 49.1364 88ZM47.4716 85.892H49.0341C49.7614 85.892 50.3731 85.7633 50.8693 85.5057C51.3693 85.2443 51.7443 84.8409 51.9943 84.2955C52.2481 83.7462 52.375 83.0379 52.375 82.1705C52.375 81.3106 52.2481 80.608 51.9943 80.0625C51.7443 79.517 51.3712 79.1155 50.875 78.858C50.3788 78.6004 49.767 78.4716 49.0398 78.4716H47.4716V85.892ZM62.2031 84.2841V79.2727H64.6236V88H62.2997V86.4148H62.2088C62.0118 86.9261 61.6842 87.3371 61.2259 87.6477C60.7713 87.9583 60.2164 88.1136 59.5611 88.1136C58.9777 88.1136 58.4645 87.9811 58.0213 87.7159C57.5781 87.4508 57.2315 87.0739 56.9815 86.5852C56.7353 86.0966 56.6103 85.5114 56.6065 84.8295V79.2727H59.027V84.3977C59.0308 84.9129 59.169 85.3201 59.4418 85.6193C59.7145 85.9186 60.08 86.0682 60.5384 86.0682C60.83 86.0682 61.1027 86.0019 61.3565 85.8693C61.6103 85.733 61.8149 85.5322 61.9702 85.267C62.1293 85.0019 62.2069 84.6742 62.2031 84.2841ZM69.0483 88.1648C68.4915 88.1648 67.9953 88.0682 67.5597 87.875C67.1241 87.678 66.7794 87.3883 66.5256 87.0057C66.2756 86.6193 66.1506 86.1383 66.1506 85.5625C66.1506 85.0777 66.2396 84.6705 66.4176 84.3409C66.5956 84.0114 66.8381 83.7462 67.1449 83.5455C67.4517 83.3447 67.8002 83.1932 68.1903 83.0909C68.5843 82.9886 68.9972 82.9167 69.429 82.875C69.9366 82.822 70.3456 82.7727 70.6562 82.7273C70.9669 82.678 71.1922 82.6061 71.3324 82.5114C71.4725 82.4167 71.5426 82.2765 71.5426 82.0909V82.0568C71.5426 81.697 71.429 81.4186 71.2017 81.2216C70.9782 81.0246 70.66 80.9261 70.2472 80.9261C69.8116 80.9261 69.465 81.0227 69.2074 81.2159C68.9498 81.4053 68.7794 81.6439 68.696 81.9318L66.4574 81.75C66.571 81.2197 66.7945 80.7614 67.1278 80.375C67.4612 79.9848 67.8911 79.6856 68.4176 79.4773C68.9479 79.2652 69.5616 79.1591 70.2585 79.1591C70.7434 79.1591 71.2074 79.2159 71.6506 79.3295C72.0975 79.4432 72.4934 79.6193 72.8381 79.858C73.1866 80.0966 73.4612 80.4034 73.6619 80.7784C73.8627 81.1496 73.9631 81.5947 73.9631 82.1136V88H71.6676V86.7898H71.5994C71.4593 87.0625 71.2718 87.303 71.0369 87.5114C70.8021 87.7159 70.5199 87.8769 70.1903 87.9943C69.8608 88.108 69.4801 88.1648 69.0483 88.1648ZM69.7415 86.4943C70.0975 86.4943 70.4119 86.4242 70.6847 86.2841C70.9574 86.1402 71.1714 85.947 71.3267 85.7045C71.482 85.4621 71.5597 85.1875 71.5597 84.8807V83.9545C71.4839 84.0038 71.3797 84.0492 71.2472 84.0909C71.1184 84.1288 70.9725 84.1648 70.8097 84.1989C70.6468 84.2292 70.4839 84.2576 70.321 84.2841C70.1581 84.3068 70.0104 84.3277 69.8778 84.3466C69.5938 84.3883 69.3456 84.4545 69.1335 84.5455C68.9214 84.6364 68.7566 84.7595 68.6392 84.9148C68.5218 85.0663 68.4631 85.2557 68.4631 85.483C68.4631 85.8125 68.5824 86.0644 68.821 86.2386C69.0634 86.4091 69.3703 86.4943 69.7415 86.4943ZM78.2614 76.3636V88H75.8409V76.3636H78.2614ZM94.2159 80.4375H91.7273C91.6818 80.1155 91.589 79.8295 91.4489 79.5795C91.3087 79.3258 91.1288 79.1098 90.9091 78.9318C90.6894 78.7538 90.4356 78.6174 90.1477 78.5227C89.8636 78.428 89.5549 78.3807 89.2216 78.3807C88.6193 78.3807 88.0947 78.5303 87.6477 78.8295C87.2008 79.125 86.8542 79.5568 86.608 80.125C86.3617 80.6894 86.2386 81.375 86.2386 82.1818C86.2386 83.0114 86.3617 83.7083 86.608 84.2727C86.858 84.8371 87.2064 85.2633 87.6534 85.5511C88.1004 85.839 88.6174 85.983 89.2045 85.983C89.5341 85.983 89.839 85.9394 90.1193 85.8523C90.4034 85.7652 90.6553 85.6383 90.875 85.4716C91.0947 85.3011 91.2765 85.0947 91.4205 84.8523C91.5682 84.6098 91.6705 84.3333 91.7273 84.0227L94.2159 84.0341C94.1515 84.5682 93.9905 85.0833 93.733 85.5795C93.4792 86.072 93.1364 86.5133 92.7045 86.9034C92.2765 87.2898 91.7652 87.5966 91.1705 87.8239C90.5795 88.0473 89.911 88.1591 89.1648 88.1591C88.1269 88.1591 87.1989 87.9242 86.3807 87.4545C85.5663 86.9848 84.9223 86.3049 84.4489 85.4148C83.9792 84.5246 83.7443 83.447 83.7443 82.1818C83.7443 80.9129 83.983 79.8333 84.4602 78.9432C84.9375 78.053 85.5852 77.375 86.4034 76.9091C87.2216 76.4394 88.142 76.2045 89.1648 76.2045C89.839 76.2045 90.464 76.2992 91.0398 76.4886C91.6193 76.678 92.1326 76.9545 92.5795 77.3182C93.0265 77.678 93.3902 78.1193 93.6705 78.642C93.9545 79.1648 94.1364 79.7633 94.2159 80.4375ZM99.8778 88.1705C98.9953 88.1705 98.232 87.983 97.5881 87.608C96.9479 87.2292 96.4536 86.7027 96.1051 86.0284C95.7566 85.3504 95.5824 84.5644 95.5824 83.6705C95.5824 82.7689 95.7566 81.9811 96.1051 81.3068C96.4536 80.6288 96.9479 80.1023 97.5881 79.7273C98.232 79.3485 98.9953 79.1591 99.8778 79.1591C100.76 79.1591 101.522 79.3485 102.162 79.7273C102.806 80.1023 103.302 80.6288 103.651 81.3068C103.999 81.9811 104.173 82.7689 104.173 83.6705C104.173 84.5644 103.999 85.3504 103.651 86.0284C103.302 86.7027 102.806 87.2292 102.162 87.608C101.522 87.983 100.76 88.1705 99.8778 88.1705ZM99.8892 86.2955C100.291 86.2955 100.626 86.1818 100.895 85.9545C101.164 85.7235 101.366 85.4091 101.503 85.0114C101.643 84.6136 101.713 84.161 101.713 83.6534C101.713 83.1458 101.643 82.6932 101.503 82.2955C101.366 81.8977 101.164 81.5833 100.895 81.3523C100.626 81.1212 100.291 81.0057 99.8892 81.0057C99.4839 81.0057 99.143 81.1212 98.8665 81.3523C98.5938 81.5833 98.3873 81.8977 98.2472 82.2955C98.1108 82.6932 98.0426 83.1458 98.0426 83.6534C98.0426 84.161 98.1108 84.6136 98.2472 85.0114C98.3873 85.4091 98.5938 85.7235 98.8665 85.9545C99.143 86.1818 99.4839 86.2955 99.8892 86.2955ZM105.747 88V79.2727H108.094V80.7955H108.185C108.344 80.2538 108.611 79.8447 108.986 79.5682C109.361 79.2879 109.793 79.1477 110.281 79.1477C110.402 79.1477 110.533 79.1553 110.673 79.1705C110.813 79.1856 110.937 79.2064 111.043 79.233V81.3807C110.929 81.3466 110.772 81.3163 110.571 81.2898C110.37 81.2633 110.187 81.25 110.02 81.25C109.664 81.25 109.346 81.3277 109.065 81.483C108.789 81.6345 108.569 81.8466 108.406 82.1193C108.247 82.392 108.168 82.7064 108.168 83.0625V88H105.747ZM115.865 88.1705C114.967 88.1705 114.195 87.9886 113.547 87.625C112.903 87.2576 112.407 86.7386 112.058 86.0682C111.71 85.3939 111.536 84.5966 111.536 83.6761C111.536 82.7784 111.71 81.9905 112.058 81.3125C112.407 80.6345 112.897 80.1061 113.53 79.7273C114.166 79.3485 114.912 79.1591 115.768 79.1591C116.344 79.1591 116.88 79.2519 117.376 79.4375C117.876 79.6193 118.312 79.8939 118.683 80.2614C119.058 80.6288 119.35 81.0909 119.558 81.6477C119.767 82.2008 119.871 82.8485 119.871 83.5909V84.2557H112.501V82.7557H117.592C117.592 82.4072 117.517 82.0985 117.365 81.8295C117.214 81.5606 117.003 81.3504 116.734 81.1989C116.469 81.0436 116.161 80.9659 115.808 80.9659C115.441 80.9659 115.115 81.0511 114.831 81.2216C114.551 81.3883 114.331 81.6136 114.172 81.8977C114.013 82.178 113.931 82.4905 113.928 82.8352V84.2614C113.928 84.6932 114.007 85.0663 114.166 85.3807C114.329 85.6951 114.558 85.9375 114.854 86.108C115.149 86.2784 115.5 86.3636 115.905 86.3636C116.174 86.3636 116.42 86.3258 116.643 86.25C116.867 86.1742 117.058 86.0606 117.217 85.9091C117.376 85.7576 117.498 85.572 117.581 85.3523L119.82 85.5C119.706 86.0379 119.473 86.5076 119.121 86.9091C118.772 87.3068 118.321 87.6174 117.768 87.8409C117.219 88.0606 116.585 88.1705 115.865 88.1705ZM135.466 80.4375H132.977C132.932 80.1155 132.839 79.8295 132.699 79.5795C132.559 79.3258 132.379 79.1098 132.159 78.9318C131.939 78.7538 131.686 78.6174 131.398 78.5227C131.114 78.428 130.805 78.3807 130.472 78.3807C129.869 78.3807 129.345 78.5303 128.898 78.8295C128.451 79.125 128.104 79.5568 127.858 80.125C127.612 80.6894 127.489 81.375 127.489 82.1818C127.489 83.0114 127.612 83.7083 127.858 84.2727C128.108 84.8371 128.456 85.2633 128.903 85.5511C129.35 85.839 129.867 85.983 130.455 85.983C130.784 85.983 131.089 85.9394 131.369 85.8523C131.653 85.7652 131.905 85.6383 132.125 85.4716C132.345 85.3011 132.527 85.0947 132.67 84.8523C132.818 84.6098 132.92 84.3333 132.977 84.0227L135.466 84.0341C135.402 84.5682 135.241 85.0833 134.983 85.5795C134.729 86.072 134.386 86.5133 133.955 86.9034C133.527 87.2898 133.015 87.5966 132.42 87.8239C131.83 88.0473 131.161 88.1591 130.415 88.1591C129.377 88.1591 128.449 87.9242 127.631 87.4545C126.816 86.9848 126.172 86.3049 125.699 85.4148C125.229 84.5246 124.994 83.447 124.994 82.1818C124.994 80.9129 125.233 79.8333 125.71 78.9432C126.188 78.053 126.835 77.375 127.653 76.9091C128.472 76.4394 129.392 76.2045 130.415 76.2045C131.089 76.2045 131.714 76.2992 132.29 76.4886C132.869 76.678 133.383 76.9545 133.83 77.3182C134.277 77.678 134.64 78.1193 134.92 78.642C135.205 79.1648 135.386 79.7633 135.466 80.4375ZM137.23 88V76.3636H141.821C142.704 76.3636 143.455 76.5322 144.077 76.8693C144.698 77.2027 145.171 77.6667 145.497 78.2614C145.827 78.8523 145.991 79.5341 145.991 80.3068C145.991 81.0795 145.825 81.7614 145.491 82.3523C145.158 82.9432 144.675 83.4034 144.043 83.733C143.414 84.0625 142.652 84.2273 141.759 84.2273H138.832V82.2557H141.361C141.834 82.2557 142.224 82.1742 142.531 82.0114C142.842 81.8447 143.073 81.6155 143.224 81.3239C143.38 81.0284 143.457 80.6894 143.457 80.3068C143.457 79.9205 143.38 79.5833 143.224 79.2955C143.073 79.0038 142.842 78.7784 142.531 78.6193C142.221 78.4564 141.827 78.375 141.349 78.375H139.69V88H137.23ZM154.777 76.3636H157.237V83.9205C157.237 84.7689 157.035 85.5114 156.629 86.1477C156.228 86.7841 155.665 87.2803 154.942 87.6364C154.218 87.9886 153.375 88.1648 152.413 88.1648C151.447 88.1648 150.603 87.9886 149.879 87.6364C149.156 87.2803 148.593 86.7841 148.192 86.1477C147.79 85.5114 147.589 84.7689 147.589 83.9205V76.3636H150.05V83.7102C150.05 84.1534 150.146 84.5473 150.339 84.892C150.536 85.2367 150.813 85.5076 151.169 85.7045C151.525 85.9015 151.94 86 152.413 86C152.891 86 153.305 85.9015 153.658 85.7045C154.014 85.5076 154.288 85.2367 154.482 84.892C154.679 84.5473 154.777 84.1534 154.777 83.7102V76.3636Z" fill="#4B4B4B"/>
<path d="M44.9034 112V111.233L47.7841 108.08C48.1222 107.71 48.4006 107.389 48.6193 107.116C48.8381 106.841 49 106.582 49.1051 106.341C49.2131 106.097 49.267 105.841 49.267 105.574C49.267 105.267 49.1932 105.001 49.0455 104.777C48.9006 104.553 48.7017 104.379 48.4489 104.257C48.196 104.135 47.9119 104.074 47.5966 104.074C47.2614 104.074 46.9688 104.143 46.7188 104.283C46.4716 104.419 46.2798 104.611 46.1435 104.858C46.0099 105.105 45.9432 105.395 45.9432 105.727H44.9375C44.9375 105.216 45.0554 104.767 45.2912 104.381C45.527 103.994 45.848 103.693 46.2543 103.477C46.6634 103.261 47.1222 103.153 47.6307 103.153C48.142 103.153 48.5952 103.261 48.9901 103.477C49.3849 103.693 49.6946 103.984 49.919 104.351C50.1435 104.717 50.2557 105.125 50.2557 105.574C50.2557 105.895 50.1974 106.209 50.081 106.516C49.9673 106.82 49.7685 107.159 49.4844 107.534C49.2031 107.906 48.8125 108.361 48.3125 108.898L46.3523 110.994V111.062H50.4091V112H44.9034ZM52.919 112.068C52.7088 112.068 52.5284 111.993 52.3778 111.842C52.2273 111.692 52.152 111.511 52.152 111.301C52.152 111.091 52.2273 110.911 52.3778 110.76C52.5284 110.609 52.7088 110.534 52.919 110.534C53.1293 110.534 53.3097 110.609 53.4602 110.76C53.6108 110.911 53.6861 111.091 53.6861 111.301C53.6861 111.44 53.6506 111.568 53.5795 111.685C53.5114 111.801 53.419 111.895 53.3026 111.966C53.1889 112.034 53.0611 112.068 52.919 112.068ZM58.0156 112.119C57.3736 112.119 56.8267 111.945 56.375 111.595C55.9233 111.243 55.5781 110.733 55.3395 110.065C55.1009 109.395 54.9815 108.585 54.9815 107.636C54.9815 106.693 55.1009 105.888 55.3395 105.22C55.581 104.55 55.9276 104.038 56.3793 103.686C56.8338 103.331 57.3793 103.153 58.0156 103.153C58.652 103.153 59.196 103.331 59.6477 103.686C60.1023 104.038 60.4489 104.55 60.6875 105.22C60.929 105.888 61.0497 106.693 61.0497 107.636C61.0497 108.585 60.9304 109.395 60.6918 110.065C60.4531 110.733 60.108 111.243 59.6562 111.595C59.2045 111.945 58.6577 112.119 58.0156 112.119ZM58.0156 111.182C58.652 111.182 59.1463 110.875 59.4986 110.261C59.8509 109.648 60.027 108.773 60.027 107.636C60.027 106.881 59.946 106.237 59.7841 105.706C59.625 105.175 59.3949 104.77 59.0938 104.491C58.7955 104.213 58.4361 104.074 58.0156 104.074C57.3849 104.074 56.892 104.385 56.5369 105.007C56.1818 105.626 56.0043 106.503 56.0043 107.636C56.0043 108.392 56.0838 109.034 56.2429 109.562C56.402 110.091 56.6307 110.493 56.929 110.768C57.2301 111.044 57.5923 111.182 58.0156 111.182ZM72.1634 106C72.0696 105.713 71.946 105.456 71.7926 105.229C71.642 104.999 71.4616 104.803 71.2514 104.641C71.044 104.479 70.8082 104.355 70.544 104.27C70.2798 104.185 69.9901 104.142 69.6747 104.142C69.1577 104.142 68.6875 104.276 68.2642 104.543C67.8409 104.81 67.5043 105.203 67.2543 105.723C67.0043 106.243 66.8793 106.881 66.8793 107.636C66.8793 108.392 67.0057 109.03 67.2585 109.55C67.5114 110.07 67.8537 110.463 68.2855 110.73C68.7173 110.997 69.2031 111.131 69.7429 111.131C70.2429 111.131 70.6832 111.024 71.0639 110.811C71.4474 110.595 71.7457 110.291 71.9588 109.899C72.1747 109.504 72.2827 109.04 72.2827 108.506L72.6065 108.574H69.9815V107.636H73.3054V108.574C73.3054 109.293 73.152 109.918 72.8452 110.449C72.5412 110.98 72.1207 111.392 71.5838 111.685C71.0497 111.974 70.4361 112.119 69.7429 112.119C68.9702 112.119 68.2912 111.938 67.706 111.574C67.1236 111.21 66.669 110.693 66.3423 110.023C66.0185 109.352 65.8565 108.557 65.8565 107.636C65.8565 106.946 65.9489 106.325 66.1335 105.774C66.321 105.22 66.5852 104.749 66.9261 104.359C67.267 103.97 67.6705 103.672 68.1364 103.464C68.6023 103.257 69.1151 103.153 69.6747 103.153C70.1349 103.153 70.5639 103.223 70.9616 103.362C71.3622 103.499 71.7188 103.693 72.0312 103.946C72.3466 104.196 72.6094 104.496 72.8196 104.845C73.0298 105.192 73.1747 105.577 73.2543 106H72.1634ZM75.1154 112V103.273H76.1722V107.159H80.8256V103.273H81.8825V112H80.8256V108.097H76.1722V112H75.1154ZM83.6744 112V111.233L87.3903 106.46V106.392H83.7937V105.455H88.6857V106.256L85.0721 110.994V111.062H88.805V112H83.6744Z" fill="#4B4B4B"/>
<path d="M44.6989 129.21V128.341L48.5341 122.273H49.1648V123.619H48.7386L45.8409 128.205V128.273H51.0057V129.21H44.6989ZM48.8068 131V128.946V128.541V122.273H49.8125V131H48.8068ZM52.756 122.273H54.0174L56.9833 129.517H57.0856L60.0515 122.273H61.3129V131H60.3242V124.369H60.239L57.5117 131H56.5572L53.8299 124.369H53.7447V131H52.756V122.273ZM63.4318 131V122.273H66.483C67.0909 122.273 67.5923 122.378 67.9872 122.588C68.3821 122.795 68.6761 123.075 68.8693 123.428C69.0625 123.777 69.1591 124.165 69.1591 124.591C69.1591 124.966 69.0923 125.276 68.9588 125.52C68.8281 125.764 68.6548 125.957 68.4389 126.099C68.2259 126.241 67.9943 126.347 67.7443 126.415V126.5C68.0114 126.517 68.2798 126.611 68.5497 126.781C68.8196 126.952 69.0455 127.196 69.2273 127.514C69.4091 127.832 69.5 128.222 69.5 128.682C69.5 129.119 69.4006 129.513 69.2017 129.862C69.0028 130.212 68.6889 130.489 68.2599 130.693C67.831 130.898 67.2727 131 66.5852 131H63.4318ZM64.4886 130.062H66.5852C67.2756 130.062 67.7656 129.929 68.0554 129.662C68.348 129.392 68.4943 129.065 68.4943 128.682C68.4943 128.386 68.419 128.114 68.2685 127.864C68.1179 127.611 67.9034 127.409 67.625 127.259C67.3466 127.105 67.017 127.028 66.6364 127.028H64.4886V130.062ZM64.4886 126.108H66.4489C66.767 126.108 67.054 126.045 67.3097 125.92C67.5682 125.795 67.7727 125.619 67.9233 125.392C68.0767 125.165 68.1534 124.898 68.1534 124.591C68.1534 124.207 68.0199 123.882 67.7528 123.615C67.4858 123.345 67.0625 123.21 66.483 123.21H64.4886V126.108ZM81.6342 125H80.5774C80.5149 124.696 80.4055 124.429 80.2493 124.199C80.0959 123.969 79.9084 123.776 79.6868 123.619C79.468 123.46 79.2251 123.341 78.9581 123.261C78.6911 123.182 78.4126 123.142 78.1229 123.142C77.5945 123.142 77.1158 123.276 76.6868 123.543C76.2607 123.81 75.9212 124.203 75.6683 124.723C75.4183 125.243 75.2933 125.881 75.2933 126.636C75.2933 127.392 75.4183 128.03 75.6683 128.55C75.9212 129.07 76.2607 129.463 76.6868 129.73C77.1158 129.997 77.5945 130.131 78.1229 130.131C78.4126 130.131 78.6911 130.091 78.9581 130.011C79.2251 129.932 79.468 129.814 79.6868 129.658C79.9084 129.499 80.0959 129.304 80.2493 129.074C80.4055 128.841 80.5149 128.574 80.5774 128.273H81.6342C81.5547 128.719 81.4098 129.118 81.1996 129.47C80.9893 129.822 80.728 130.122 80.4155 130.369C80.103 130.614 79.7521 130.8 79.3629 130.928C78.9766 131.055 78.5632 131.119 78.1229 131.119C77.3786 131.119 76.7166 130.938 76.1371 130.574C75.5575 130.21 75.1016 129.693 74.7692 129.023C74.4368 128.352 74.2706 127.557 74.2706 126.636C74.2706 125.716 74.4368 124.92 74.7692 124.25C75.1016 123.58 75.5575 123.062 76.1371 122.699C76.7166 122.335 77.3786 122.153 78.1229 122.153C78.5632 122.153 78.9766 122.217 79.3629 122.345C79.7521 122.473 80.103 122.661 80.4155 122.908C80.728 123.152 80.9893 123.45 81.1996 123.803C81.4098 124.152 81.5547 124.551 81.6342 125ZM85.1317 131.153C84.717 131.153 84.3406 131.075 84.0025 130.919C83.6644 130.76 83.396 130.531 83.1971 130.233C82.9982 129.932 82.8988 129.568 82.8988 129.142C82.8988 128.767 82.9727 128.463 83.1204 128.23C83.2681 127.994 83.4656 127.81 83.7127 127.676C83.9599 127.543 84.2326 127.443 84.5309 127.378C84.832 127.31 85.1346 127.256 85.4386 127.216C85.8363 127.165 86.1587 127.126 86.4059 127.101C86.6559 127.072 86.8377 127.026 86.9513 126.96C87.0678 126.895 87.1261 126.781 87.1261 126.619V126.585C87.1261 126.165 87.011 125.838 86.7809 125.605C86.5536 125.372 86.2085 125.256 85.7454 125.256C85.2653 125.256 84.8888 125.361 84.6161 125.571C84.3434 125.781 84.1516 126.006 84.0408 126.244L83.0863 125.903C83.2567 125.506 83.484 125.196 83.7681 124.974C84.055 124.75 84.3675 124.594 84.7056 124.506C85.0465 124.415 85.3817 124.369 85.7113 124.369C85.9215 124.369 86.163 124.395 86.4357 124.446C86.7113 124.494 86.9769 124.595 87.2326 124.749C87.4911 124.902 87.7056 125.134 87.8761 125.443C88.0465 125.753 88.1317 126.168 88.1317 126.688V131H87.1261V130.114H87.0749C87.0067 130.256 86.8931 130.408 86.734 130.57C86.5749 130.732 86.3633 130.869 86.0991 130.983C85.8349 131.097 85.5124 131.153 85.1317 131.153ZM85.2852 130.25C85.6829 130.25 86.0181 130.172 86.2908 130.016C86.5664 129.859 86.7738 129.658 86.913 129.411C87.055 129.163 87.1261 128.903 87.1261 128.631V127.71C87.0835 127.761 86.9897 127.808 86.8448 127.851C86.7028 127.891 86.538 127.926 86.3505 127.957C86.1658 127.986 85.9854 128.011 85.8093 128.034C85.636 128.054 85.4954 128.071 85.3874 128.085C85.1261 128.119 84.8817 128.175 84.6545 128.251C84.43 128.325 84.2482 128.437 84.109 128.588C83.9727 128.736 83.9045 128.937 83.9045 129.193C83.9045 129.543 84.0337 129.807 84.2923 129.986C84.5536 130.162 84.8846 130.25 85.2852 130.25ZM92.6264 131.136C92.0128 131.136 91.4844 130.991 91.0412 130.702C90.598 130.412 90.2571 130.013 90.0185 129.504C89.7798 128.996 89.6605 128.415 89.6605 127.761C89.6605 127.097 89.7827 126.51 90.027 126.001C90.2741 125.49 90.6179 125.091 91.0582 124.804C91.5014 124.514 92.0185 124.369 92.6094 124.369C93.0696 124.369 93.4844 124.455 93.8537 124.625C94.223 124.795 94.5256 125.034 94.7614 125.341C94.9972 125.648 95.1435 126.006 95.2003 126.415H94.1946C94.1179 126.116 93.9474 125.852 93.6832 125.622C93.4219 125.389 93.0696 125.273 92.6264 125.273C92.2344 125.273 91.8906 125.375 91.5952 125.58C91.3026 125.781 91.0739 126.067 90.9091 126.436C90.7472 126.803 90.6662 127.233 90.6662 127.727C90.6662 128.233 90.7457 128.673 90.9048 129.048C91.0668 129.423 91.294 129.714 91.5866 129.922C91.8821 130.129 92.2287 130.233 92.6264 130.233C92.8878 130.233 93.125 130.188 93.3381 130.097C93.5511 130.006 93.7315 129.875 93.8793 129.705C94.027 129.534 94.1321 129.33 94.1946 129.091H95.2003C95.1435 129.477 95.0028 129.825 94.7784 130.135C94.5568 130.442 94.2628 130.686 93.8963 130.868C93.5327 131.047 93.1094 131.136 92.6264 131.136ZM97.6761 127.062V131H96.6705V122.273H97.6761V125.477H97.7614C97.9148 125.139 98.1449 124.871 98.4517 124.672C98.7614 124.47 99.1733 124.369 99.6875 124.369C100.134 124.369 100.524 124.459 100.859 124.638C101.195 124.814 101.455 125.085 101.639 125.452C101.827 125.815 101.92 126.278 101.92 126.841V131H100.915V126.909C100.915 126.389 100.78 125.987 100.51 125.703C100.243 125.416 99.8722 125.273 99.3977 125.273C99.0682 125.273 98.7727 125.342 98.5114 125.482C98.2528 125.621 98.0483 125.824 97.8977 126.091C97.75 126.358 97.6761 126.682 97.6761 127.062ZM106.505 131.136C105.874 131.136 105.33 130.997 104.873 130.719C104.418 130.438 104.067 130.045 103.82 129.543C103.576 129.037 103.453 128.449 103.453 127.778C103.453 127.108 103.576 126.517 103.82 126.006C104.067 125.491 104.411 125.091 104.851 124.804C105.294 124.514 105.811 124.369 106.402 124.369C106.743 124.369 107.08 124.426 107.412 124.54C107.745 124.653 108.047 124.838 108.32 125.094C108.593 125.347 108.81 125.682 108.972 126.099C109.134 126.517 109.215 127.031 109.215 127.642V128.068H104.169V127.199H108.192C108.192 126.83 108.118 126.5 107.971 126.21C107.826 125.92 107.618 125.692 107.348 125.524C107.081 125.357 106.766 125.273 106.402 125.273C106.002 125.273 105.655 125.372 105.363 125.571C105.073 125.767 104.85 126.023 104.694 126.338C104.537 126.653 104.459 126.991 104.459 127.352V127.932C104.459 128.426 104.544 128.845 104.715 129.189C104.888 129.53 105.128 129.79 105.435 129.969C105.742 130.145 106.098 130.233 106.505 130.233C106.769 130.233 107.007 130.196 107.221 130.122C107.436 130.045 107.623 129.932 107.779 129.781C107.935 129.628 108.056 129.437 108.141 129.21L109.113 129.483C109.01 129.812 108.838 130.102 108.597 130.352C108.355 130.599 108.057 130.793 107.702 130.932C107.347 131.068 106.948 131.136 106.505 131.136Z" fill="#4B4B4B"/>
<path d="M7 223L32.9808 248.5H7L7 223Z" fill="#EAD093"/>
<defs>
<filter id="filter0_d_11_2" x="21" y="20" width="214" height="214" filterUnits="userSpaceOnUse" color-interpolation-filters="sRGB">
<feFlood flood-opacity="0" result="BackgroundImageFix"/>
<feColorMatrix in="SourceAlpha" type="matrix" values="0 0 0 0 0 0 0 0 0 0 0 0 0 0 0 0 0 0 127 0" result="hardAlpha"/>
<feMorphology radius="3" operator="dilate" in="SourceAlpha" result="effect1_dropShadow_11_2"/>
<feOffset/>
<feGaussianBlur stdDeviation="2"/>
<feComposite in2="hardAlpha" operator="out"/>
<feColorMatrix type="matrix" values="0 0 0 0 0 0 0 0 0 0 0 0 0 0 0 0 0 0 0.1 0"/>
<feBlend mode="normal" in2="BackgroundImageFix" result="effect1_dropShadow_11_2"/>
<feBlend mode="normal" in="SourceGraphic" in2="effect1_dropShadow_11_2" result="shape"/>
</filter>
</defs>
</svg>
