<svg width="255" height="255" viewBox="0 0 255 255" fill="none" xmlns="http://www.w3.org/2000/svg">
<rect width="255" height="255" fill="#DFCB89"/>
<rect x="3" y="2" width="250" height="250" fill="#1E3E34"/>
<rect x="20" y="58" width="16" height="139" rx="4" fill="#E7E7E7"/>
<rect x="220" y="58" width="16" height="139" rx="4" fill="#E7E7E7"/>
<rect x="69" y="20" width="117" height="15" rx="4" fill="#E7E7E7"/>
<rect x="69" y="221" width="117" height="15" rx="4" fill="#E7E7E7"/>
<g filter="url(#filter0_d_11_3)">
<rect x="28" y="27" width="200" height="200" rx="4" fill="#E7E7E7"/>
</g>
<path d="M49.4034 83.9545H51.4943L52.5455 85.3068L53.5795 86.5114L55.5284 88.9545H53.233L51.892 87.3068L51.2045 86.3295L49.4034 83.9545ZM55.7045 82.1818C55.7045 83.4508 55.464 84.5303 54.983 85.4205C54.5057 86.3106 53.8542 86.9905 53.0284 87.4602C52.2064 87.9261 51.2822 88.1591 50.2557 88.1591C49.2216 88.1591 48.2936 87.9242 47.4716 87.4545C46.6496 86.9848 46 86.3049 45.5227 85.4148C45.0455 84.5246 44.8068 83.447 44.8068 82.1818C44.8068 80.9129 45.0455 79.8333 45.5227 78.9432C46 78.053 46.6496 77.375 47.4716 76.9091C48.2936 76.4394 49.2216 76.2045 50.2557 76.2045C51.2822 76.2045 52.2064 76.4394 53.0284 76.9091C53.8542 77.375 54.5057 78.053 54.983 78.9432C55.464 79.8333 55.7045 80.9129 55.7045 82.1818ZM53.2102 82.1818C53.2102 81.3598 53.0871 80.6667 52.8409 80.1023C52.5985 79.5379 52.2557 79.1098 51.8125 78.8182C51.3693 78.5265 50.8504 78.3807 50.2557 78.3807C49.661 78.3807 49.142 78.5265 48.6989 78.8182C48.2557 79.1098 47.911 79.5379 47.6648 80.1023C47.4223 80.6667 47.3011 81.3598 47.3011 82.1818C47.3011 83.0038 47.4223 83.697 47.6648 84.2614C47.911 84.8258 48.2557 85.2538 48.6989 85.5455C49.142 85.8371 49.661 85.983 50.2557 85.983C50.8504 85.983 51.3693 85.8371 51.8125 85.5455C52.2557 85.2538 52.5985 84.8258 52.8409 84.2614C53.0871 83.697 53.2102 83.0038 53.2102 82.1818ZM63.0781 84.2841V79.2727H65.4986V88H63.1747V86.4148H63.0838C62.8868 86.9261 62.5592 87.3371 62.1009 87.6477C61.6463 87.9583 61.0914 88.1136 60.4361 88.1136C59.8527 88.1136 59.3395 87.9811 58.8963 87.7159C58.4531 87.4508 58.1065 87.0739 57.8565 86.5852C57.6103 86.0966 57.4853 85.5114 57.4815 84.8295V79.2727H59.902V84.3977C59.9058 84.9129 60.044 85.3201 60.3168 85.6193C60.5895 85.9186 60.955 86.0682 61.4134 86.0682C61.705 86.0682 61.9777 86.0019 62.2315 85.8693C62.4853 85.733 62.6899 85.5322 62.8452 85.267C63.0043 85.0019 63.0819 84.6742 63.0781 84.2841ZM69.9233 88.1648C69.3665 88.1648 68.8703 88.0682 68.4347 87.875C67.9991 87.678 67.6544 87.3883 67.4006 87.0057C67.1506 86.6193 67.0256 86.1383 67.0256 85.5625C67.0256 85.0777 67.1146 84.6705 67.2926 84.3409C67.4706 84.0114 67.7131 83.7462 68.0199 83.5455C68.3267 83.3447 68.6752 83.1932 69.0653 83.0909C69.4593 82.9886 69.8722 82.9167 70.304 82.875C70.8116 82.822 71.2206 82.7727 71.5312 82.7273C71.8419 82.678 72.0672 82.6061 72.2074 82.5114C72.3475 82.4167 72.4176 82.2765 72.4176 82.0909V82.0568C72.4176 81.697 72.304 81.4186 72.0767 81.2216C71.8532 81.0246 71.535 80.9261 71.1222 80.9261C70.6866 80.9261 70.34 81.0227 70.0824 81.2159C69.8248 81.4053 69.6544 81.6439 69.571 81.9318L67.3324 81.75C67.446 81.2197 67.6695 80.7614 68.0028 80.375C68.3362 79.9848 68.7661 79.6856 69.2926 79.4773C69.8229 79.2652 70.4366 79.1591 71.1335 79.1591C71.6184 79.1591 72.0824 79.2159 72.5256 79.3295C72.9725 79.4432 73.3684 79.6193 73.7131 79.858C74.0616 80.0966 74.3362 80.4034 74.5369 80.7784C74.7377 81.1496 74.8381 81.5947 74.8381 82.1136V88H72.5426V86.7898H72.4744C72.3343 87.0625 72.1468 87.303 71.9119 87.5114C71.6771 87.7159 71.3949 87.8769 71.0653 87.9943C70.7358 88.108 70.3551 88.1648 69.9233 88.1648ZM70.6165 86.4943C70.9725 86.4943 71.2869 86.4242 71.5597 86.2841C71.8324 86.1402 72.0464 85.947 72.2017 85.7045C72.357 85.4621 72.4347 85.1875 72.4347 84.8807V83.9545C72.3589 84.0038 72.2547 84.0492 72.1222 84.0909C71.9934 84.1288 71.8475 84.1648 71.6847 84.1989C71.5218 84.2292 71.3589 84.2576 71.196 84.2841C71.0331 84.3068 70.8854 84.3277 70.7528 84.3466C70.4688 84.3883 70.2206 84.4545 70.0085 84.5455C69.7964 84.6364 69.6316 84.7595 69.5142 84.9148C69.3968 85.0663 69.3381 85.2557 69.3381 85.483C69.3381 85.8125 69.4574 86.0644 69.696 86.2386C69.9384 86.4091 70.2453 86.4943 70.6165 86.4943ZM79.9318 88.142C79.2689 88.142 78.6686 87.9716 78.1307 87.6307C77.5966 87.286 77.1723 86.7803 76.858 86.1136C76.5473 85.4432 76.392 84.6212 76.392 83.6477C76.392 82.6477 76.553 81.8163 76.875 81.1534C77.197 80.4867 77.625 79.9886 78.1591 79.6591C78.697 79.3258 79.286 79.1591 79.9261 79.1591C80.4148 79.1591 80.822 79.2424 81.1477 79.4091C81.4773 79.572 81.7424 79.7765 81.9432 80.0227C82.1477 80.2652 82.303 80.5038 82.4091 80.7386H82.483V76.3636H84.8977V88H82.5114V86.6023H82.4091C82.2955 86.8447 82.1345 87.0852 81.9261 87.3239C81.7216 87.5587 81.4545 87.7538 81.125 87.9091C80.7992 88.0644 80.4015 88.142 79.9318 88.142ZM80.6989 86.2159C81.089 86.2159 81.4186 86.1098 81.6875 85.8977C81.9602 85.6818 82.1686 85.3807 82.3125 84.9943C82.4602 84.608 82.5341 84.1553 82.5341 83.6364C82.5341 83.1174 82.4621 82.6667 82.3182 82.2841C82.1742 81.9015 81.9659 81.6061 81.6932 81.3977C81.4205 81.1894 81.089 81.0852 80.6989 81.0852C80.3011 81.0852 79.9659 81.1932 79.6932 81.4091C79.4205 81.625 79.214 81.9242 79.0739 82.3068C78.9337 82.6894 78.8636 83.1326 78.8636 83.6364C78.8636 84.1439 78.9337 84.5928 79.0739 84.983C79.2178 85.3693 79.4242 85.6723 79.6932 85.892C79.9659 86.108 80.3011 86.2159 80.6989 86.2159ZM100.903 80.4375H98.4148C98.3693 80.1155 98.2765 79.8295 98.1364 79.5795C97.9962 79.3258 97.8163 79.1098 97.5966 78.9318C97.3769 78.7538 97.1231 78.6174 96.8352 78.5227C96.5511 78.428 96.2424 78.3807 95.9091 78.3807C95.3068 78.3807 94.7822 78.5303 94.3352 78.8295C93.8883 79.125 93.5417 79.5568 93.2955 80.125C93.0492 80.6894 92.9261 81.375 92.9261 82.1818C92.9261 83.0114 93.0492 83.7083 93.2955 84.2727C93.5455 84.8371 93.8939 85.2633 94.3409 85.5511C94.7879 85.839 95.3049 85.983 95.892 85.983C96.2216 85.983 96.5265 85.9394 96.8068 85.8523C97.0909 85.7652 97.3428 85.6383 97.5625 85.4716C97.7822 85.3011 97.964 85.0947 98.108 84.8523C98.2557 84.6098 98.358 84.3333 98.4148 84.0227L100.903 84.0341C100.839 84.5682 100.678 85.0833 100.42 85.5795C100.167 86.072 99.8239 86.5133 99.392 86.9034C98.964 87.2898 98.4527 87.5966 97.858 87.8239C97.267 88.0473 96.5985 88.1591 95.8523 88.1591C94.8144 88.1591 93.8864 87.9242 93.0682 87.4545C92.2538 86.9848 91.6098 86.3049 91.1364 85.4148C90.6667 84.5246 90.4318 83.447 90.4318 82.1818C90.4318 80.9129 90.6705 79.8333 91.1477 78.9432C91.625 78.053 92.2727 77.375 93.0909 76.9091C93.9091 76.4394 94.8295 76.2045 95.8523 76.2045C96.5265 76.2045 97.1515 76.2992 97.7273 76.4886C98.3068 76.678 98.8201 76.9545 99.267 77.3182C99.714 77.678 100.078 78.1193 100.358 78.642C100.642 79.1648 100.824 79.7633 100.903 80.4375ZM106.565 88.1705C105.683 88.1705 104.92 87.983 104.276 87.608C103.635 87.2292 103.141 86.7027 102.793 86.0284C102.444 85.3504 102.27 84.5644 102.27 83.6705C102.27 82.7689 102.444 81.9811 102.793 81.3068C103.141 80.6288 103.635 80.1023 104.276 79.7273C104.92 79.3485 105.683 79.1591 106.565 79.1591C107.448 79.1591 108.209 79.3485 108.849 79.7273C109.493 80.1023 109.99 80.6288 110.338 81.3068C110.687 81.9811 110.861 82.7689 110.861 83.6705C110.861 84.5644 110.687 85.3504 110.338 86.0284C109.99 86.7027 109.493 87.2292 108.849 87.608C108.209 87.983 107.448 88.1705 106.565 88.1705ZM106.577 86.2955C106.978 86.2955 107.313 86.1818 107.582 85.9545C107.851 85.7235 108.054 85.4091 108.19 85.0114C108.33 84.6136 108.401 84.161 108.401 83.6534C108.401 83.1458 108.33 82.6932 108.19 82.2955C108.054 81.8977 107.851 81.5833 107.582 81.3523C107.313 81.1212 106.978 81.0057 106.577 81.0057C106.171 81.0057 105.83 81.1212 105.554 81.3523C105.281 81.5833 105.075 81.8977 104.935 82.2955C104.798 82.6932 104.73 83.1458 104.73 83.6534C104.73 84.161 104.798 84.6136 104.935 85.0114C105.075 85.4091 105.281 85.7235 105.554 85.9545C105.83 86.1818 106.171 86.2955 106.577 86.2955ZM112.435 88V79.2727H114.781V80.7955H114.872C115.031 80.2538 115.298 79.8447 115.673 79.5682C116.048 79.2879 116.48 79.1477 116.969 79.1477C117.09 79.1477 117.221 79.1553 117.361 79.1705C117.501 79.1856 117.624 79.2064 117.73 79.233V81.3807C117.616 81.3466 117.459 81.3163 117.259 81.2898C117.058 81.2633 116.874 81.25 116.707 81.25C116.351 81.25 116.033 81.3277 115.753 81.483C115.476 81.6345 115.257 81.8466 115.094 82.1193C114.935 82.392 114.855 82.7064 114.855 83.0625V88H112.435ZM122.553 88.1705C121.655 88.1705 120.882 87.9886 120.234 87.625C119.59 87.2576 119.094 86.7386 118.746 86.0682C118.397 85.3939 118.223 84.5966 118.223 83.6761C118.223 82.7784 118.397 81.9905 118.746 81.3125C119.094 80.6345 119.585 80.1061 120.217 79.7273C120.854 79.3485 121.6 79.1591 122.456 79.1591C123.032 79.1591 123.568 79.2519 124.064 79.4375C124.564 79.6193 125 79.8939 125.371 80.2614C125.746 80.6288 126.037 81.0909 126.246 81.6477C126.454 82.2008 126.558 82.8485 126.558 83.5909V84.2557H119.189V82.7557H124.28C124.28 82.4072 124.204 82.0985 124.053 81.8295C123.901 81.5606 123.691 81.3504 123.422 81.1989C123.157 81.0436 122.848 80.9659 122.496 80.9659C122.128 80.9659 121.803 81.0511 121.518 81.2216C121.238 81.3883 121.018 81.6136 120.859 81.8977C120.7 82.178 120.619 82.4905 120.615 82.8352V84.2614C120.615 84.6932 120.695 85.0663 120.854 85.3807C121.017 85.6951 121.246 85.9375 121.541 86.108C121.837 86.2784 122.187 86.3636 122.592 86.3636C122.861 86.3636 123.107 86.3258 123.331 86.25C123.554 86.1742 123.746 86.0606 123.905 85.9091C124.064 85.7576 124.185 85.572 124.268 85.3523L126.507 85.5C126.393 86.0379 126.161 86.5076 125.808 86.9091C125.46 87.3068 125.009 87.6174 124.456 87.8409C123.907 88.0606 123.272 88.1705 122.553 88.1705ZM142.153 80.4375H139.665C139.619 80.1155 139.527 79.8295 139.386 79.5795C139.246 79.3258 139.066 79.1098 138.847 78.9318C138.627 78.7538 138.373 78.6174 138.085 78.5227C137.801 78.428 137.492 78.3807 137.159 78.3807C136.557 78.3807 136.032 78.5303 135.585 78.8295C135.138 79.125 134.792 79.5568 134.545 80.125C134.299 80.6894 134.176 81.375 134.176 82.1818C134.176 83.0114 134.299 83.7083 134.545 84.2727C134.795 84.8371 135.144 85.2633 135.591 85.5511C136.038 85.839 136.555 85.983 137.142 85.983C137.472 85.983 137.777 85.9394 138.057 85.8523C138.341 85.7652 138.593 85.6383 138.812 85.4716C139.032 85.3011 139.214 85.0947 139.358 84.8523C139.506 84.6098 139.608 84.3333 139.665 84.0227L142.153 84.0341C142.089 84.5682 141.928 85.0833 141.67 85.5795C141.417 86.072 141.074 86.5133 140.642 86.9034C140.214 87.2898 139.703 87.5966 139.108 87.8239C138.517 88.0473 137.848 88.1591 137.102 88.1591C136.064 88.1591 135.136 87.9242 134.318 87.4545C133.504 86.9848 132.86 86.3049 132.386 85.4148C131.917 84.5246 131.682 83.447 131.682 82.1818C131.682 80.9129 131.92 79.8333 132.398 78.9432C132.875 78.053 133.523 77.375 134.341 76.9091C135.159 76.4394 136.08 76.2045 137.102 76.2045C137.777 76.2045 138.402 76.2992 138.977 76.4886C139.557 76.678 140.07 76.9545 140.517 77.3182C140.964 77.678 141.328 78.1193 141.608 78.642C141.892 79.1648 142.074 79.7633 142.153 80.4375ZM143.918 88V76.3636H148.509C149.391 76.3636 150.143 76.5322 150.764 76.8693C151.385 77.2027 151.859 77.6667 152.185 78.2614C152.514 78.8523 152.679 79.5341 152.679 80.3068C152.679 81.0795 152.512 81.7614 152.179 82.3523C151.846 82.9432 151.363 83.4034 150.73 83.733C150.101 84.0625 149.34 84.2273 148.446 84.2273H145.52V82.2557H148.048C148.522 82.2557 148.912 82.1742 149.219 82.0114C149.529 81.8447 149.76 81.6155 149.912 81.3239C150.067 81.0284 150.145 80.6894 150.145 80.3068C150.145 79.9205 150.067 79.5833 149.912 79.2955C149.76 79.0038 149.529 78.7784 149.219 78.6193C148.908 78.4564 148.514 78.375 148.037 78.375H146.378V88H143.918ZM161.464 76.3636H163.925V83.9205C163.925 84.7689 163.722 85.5114 163.317 86.1477C162.915 86.7841 162.353 87.2803 161.629 87.6364C160.906 87.9886 160.063 88.1648 159.101 88.1648C158.135 88.1648 157.29 87.9886 156.567 87.6364C155.843 87.2803 155.281 86.7841 154.879 86.1477C154.478 85.5114 154.277 84.7689 154.277 83.9205V76.3636H156.737V83.7102C156.737 84.1534 156.834 84.5473 157.027 84.892C157.224 85.2367 157.5 85.5076 157.857 85.7045C158.213 85.9015 158.627 86 159.101 86C159.578 86 159.993 85.9015 160.345 85.7045C160.701 85.5076 160.976 85.2367 161.169 84.892C161.366 84.5473 161.464 84.1534 161.464 83.7102V76.3636Z" fill="#4B4B4B"/>
<path d="M47.8523 112.119C47.2898 112.119 46.7884 112.023 46.348 111.83C45.9105 111.636 45.5625 111.368 45.304 111.024C45.0483 110.678 44.9091 110.276 44.8864 109.818H45.9602C45.983 110.099 46.0795 110.342 46.25 110.547C46.4205 110.749 46.6435 110.905 46.919 111.016C47.1946 111.126 47.5 111.182 47.8352 111.182C48.2102 111.182 48.5426 111.116 48.8324 110.986C49.1222 110.855 49.3494 110.673 49.5142 110.44C49.679 110.207 49.7614 109.938 49.7614 109.631C49.7614 109.31 49.6818 109.027 49.5227 108.783C49.3636 108.536 49.1307 108.342 48.8239 108.203C48.517 108.064 48.142 107.994 47.6989 107.994H47V107.057H47.6989C48.0455 107.057 48.3494 106.994 48.6108 106.869C48.875 106.744 49.081 106.568 49.2287 106.341C49.3793 106.114 49.4545 105.847 49.4545 105.54C49.4545 105.244 49.3892 104.987 49.2585 104.768C49.1278 104.55 48.9432 104.379 48.7045 104.257C48.4688 104.135 48.1903 104.074 47.8693 104.074C47.5682 104.074 47.2841 104.129 47.017 104.24C46.7528 104.348 46.5369 104.506 46.3693 104.713C46.2017 104.918 46.1108 105.165 46.0966 105.455H45.0739C45.0909 104.997 45.2287 104.597 45.4872 104.253C45.7457 103.906 46.0838 103.636 46.5014 103.443C46.9219 103.25 47.3835 103.153 47.8864 103.153C48.4261 103.153 48.8892 103.263 49.2756 103.482C49.6619 103.697 49.9588 103.983 50.1662 104.338C50.3736 104.693 50.4773 105.077 50.4773 105.489C50.4773 105.98 50.348 106.399 50.0895 106.746C49.8338 107.092 49.4858 107.332 49.0455 107.466V107.534C49.5966 107.625 50.027 107.859 50.3366 108.237C50.6463 108.612 50.8011 109.077 50.8011 109.631C50.8011 110.105 50.6719 110.531 50.4134 110.909C50.1577 111.284 49.8082 111.58 49.3651 111.795C48.9219 112.011 48.4176 112.119 47.8523 112.119ZM53.0245 112.068C52.8143 112.068 52.6339 111.993 52.4833 111.842C52.3327 111.692 52.2575 111.511 52.2575 111.301C52.2575 111.091 52.3327 110.911 52.4833 110.76C52.6339 110.609 52.8143 110.534 53.0245 110.534C53.2347 110.534 53.4151 110.609 53.5657 110.76C53.7163 110.911 53.7915 111.091 53.7915 111.301C53.7915 111.44 53.756 111.568 53.685 111.685C53.6168 111.801 53.5245 111.895 53.408 111.966C53.2944 112.034 53.1665 112.068 53.0245 112.068ZM58.1211 112.119C57.479 112.119 56.9322 111.945 56.4805 111.595C56.0288 111.243 55.6836 110.733 55.445 110.065C55.2063 109.395 55.087 108.585 55.087 107.636C55.087 106.693 55.2063 105.888 55.445 105.22C55.6864 104.55 56.033 104.038 56.4847 103.686C56.9393 103.331 57.4847 103.153 58.1211 103.153C58.7575 103.153 59.3015 103.331 59.7532 103.686C60.2077 104.038 60.5543 104.55 60.793 105.22C61.0344 105.888 61.1552 106.693 61.1552 107.636C61.1552 108.585 61.0359 109.395 60.7972 110.065C60.5586 110.733 60.2134 111.243 59.7617 111.595C59.31 111.945 58.7631 112.119 58.1211 112.119ZM58.1211 111.182C58.7575 111.182 59.2518 110.875 59.604 110.261C59.9563 109.648 60.1325 108.773 60.1325 107.636C60.1325 106.881 60.0515 106.237 59.8896 105.706C59.7305 105.175 59.5004 104.77 59.1992 104.491C58.9009 104.213 58.5415 104.074 58.1211 104.074C57.4904 104.074 56.9975 104.385 56.6424 105.007C56.2873 105.626 56.1097 106.503 56.1097 107.636C56.1097 108.392 56.1893 109.034 56.3484 109.562C56.5075 110.091 56.7362 110.493 57.0344 110.768C57.3356 111.044 57.6978 111.182 58.1211 111.182ZM72.2688 106C72.1751 105.713 72.0515 105.456 71.8981 105.229C71.7475 104.999 71.5671 104.803 71.3569 104.641C71.1495 104.479 70.9137 104.355 70.6495 104.27C70.3853 104.185 70.0955 104.142 69.7802 104.142C69.2631 104.142 68.793 104.276 68.3697 104.543C67.9464 104.81 67.6097 105.203 67.3597 105.723C67.1097 106.243 66.9847 106.881 66.9847 107.636C66.9847 108.392 67.1112 109.03 67.364 109.55C67.6168 110.07 67.9592 110.463 68.391 110.73C68.8228 110.997 69.3086 111.131 69.8484 111.131C70.3484 111.131 70.7887 111.024 71.1694 110.811C71.5529 110.595 71.8512 110.291 72.0643 109.899C72.2802 109.504 72.3881 109.04 72.3881 108.506L72.712 108.574H70.087V107.636H73.4109V108.574C73.4109 109.293 73.2575 109.918 72.9506 110.449C72.6467 110.98 72.2262 111.392 71.6893 111.685C71.1552 111.974 70.5415 112.119 69.8484 112.119C69.0756 112.119 68.3967 111.938 67.8114 111.574C67.229 111.21 66.7745 110.693 66.4478 110.023C66.1239 109.352 65.962 108.557 65.962 107.636C65.962 106.946 66.0543 106.325 66.239 105.774C66.4265 105.22 66.6907 104.749 67.0316 104.359C67.3725 103.97 67.7759 103.672 68.2418 103.464C68.7077 103.257 69.2205 103.153 69.7802 103.153C70.2404 103.153 70.6694 103.223 71.0671 103.362C71.4677 103.499 71.8242 103.693 72.1367 103.946C72.4521 104.196 72.7148 104.496 72.9251 104.845C73.1353 105.192 73.2802 105.577 73.3597 106H72.2688ZM75.2209 112V103.273H76.2777V107.159H80.9311V103.273H81.9879V112H80.9311V108.097H76.2777V112H75.2209ZM83.7798 112V111.233L87.4957 106.46V106.392H83.8991V105.455H88.7912V106.256L85.1776 110.994V111.062H88.9105V112H83.7798Z" fill="#4B4B4B"/>
<path d="M47.6989 131.119C47.1136 131.119 46.5966 131.016 46.1477 130.808C45.7017 130.598 45.3537 130.31 45.1037 129.943C44.8537 129.574 44.7301 129.153 44.733 128.682C44.7301 128.312 44.8026 127.972 44.9503 127.659C45.098 127.344 45.2997 127.081 45.5554 126.871C45.8139 126.658 46.1023 126.523 46.4205 126.466V126.415C46.0028 126.307 45.6705 126.072 45.4233 125.712C45.1761 125.348 45.054 124.935 45.0568 124.472C45.054 124.028 45.1662 123.632 45.3935 123.283C45.6207 122.933 45.9332 122.658 46.331 122.456C46.7315 122.254 47.1875 122.153 47.6989 122.153C48.2045 122.153 48.6563 122.254 49.054 122.456C49.4517 122.658 49.7642 122.933 49.9915 123.283C50.2216 123.632 50.3381 124.028 50.3409 124.472C50.3381 124.935 50.2116 125.348 49.9616 125.712C49.7145 126.072 49.3864 126.307 48.9773 126.415V126.466C49.2926 126.523 49.5767 126.658 49.8295 126.871C50.0824 127.081 50.2841 127.344 50.4347 127.659C50.5852 127.972 50.6619 128.312 50.6648 128.682C50.6619 129.153 50.5341 129.574 50.2812 129.943C50.0312 130.31 49.6832 130.598 49.2372 130.808C48.794 131.016 48.2813 131.119 47.6989 131.119ZM47.6989 130.182C48.0938 130.182 48.4347 130.118 48.7216 129.99C49.0085 129.862 49.2301 129.682 49.3864 129.449C49.5426 129.216 49.6222 128.943 49.625 128.631C49.6222 128.301 49.5369 128.01 49.3693 127.757C49.2017 127.504 48.973 127.305 48.6832 127.161C48.3963 127.016 48.0682 126.943 47.6989 126.943C47.3267 126.943 46.9943 127.016 46.7017 127.161C46.4119 127.305 46.1832 127.504 46.0156 127.757C45.8509 128.01 45.7699 128.301 45.7727 128.631C45.7699 128.943 45.8452 129.216 45.9986 129.449C46.1548 129.682 46.3778 129.862 46.6676 129.99C46.9574 130.118 47.3011 130.182 47.6989 130.182ZM47.6989 126.04C48.0114 126.04 48.2884 125.977 48.5298 125.852C48.7741 125.727 48.9659 125.553 49.1051 125.328C49.2443 125.104 49.3153 124.841 49.3182 124.54C49.3153 124.244 49.2457 123.987 49.1094 123.768C48.973 123.547 48.7841 123.376 48.5426 123.257C48.3011 123.135 48.0199 123.074 47.6989 123.074C47.3722 123.074 47.0866 123.135 46.8423 123.257C46.598 123.376 46.4091 123.547 46.2756 123.768C46.142 123.987 46.0767 124.244 46.0795 124.54C46.0767 124.841 46.1435 125.104 46.2798 125.328C46.419 125.553 46.6108 125.727 46.8551 125.852C47.0994 125.977 47.3807 126.04 47.6989 126.04ZM52.4513 122.273H53.7127L56.6786 129.517H56.7809L59.7468 122.273H61.0082V131H60.0195V124.369H59.9343L57.207 131H56.2525L53.5252 124.369H53.44V131H52.4513V122.273ZM63.1271 131V122.273H66.1783C66.7862 122.273 67.2876 122.378 67.6825 122.588C68.0774 122.795 68.3714 123.075 68.5646 123.428C68.7578 123.777 68.8544 124.165 68.8544 124.591C68.8544 124.966 68.7876 125.276 68.6541 125.52C68.5234 125.764 68.3501 125.957 68.1342 126.099C67.9212 126.241 67.6896 126.347 67.4396 126.415V126.5C67.7067 126.517 67.9751 126.611 68.245 126.781C68.5149 126.952 68.7408 127.196 68.9226 127.514C69.1044 127.832 69.1953 128.222 69.1953 128.682C69.1953 129.119 69.0959 129.513 68.897 129.862C68.6982 130.212 68.3842 130.489 67.9553 130.693C67.5263 130.898 66.968 131 66.2805 131H63.1271ZM64.1839 130.062H66.2805C66.9709 130.062 67.4609 129.929 67.7507 129.662C68.0433 129.392 68.1896 129.065 68.1896 128.682C68.1896 128.386 68.1143 128.114 67.9638 127.864C67.8132 127.611 67.5987 127.409 67.3203 127.259C67.0419 127.105 66.7124 127.028 66.3317 127.028H64.1839V130.062ZM64.1839 126.108H66.1442C66.4624 126.108 66.7493 126.045 67.005 125.92C67.2635 125.795 67.468 125.619 67.6186 125.392C67.772 125.165 67.8487 124.898 67.8487 124.591C67.8487 124.207 67.7152 123.882 67.4482 123.615C67.1811 123.345 66.7578 123.21 66.1783 123.21H64.1839V126.108ZM81.3295 125H80.2727C80.2102 124.696 80.1009 124.429 79.9446 124.199C79.7912 123.969 79.6037 123.776 79.3821 123.619C79.1634 123.46 78.9205 123.341 78.6534 123.261C78.3864 123.182 78.108 123.142 77.8182 123.142C77.2898 123.142 76.8111 123.276 76.3821 123.543C75.956 123.81 75.6165 124.203 75.3636 124.723C75.1136 125.243 74.9886 125.881 74.9886 126.636C74.9886 127.392 75.1136 128.03 75.3636 128.55C75.6165 129.07 75.956 129.463 76.3821 129.73C76.8111 129.997 77.2898 130.131 77.8182 130.131C78.108 130.131 78.3864 130.091 78.6534 130.011C78.9205 129.932 79.1634 129.814 79.3821 129.658C79.6037 129.499 79.7912 129.304 79.9446 129.074C80.1009 128.841 80.2102 128.574 80.2727 128.273H81.3295C81.25 128.719 81.1051 129.118 80.8949 129.47C80.6847 129.822 80.4233 130.122 80.1108 130.369C79.7983 130.614 79.4474 130.8 79.0582 130.928C78.6719 131.055 78.2585 131.119 77.8182 131.119C77.0739 131.119 76.4119 130.938 75.8324 130.574C75.2528 130.21 74.7969 129.693 74.4645 129.023C74.1321 128.352 73.9659 127.557 73.9659 126.636C73.9659 125.716 74.1321 124.92 74.4645 124.25C74.7969 123.58 75.2528 123.062 75.8324 122.699C76.4119 122.335 77.0739 122.153 77.8182 122.153C78.2585 122.153 78.6719 122.217 79.0582 122.345C79.4474 122.473 79.7983 122.661 80.1108 122.908C80.4233 123.152 80.6847 123.45 80.8949 123.803C81.1051 124.152 81.25 124.551 81.3295 125ZM84.8271 131.153C84.4123 131.153 84.0359 131.075 83.6978 130.919C83.3597 130.76 83.0913 130.531 82.8924 130.233C82.6935 129.932 82.5941 129.568 82.5941 129.142C82.5941 128.767 82.668 128.463 82.8157 128.23C82.9634 127.994 83.1609 127.81 83.408 127.676C83.6552 127.543 83.9279 127.443 84.2262 127.378C84.5273 127.31 84.8299 127.256 85.1339 127.216C85.5316 127.165 85.854 127.126 86.1012 127.101C86.3512 127.072 86.533 127.026 86.6467 126.96C86.7631 126.895 86.8214 126.781 86.8214 126.619V126.585C86.8214 126.165 86.7063 125.838 86.4762 125.605C86.2489 125.372 85.9038 125.256 85.4407 125.256C84.9606 125.256 84.5842 125.361 84.3114 125.571C84.0387 125.781 83.8469 126.006 83.7362 126.244L82.7816 125.903C82.9521 125.506 83.1793 125.196 83.4634 124.974C83.7504 124.75 84.0629 124.594 84.4009 124.506C84.7418 124.415 85.0771 124.369 85.4066 124.369C85.6168 124.369 85.8583 124.395 86.131 124.446C86.4066 124.494 86.6722 124.595 86.9279 124.749C87.1864 124.902 87.4009 125.134 87.5714 125.443C87.7418 125.753 87.8271 126.168 87.8271 126.688V131H86.8214V130.114H86.7702C86.7021 130.256 86.5884 130.408 86.4293 130.57C86.2702 130.732 86.0586 130.869 85.7944 130.983C85.5302 131.097 85.2077 131.153 84.8271 131.153ZM84.9805 130.25C85.3782 130.25 85.7134 130.172 85.9862 130.016C86.2617 129.859 86.4691 129.658 86.6083 129.411C86.7504 129.163 86.8214 128.903 86.8214 128.631V127.71C86.7788 127.761 86.685 127.808 86.5401 127.851C86.3981 127.891 86.2333 127.926 86.0458 127.957C85.8612 127.986 85.6808 128.011 85.5046 128.034C85.3313 128.054 85.1907 128.071 85.0827 128.085C84.8214 128.119 84.5771 128.175 84.3498 128.251C84.1254 128.325 83.9435 128.437 83.8043 128.588C83.668 128.736 83.5998 128.937 83.5998 129.193C83.5998 129.543 83.729 129.807 83.9876 129.986C84.2489 130.162 84.5799 130.25 84.9805 130.25ZM92.3217 131.136C91.7081 131.136 91.1797 130.991 90.7365 130.702C90.2933 130.412 89.9524 130.013 89.7138 129.504C89.4751 128.996 89.3558 128.415 89.3558 127.761C89.3558 127.097 89.478 126.51 89.7223 126.001C89.9695 125.49 90.3132 125.091 90.7536 124.804C91.1967 124.514 91.7138 124.369 92.3047 124.369C92.7649 124.369 93.1797 124.455 93.549 124.625C93.9183 124.795 94.2209 125.034 94.4567 125.341C94.6925 125.648 94.8388 126.006 94.8956 126.415H93.8899C93.8132 126.116 93.6428 125.852 93.3786 125.622C93.1172 125.389 92.7649 125.273 92.3217 125.273C91.9297 125.273 91.5859 125.375 91.2905 125.58C90.9979 125.781 90.7692 126.067 90.6044 126.436C90.4425 126.803 90.3615 127.233 90.3615 127.727C90.3615 128.233 90.4411 128.673 90.6001 129.048C90.7621 129.423 90.9893 129.714 91.282 129.922C91.5774 130.129 91.924 130.233 92.3217 130.233C92.5831 130.233 92.8203 130.188 93.0334 130.097C93.2464 130.006 93.4268 129.875 93.5746 129.705C93.7223 129.534 93.8274 129.33 93.8899 129.091H94.8956C94.8388 129.477 94.6982 129.825 94.4737 130.135C94.2521 130.442 93.9581 130.686 93.5916 130.868C93.228 131.047 92.8047 131.136 92.3217 131.136ZM97.3714 127.062V131H96.3658V122.273H97.3714V125.477H97.4567C97.6101 125.139 97.8402 124.871 98.147 124.672C98.4567 124.47 98.8686 124.369 99.3828 124.369C99.8288 124.369 100.219 124.459 100.555 124.638C100.89 124.814 101.15 125.085 101.335 125.452C101.522 125.815 101.616 126.278 101.616 126.841V131H100.61V126.909C100.61 126.389 100.475 125.987 100.205 125.703C99.9382 125.416 99.5675 125.273 99.093 125.273C98.7635 125.273 98.468 125.342 98.2067 125.482C97.9482 125.621 97.7436 125.824 97.593 126.091C97.4453 126.358 97.3714 126.682 97.3714 127.062ZM106.2 131.136C105.569 131.136 105.025 130.997 104.568 130.719C104.113 130.438 103.762 130.045 103.515 129.543C103.271 129.037 103.149 128.449 103.149 127.778C103.149 127.108 103.271 126.517 103.515 126.006C103.762 125.491 104.106 125.091 104.547 124.804C104.99 124.514 105.507 124.369 106.098 124.369C106.439 124.369 106.775 124.426 107.108 124.54C107.44 124.653 107.743 124.838 108.015 125.094C108.288 125.347 108.505 125.682 108.667 126.099C108.829 126.517 108.91 127.031 108.91 127.642V128.068H103.865V127.199H107.887C107.887 126.83 107.814 126.5 107.666 126.21C107.521 125.92 107.314 125.692 107.044 125.524C106.777 125.357 106.461 125.273 106.098 125.273C105.697 125.273 105.35 125.372 105.058 125.571C104.768 125.767 104.545 126.023 104.389 126.338C104.233 126.653 104.154 126.991 104.154 127.352V127.932C104.154 128.426 104.24 128.845 104.41 129.189C104.583 129.53 104.824 129.79 105.13 129.969C105.437 130.145 105.794 130.233 106.2 130.233C106.464 130.233 106.703 130.196 106.916 130.122C107.132 130.045 107.318 129.932 107.474 129.781C107.63 129.628 107.751 129.437 107.836 129.21L108.808 129.483C108.706 129.812 108.534 130.102 108.292 130.352C108.051 130.599 107.752 130.793 107.397 130.932C107.042 131.068 106.643 131.136 106.2 131.136Z" fill="#4B4B4B"/>
<path d="M7 223L32.9808 248.5H7L7 223Z" fill="#EAD093"/>
<defs>
<filter id="filter0_d_11_3" x="21" y="20" width="214" height="214" filterUnits="userSpaceOnUse" color-interpolation-filters="sRGB">
<feFlood flood-opacity="0" result="BackgroundImageFix"/>
<feColorMatrix in="SourceAlpha" type="matrix" values="0 0 0 0 0 0 0 0 0 0 0 0 0 0 0 0 0 0 127 0" result="hardAlpha"/>
<feMorphology radius="3" operator="dilate" in="SourceAlpha" result="effect1_dropShadow_11_3"/>
<feOffset/>
<feGaussianBlur stdDeviation="2"/>
<feComposite in2="hardAlpha" operator="out"/>
<feColorMatrix type="matrix" values="0 0 0 0 0 0 0 0 0 0 0 0 0 0 0 0 0 0 0.1 0"/>
<feBlend mode="normal" in2="BackgroundImageFix" result="effect1_dropShadow_11_3"/>
<feBlend mode="normal" in="SourceGraphic" in2="effect1_dropShadow_11_3" result="shape"/>
</filter>
</defs>
</svg>
