<svg width="742" height="373" viewBox="0 0 742 373" fill="none" xmlns="http://www.w3.org/2000/svg">
<g filter="url(#filter0_d_11_767)">
<path fill-rule="evenodd" clip-rule="evenodd" d="M456 117C456 115.895 455.105 115 454 115H146C144.895 115 144 115.895 144 117V363C144 364.105 144.895 365 146 365H320.88C321.985 365 322.88 364.105 322.88 363V329.12C322.88 327.397 324.277 326 326 326C327.723 326 329.12 327.397 329.12 329.12V363C329.12 364.105 330.015 365 331.12 365H454C455.105 365 456 364.105 456 363V117Z" fill="#4A9E7C"/>
<rect x="220" y="344" width="4" height="21" rx="2" fill="#F5E19C"/>
<rect x="348" y="344" width="4" height="21" rx="2" fill="#F5E19C"/>
<rect x="228" y="344" width="4" height="21" rx="2" fill="#F5E19C"/>
<rect x="356" y="344" width="4" height="21" rx="2" fill="#F5E19C"/>
<rect x="236" y="344" width="4" height="21" rx="2" fill="#F5E19C"/>
<rect x="364" y="344" width="4" height="21" rx="2" fill="#F5E19C"/>
<rect x="244" y="344" width="4" height="21" rx="2" fill="#F5E19C"/>
<rect x="372" y="344" width="4" height="21" rx="2" fill="#F5E19C"/>
<rect x="252" y="344" width="4" height="21" rx="2" fill="#F5E19C"/>
<rect x="380" y="344" width="4" height="21" rx="2" fill="#F5E19C"/>
<rect x="156" y="344" width="4" height="21" rx="2" fill="#F5E19C"/>
<rect x="284" y="344" width="4" height="21" rx="2" fill="#F5E19C"/>
<rect x="412" y="344" width="4" height="21" rx="2" fill="#F5E19C"/>
<rect x="188" y="344" width="4" height="21" rx="2" fill="#F5E19C"/>
<rect x="316" y="344" width="4" height="21" rx="2" fill="#F5E19C"/>
<rect x="428" y="344" width="4" height="21" rx="2" fill="#F5E19C"/>
<rect x="260" y="344" width="4" height="21" rx="2" fill="#F5E19C"/>
<rect x="388" y="344" width="4" height="21" rx="2" fill="#F5E19C"/>
<rect x="164" y="344" width="4" height="21" rx="2" fill="#F5E19C"/>
<rect x="292" y="344" width="4" height="21" rx="2" fill="#F5E19C"/>
<rect x="420" y="344" width="4" height="21" rx="2" fill="#F5E19C"/>
<rect x="196" y="344" width="4" height="21" rx="2" fill="#F5E19C"/>
<rect x="436" y="344" width="4" height="21" rx="2" fill="#F5E19C"/>
<rect x="268" y="344" width="4" height="21" rx="2" fill="#F5E19C"/>
<rect x="396" y="344" width="4" height="21" rx="2" fill="#F5E19C"/>
<rect x="172" y="344" width="4" height="21" rx="2" fill="#F5E19C"/>
<rect x="300" y="344" width="4" height="21" rx="2" fill="#F5E19C"/>
<rect x="204" y="344" width="4" height="21" rx="2" fill="#F5E19C"/>
<rect x="332" y="344" width="4" height="21" rx="2" fill="#F5E19C"/>
<rect x="444" y="344" width="4" height="21" rx="2" fill="#F5E19C"/>
<rect x="148" y="344" width="4" height="21" rx="2" fill="#F5E19C"/>
<rect x="276" y="344" width="4" height="21" rx="2" fill="#F5E19C"/>
<rect x="404" y="344" width="4" height="21" rx="2" fill="#F5E19C"/>
<rect x="180" y="344" width="4" height="21" rx="2" fill="#F5E19C"/>
<rect x="308" y="344" width="4" height="21" rx="2" fill="#F5E19C"/>
<rect x="212" y="344" width="4" height="21" rx="2" fill="#F5E19C"/>
<rect x="340" y="344" width="4" height="21" rx="2" fill="#F5E19C"/>
<rect x="34" y="16" width="700" height="300" fill="#B8B8B8"/>
<circle cx="541" cy="167" r="125" fill="#262626"/>
<rect x="488" y="82" width="8" height="100" transform="rotate(-30 488 82)" fill="#D9D9D9"/>
<rect x="454" y="122.928" width="8" height="100" transform="rotate(-60 454 122.928)" fill="#D9D9D9"/>
<rect x="445" y="173" width="8" height="100" transform="rotate(-90 445 173)" fill="#D9D9D9"/>
<rect x="458" y="221.928" width="8" height="100" transform="rotate(-120 458 221.928)" fill="#D9D9D9"/>
<rect x="494.928" y="251.603" width="8" height="100" transform="rotate(-150 494.928 251.603)" fill="#D9D9D9"/>
<rect x="545" y="265" width="8" height="100" transform="rotate(180 545 265)" fill="#D9D9D9"/>
<rect x="593.928" y="251.603" width="8" height="100" transform="rotate(150 593.928 251.603)" fill="#D9D9D9"/>
<rect x="593.928" y="252" width="8" height="100" transform="rotate(150 593.928 252)" fill="#D9D9D9"/>
<rect x="627.928" y="211.072" width="8" height="100" transform="rotate(120 627.928 211.072)" fill="#D9D9D9"/>
<rect x="636.928" y="161" width="8" height="100" transform="rotate(90 636.928 161)" fill="#D9D9D9"/>
<rect x="623.928" y="112.072" width="8" height="100" transform="rotate(60 623.928 112.072)" fill="#D9D9D9"/>
<rect x="587" y="82.3975" width="8" height="100" transform="rotate(30 587 82.3975)" fill="#D9D9D9"/>
<rect x="536.928" y="69" width="8" height="100" fill="#D9D9D9"/>
<rect x="488" y="82.3975" width="8" height="100" transform="rotate(-30 488 82.3975)" fill="#D9D9D9"/>
<circle cx="227" cy="165" r="125" fill="#262626"/>
<rect x="174" y="80" width="8" height="100" transform="rotate(-30 174 80)" fill="#D9D9D9"/>
<rect x="140" y="120.928" width="8" height="100" transform="rotate(-60 140 120.928)" fill="#D9D9D9"/>
<rect x="131" y="171" width="8" height="100" transform="rotate(-90 131 171)" fill="#D9D9D9"/>
<rect x="144" y="219.928" width="8" height="100" transform="rotate(-120 144 219.928)" fill="#D9D9D9"/>
<rect x="180.928" y="249.603" width="8" height="100" transform="rotate(-150 180.928 249.603)" fill="#D9D9D9"/>
<rect x="231" y="263" width="8" height="100" transform="rotate(180 231 263)" fill="#D9D9D9"/>
<rect x="279.928" y="249.603" width="8" height="100" transform="rotate(150 279.928 249.603)" fill="#D9D9D9"/>
<rect x="279.928" y="250" width="8" height="100" transform="rotate(150 279.928 250)" fill="#D9D9D9"/>
<rect x="313.928" y="209.072" width="8" height="100" transform="rotate(120 313.928 209.072)" fill="#D9D9D9"/>
<rect x="322.928" y="159" width="8" height="100" transform="rotate(90 322.928 159)" fill="#D9D9D9"/>
<rect x="309.928" y="110.072" width="8" height="100" transform="rotate(60 309.928 110.072)" fill="#D9D9D9"/>
<rect x="273" y="80.3975" width="8" height="100" transform="rotate(30 273 80.3975)" fill="#D9D9D9"/>
<rect x="222.928" y="67" width="8" height="100" fill="#D9D9D9"/>
<rect x="174" y="80.3975" width="8" height="100" transform="rotate(-30 174 80.3975)" fill="#D9D9D9"/>
<rect x="24" width="10" height="320" fill="#989898"/>
<rect width="34" height="10" fill="#989898"/>
<path fill-rule="evenodd" clip-rule="evenodd" d="M456 117C456 115.895 455.105 115 454 115H146C144.895 115 144 115.895 144 117V363C144 364.105 144.895 365 146 365H320.88C321.985 365 322.88 364.105 322.88 363V329.12C322.88 327.397 324.277 326 326 326C327.723 326 329.12 327.397 329.12 329.12V363C329.12 364.105 330.015 365 331.12 365H454C455.105 365 456 364.105 456 363V117Z" fill="#4A9E7C"/>
<rect x="220" y="344" width="4" height="21" rx="2" fill="#F5E19C"/>
<rect x="348" y="344" width="4" height="21" rx="2" fill="#F5E19C"/>
<rect x="228" y="344" width="4" height="21" rx="2" fill="#F5E19C"/>
<rect x="356" y="344" width="4" height="21" rx="2" fill="#F5E19C"/>
<rect x="236" y="344" width="4" height="21" rx="2" fill="#F5E19C"/>
<rect x="364" y="344" width="4" height="21" rx="2" fill="#F5E19C"/>
<rect x="244" y="344" width="4" height="21" rx="2" fill="#F5E19C"/>
<rect x="372" y="344" width="4" height="21" rx="2" fill="#F5E19C"/>
<rect x="252" y="344" width="4" height="21" rx="2" fill="#F5E19C"/>
<rect x="380" y="344" width="4" height="21" rx="2" fill="#F5E19C"/>
<rect x="156" y="344" width="4" height="21" rx="2" fill="#F5E19C"/>
<rect x="284" y="344" width="4" height="21" rx="2" fill="#F5E19C"/>
<rect x="412" y="344" width="4" height="21" rx="2" fill="#F5E19C"/>
<rect x="188" y="344" width="4" height="21" rx="2" fill="#F5E19C"/>
<rect x="316" y="344" width="4" height="21" rx="2" fill="#F5E19C"/>
<rect x="428" y="344" width="4" height="21" rx="2" fill="#F5E19C"/>
<rect x="260" y="344" width="4" height="21" rx="2" fill="#F5E19C"/>
<rect x="388" y="344" width="4" height="21" rx="2" fill="#F5E19C"/>
<rect x="164" y="344" width="4" height="21" rx="2" fill="#F5E19C"/>
<rect x="292" y="344" width="4" height="21" rx="2" fill="#F5E19C"/>
<rect x="420" y="344" width="4" height="21" rx="2" fill="#F5E19C"/>
<rect x="196" y="344" width="4" height="21" rx="2" fill="#F5E19C"/>
<rect x="436" y="344" width="4" height="21" rx="2" fill="#F5E19C"/>
<rect x="268" y="344" width="4" height="21" rx="2" fill="#F5E19C"/>
<rect x="396" y="344" width="4" height="21" rx="2" fill="#F5E19C"/>
<rect x="172" y="344" width="4" height="21" rx="2" fill="#F5E19C"/>
<rect x="300" y="344" width="4" height="21" rx="2" fill="#F5E19C"/>
<rect x="204" y="344" width="4" height="21" rx="2" fill="#F5E19C"/>
<rect x="332" y="344" width="4" height="21" rx="2" fill="#F5E19C"/>
<rect x="444" y="344" width="4" height="21" rx="2" fill="#F5E19C"/>
<rect x="148" y="344" width="4" height="21" rx="2" fill="#F5E19C"/>
<rect x="276" y="344" width="4" height="21" rx="2" fill="#F5E19C"/>
<rect x="404" y="344" width="4" height="21" rx="2" fill="#F5E19C"/>
<rect x="180" y="344" width="4" height="21" rx="2" fill="#F5E19C"/>
<rect x="308" y="344" width="4" height="21" rx="2" fill="#F5E19C"/>
<rect x="212" y="344" width="4" height="21" rx="2" fill="#F5E19C"/>
<rect x="340" y="344" width="4" height="21" rx="2" fill="#F5E19C"/>
<rect x="34" y="16" width="700" height="300" fill="#B8B8B8"/>
<circle cx="541" cy="167" r="125" fill="#262626"/>
<rect x="488" y="82" width="8" height="100" transform="rotate(-30 488 82)" fill="#D9D9D9"/>
<rect x="454" y="122.928" width="8" height="100" transform="rotate(-60 454 122.928)" fill="#D9D9D9"/>
<rect x="445" y="173" width="8" height="100" transform="rotate(-90 445 173)" fill="#D9D9D9"/>
<rect x="458" y="221.928" width="8" height="100" transform="rotate(-120 458 221.928)" fill="#D9D9D9"/>
<rect x="494.928" y="251.603" width="8" height="100" transform="rotate(-150 494.928 251.603)" fill="#D9D9D9"/>
<rect x="545" y="265" width="8" height="100" transform="rotate(180 545 265)" fill="#D9D9D9"/>
<rect x="593.928" y="251.603" width="8" height="100" transform="rotate(150 593.928 251.603)" fill="#D9D9D9"/>
<rect x="593.928" y="252" width="8" height="100" transform="rotate(150 593.928 252)" fill="#D9D9D9"/>
<rect x="627.928" y="211.072" width="8" height="100" transform="rotate(120 627.928 211.072)" fill="#D9D9D9"/>
<rect x="636.928" y="161" width="8" height="100" transform="rotate(90 636.928 161)" fill="#D9D9D9"/>
<rect x="623.928" y="112.072" width="8" height="100" transform="rotate(60 623.928 112.072)" fill="#D9D9D9"/>
<rect x="587" y="82.3975" width="8" height="100" transform="rotate(30 587 82.3975)" fill="#D9D9D9"/>
<rect x="536.928" y="69" width="8" height="100" fill="#D9D9D9"/>
<rect x="488" y="82.3975" width="8" height="100" transform="rotate(-30 488 82.3975)" fill="#D9D9D9"/>
<circle cx="227" cy="165" r="125" fill="#262626"/>
<rect x="174" y="80" width="8" height="100" transform="rotate(-30 174 80)" fill="#D9D9D9"/>
<rect x="140" y="120.928" width="8" height="100" transform="rotate(-60 140 120.928)" fill="#D9D9D9"/>
<rect x="131" y="171" width="8" height="100" transform="rotate(-90 131 171)" fill="#D9D9D9"/>
<rect x="144" y="219.928" width="8" height="100" transform="rotate(-120 144 219.928)" fill="#D9D9D9"/>
<rect x="180.928" y="249.603" width="8" height="100" transform="rotate(-150 180.928 249.603)" fill="#D9D9D9"/>
<rect x="231" y="263" width="8" height="100" transform="rotate(180 231 263)" fill="#D9D9D9"/>
<rect x="279.928" y="249.603" width="8" height="100" transform="rotate(150 279.928 249.603)" fill="#D9D9D9"/>
<rect x="279.928" y="250" width="8" height="100" transform="rotate(150 279.928 250)" fill="#D9D9D9"/>
<rect x="313.928" y="209.072" width="8" height="100" transform="rotate(120 313.928 209.072)" fill="#D9D9D9"/>
<rect x="322.928" y="159" width="8" height="100" transform="rotate(90 322.928 159)" fill="#D9D9D9"/>
<rect x="309.928" y="110.072" width="8" height="100" transform="rotate(60 309.928 110.072)" fill="#D9D9D9"/>
<rect x="273" y="80.3975" width="8" height="100" transform="rotate(30 273 80.3975)" fill="#D9D9D9"/>
<rect x="222.928" y="67" width="8" height="100" fill="#D9D9D9"/>
<rect x="174" y="80.3975" width="8" height="100" transform="rotate(-30 174 80.3975)" fill="#D9D9D9"/>
<rect x="24" width="10" height="320" fill="#989898"/>
<rect width="34" height="10" fill="#989898"/>
</g>
<defs>
<filter id="filter0_d_11_767" x="0" y="0" width="742" height="373" filterUnits="userSpaceOnUse" color-interpolation-filters="sRGB">
<feFlood flood-opacity="0" result="BackgroundImageFix"/>
<feColorMatrix in="SourceAlpha" type="matrix" values="0 0 0 0 0 0 0 0 0 0 0 0 0 0 0 0 0 0 127 0" result="hardAlpha"/>
<feOffset dx="4" dy="4"/>
<feGaussianBlur stdDeviation="2"/>
<feComposite in2="hardAlpha" operator="out"/>
<feColorMatrix type="matrix" values="0 0 0 0 0 0 0 0 0 0 0 0 0 0 0 0 0 0 0.15 0"/>
<feBlend mode="normal" in2="BackgroundImageFix" result="effect1_dropShadow_11_767"/>
<feBlend mode="normal" in="SourceGraphic" in2="effect1_dropShadow_11_767" result="shape"/>
</filter>
</defs>
</svg>
