<svg width="608" height="258" viewBox="0 0 608 258" fill="none" xmlns="http://www.w3.org/2000/svg">
<g filter="url(#filter0_d_9_107)">
<path fill-rule="evenodd" clip-rule="evenodd" d="M600 4C600 1.79086 598.209 0 596 0H4C1.79086 0 0 1.79085 0 3.99999V246C0 248.209 1.79086 250 4 250H340C342.209 250 344 248.209 344 246V217C344 213.686 346.686 211 350 211C353.314 211 356 213.686 356 217V246C356 248.209 357.791 250 360 250H596C598.209 250 600 248.209 600 246V4Z" fill="#499A79"/>
<g filter="url(#filter1_d_9_107)">
<rect x="34" y="32" width="80" height="130" rx="2" fill="#54535D"/>
</g>
<g filter="url(#filter2_d_9_107)">
<rect x="149" y="32" width="80" height="130" rx="2" fill="#54535D"/>
</g>
<g filter="url(#filter3_d_9_107)">
<rect x="379" y="32" width="80" height="130" rx="2" fill="#54535D"/>
</g>
<g filter="url(#filter4_d_9_107)">
<rect x="494" y="32" width="80" height="130" rx="2" fill="#54535D"/>
</g>
<rect x="8" y="229" width="4" height="21" rx="2" fill="#F5E19C"/>
<rect x="136" y="229" width="4" height="21" rx="2" fill="#F5E19C"/>
<rect x="264" y="229" width="4" height="21" rx="2" fill="#F5E19C"/>
<rect x="392" y="229" width="4" height="21" rx="2" fill="#F5E19C"/>
<rect x="520" y="229" width="4" height="21" rx="2" fill="#F5E19C"/>
<rect x="16" y="229" width="4" height="21" rx="2" fill="#F5E19C"/>
<rect x="144" y="229" width="4" height="21" rx="2" fill="#F5E19C"/>
<rect x="272" y="229" width="4" height="21" rx="2" fill="#F5E19C"/>
<rect x="400" y="229" width="4" height="21" rx="2" fill="#F5E19C"/>
<rect x="528" y="229" width="4" height="21" rx="2" fill="#F5E19C"/>
<rect x="24" y="229" width="4" height="21" rx="2" fill="#F5E19C"/>
<rect x="152" y="229" width="4" height="21" rx="2" fill="#F5E19C"/>
<rect x="280" y="229" width="4" height="21" rx="2" fill="#F5E19C"/>
<rect x="408" y="229" width="4" height="21" rx="2" fill="#F5E19C"/>
<rect x="536" y="229" width="4" height="21" rx="2" fill="#F5E19C"/>
<rect x="32" y="229" width="4" height="21" rx="2" fill="#F5E19C"/>
<rect x="160" y="229" width="4" height="21" rx="2" fill="#F5E19C"/>
<rect x="288" y="229" width="4" height="21" rx="2" fill="#F5E19C"/>
<rect x="416" y="229" width="4" height="21" rx="2" fill="#F5E19C"/>
<rect x="544" y="229" width="4" height="21" rx="2" fill="#F5E19C"/>
<rect x="40" y="229" width="4" height="21" rx="2" fill="#F5E19C"/>
<rect x="168" y="229" width="4" height="21" rx="2" fill="#F5E19C"/>
<rect x="296" y="229" width="4" height="21" rx="2" fill="#F5E19C"/>
<rect x="424" y="229" width="4" height="21" rx="2" fill="#F5E19C"/>
<rect x="552" y="229" width="4" height="21" rx="2" fill="#F5E19C"/>
<rect x="72" y="229" width="4" height="21" rx="2" fill="#F5E19C"/>
<rect x="200" y="229" width="4" height="21" rx="2" fill="#F5E19C"/>
<rect x="328" y="229" width="4" height="21" rx="2" fill="#F5E19C"/>
<rect x="456" y="229" width="4" height="21" rx="2" fill="#F5E19C"/>
<rect x="584" y="229" width="4" height="21" rx="2" fill="#F5E19C"/>
<rect x="104" y="229" width="4" height="21" rx="2" fill="#F5E19C"/>
<rect x="232" y="229" width="4" height="21" rx="2" fill="#F5E19C"/>
<rect x="360" y="229" width="4" height="21" rx="2" fill="#F5E19C"/>
<rect x="488" y="229" width="4" height="21" rx="2" fill="#F5E19C"/>
<rect x="48" y="229" width="4" height="21" rx="2" fill="#F5E19C"/>
<rect x="176" y="229" width="4" height="21" rx="2" fill="#F5E19C"/>
<rect x="304" y="229" width="4" height="21" rx="2" fill="#F5E19C"/>
<rect x="432" y="229" width="4" height="21" rx="2" fill="#F5E19C"/>
<rect x="560" y="229" width="4" height="21" rx="2" fill="#F5E19C"/>
<rect x="80" y="229" width="4" height="21" rx="2" fill="#F5E19C"/>
<rect x="208" y="229" width="4" height="21" rx="2" fill="#F5E19C"/>
<rect x="336" y="229" width="4" height="21" rx="2" fill="#F5E19C"/>
<rect x="464" y="229" width="4" height="21" rx="2" fill="#F5E19C"/>
<rect x="592" y="229" width="4" height="21" rx="2" fill="#F5E19C"/>
<rect x="112" y="229" width="4" height="21" rx="2" fill="#F5E19C"/>
<rect x="240" y="229" width="4" height="21" rx="2" fill="#F5E19C"/>
<rect x="368" y="229" width="4" height="21" rx="2" fill="#F5E19C"/>
<rect x="496" y="229" width="4" height="21" rx="2" fill="#F5E19C"/>
<rect x="56" y="229" width="4" height="21" rx="2" fill="#F5E19C"/>
<rect x="184" y="229" width="4" height="21" rx="2" fill="#F5E19C"/>
<rect x="312" y="229" width="4" height="21" rx="2" fill="#F5E19C"/>
<rect x="440" y="229" width="4" height="21" rx="2" fill="#F5E19C"/>
<rect x="568" y="229" width="4" height="21" rx="2" fill="#F5E19C"/>
<rect x="88" y="229" width="4" height="21" rx="2" fill="#F5E19C"/>
<rect x="216" y="229" width="4" height="21" rx="2" fill="#F5E19C"/>
<rect x="472" y="229" width="4" height="21" rx="2" fill="#F5E19C"/>
<rect x="120" y="229" width="4" height="21" rx="2" fill="#F5E19C"/>
<rect x="248" y="229" width="4" height="21" rx="2" fill="#F5E19C"/>
<rect x="376" y="229" width="4" height="21" rx="2" fill="#F5E19C"/>
<rect x="504" y="229" width="4" height="21" rx="2" fill="#F5E19C"/>
<rect x="64" y="229" width="4" height="21" rx="2" fill="#F5E19C"/>
<rect x="192" y="229" width="4" height="21" rx="2" fill="#F5E19C"/>
<rect x="320" y="229" width="4" height="21" rx="2" fill="#F5E19C"/>
<rect x="448" y="229" width="4" height="21" rx="2" fill="#F5E19C"/>
<rect x="576" y="229" width="4" height="21" rx="2" fill="#F5E19C"/>
<rect x="96" y="229" width="4" height="21" rx="2" fill="#F5E19C"/>
<rect x="224" y="229" width="4" height="21" rx="2" fill="#F5E19C"/>
<rect x="480" y="229" width="4" height="21" rx="2" fill="#F5E19C"/>
<rect x="128" y="229" width="4" height="21" rx="2" fill="#F5E19C"/>
<rect x="256" y="229" width="4" height="21" rx="2" fill="#F5E19C"/>
<rect x="384" y="229" width="4" height="21" rx="2" fill="#F5E19C"/>
<rect x="512" y="229" width="4" height="21" rx="2" fill="#F5E19C"/>
<rect x="54" y="62" width="500" height="70" rx="8" fill="#F9FAFC"/>
<path d="M72.6712 101.21V99.5149L76.9219 92.8182H78.3835V95.1648H77.5185L74.8388 99.4055V99.4851H80.8793V101.21H72.6712ZM77.5582 103V100.693L77.598 99.9425V92.8182H79.6165V103H77.5582ZM89.1246 96.1094C89.055 95.8674 88.9573 95.6536 88.8313 95.468C88.7054 95.2791 88.5513 95.12 88.369 94.9908C88.19 94.8582 87.9845 94.7571 87.7525 94.6875C87.5238 94.6179 87.2702 94.5831 86.9918 94.5831C86.4715 94.5831 86.0141 94.7124 85.6197 94.9709C85.2286 95.2294 84.9237 95.6056 84.7049 96.0994C84.4862 96.59 84.3768 97.1899 84.3768 97.8991C84.3768 98.6084 84.4845 99.2116 84.6999 99.7088C84.9154 100.206 85.2203 100.585 85.6147 100.847C86.0091 101.106 86.4748 101.235 87.0117 101.235C87.4989 101.235 87.9149 101.149 88.2596 100.977C88.6076 100.801 88.8728 100.554 89.055 100.236C89.2406 99.9176 89.3335 99.5414 89.3335 99.1072L89.771 99.1719H87.146V97.5511H91.4066V98.8338C91.4066 99.7287 91.2177 100.498 90.8398 101.141C90.462 101.78 89.9416 102.274 89.2788 102.622C88.6159 102.967 87.8569 103.139 87.0018 103.139C86.0472 103.139 85.2087 102.929 84.4862 102.508C83.7636 102.084 83.2002 101.482 82.7958 100.703C82.3948 99.9209 82.1942 98.9929 82.1942 97.919C82.1942 97.0937 82.3136 96.358 82.5522 95.7116C82.7942 95.062 83.1322 94.5118 83.5664 94.0611C84.0006 93.6103 84.506 93.2673 85.0827 93.032C85.6594 92.7966 86.2842 92.679 86.957 92.679C87.5337 92.679 88.0707 92.7635 88.5678 92.9325C89.065 93.0982 89.5058 93.3336 89.8903 93.6385C90.2781 93.9434 90.5946 94.3063 90.8398 94.7273C91.0851 95.1449 91.2425 95.6056 91.3121 96.1094H89.1246ZM93.0236 103V92.8182H97.1003C97.8494 92.8182 98.4741 92.9292 98.9746 93.1513C99.4751 93.3733 99.8513 93.6816 100.103 94.076C100.355 94.4671 100.481 94.9179 100.481 95.4283C100.481 95.826 100.401 96.1757 100.242 96.4773C100.083 96.7756 99.8645 97.0208 99.5861 97.2131C99.311 97.402 98.9962 97.5362 98.6415 97.6158V97.7152C99.0293 97.7318 99.3922 97.8411 99.7303 98.0433C100.072 98.2455 100.348 98.5289 100.561 98.8935C100.773 99.2547 100.879 99.6856 100.879 100.186C100.879 100.726 100.744 101.209 100.476 101.633C100.211 102.054 99.8181 102.387 99.2978 102.632C98.7774 102.877 98.1361 103 97.3738 103H93.0236ZM95.1763 101.24H96.9313C97.5312 101.24 97.9687 101.126 98.2438 100.897C98.5189 100.665 98.6564 100.357 98.6564 99.9723C98.6564 99.6906 98.5885 99.442 98.4526 99.2266C98.3167 99.0111 98.1228 98.8421 97.8709 98.7195C97.6223 98.5968 97.3257 98.5355 96.981 98.5355H95.1763V101.24ZM95.1763 97.0788H96.7722C97.0672 97.0788 97.329 97.0275 97.5577 96.9247C97.7897 96.8187 97.972 96.6695 98.1046 96.4773C98.2405 96.285 98.3084 96.0547 98.3084 95.7862C98.3084 95.4183 98.1775 95.1217 97.9157 94.8963C97.6571 94.6709 97.2892 94.5582 96.812 94.5582H95.1763V97.0788Z" fill="black"/>
<path d="M500.494 103H496.885V92.8182H500.524C501.548 92.8182 502.43 93.022 503.169 93.4297C503.908 93.834 504.477 94.4157 504.874 95.1747C505.275 95.9337 505.476 96.8419 505.476 97.8991C505.476 98.9598 505.275 99.8712 504.874 100.634C504.477 101.396 503.905 101.981 503.159 102.388C502.417 102.796 501.528 103 500.494 103ZM499.038 101.156H500.405C501.041 101.156 501.576 101.043 502.011 100.817C502.448 100.589 502.776 100.236 502.995 99.7585C503.217 99.2779 503.328 98.6581 503.328 97.8991C503.328 97.1468 503.217 96.532 502.995 96.0547C502.776 95.5774 502.45 95.2261 502.016 95.0007C501.581 94.7753 501.046 94.6626 500.41 94.6626H499.038V101.156ZM510.68 103H507.07V92.8182H510.71C511.734 92.8182 512.615 93.022 513.355 93.4297C514.094 93.834 514.662 94.4157 515.06 95.1747C515.461 95.9337 515.661 96.8419 515.661 97.8991C515.661 98.9598 515.461 99.8712 515.06 100.634C514.662 101.396 514.09 101.981 513.345 102.388C512.602 102.796 511.714 103 510.68 103ZM509.223 101.156H510.59C511.227 101.156 511.762 101.043 512.196 100.817C512.634 100.589 512.962 100.236 513.181 99.7585C513.403 99.2779 513.514 98.6581 513.514 97.8991C513.514 97.1468 513.403 96.532 513.181 96.0547C512.962 95.5774 512.635 95.2261 512.201 95.0007C511.767 94.7753 511.232 94.6626 510.595 94.6626H509.223V101.156ZM517.256 103V92.8182H521.273C522.042 92.8182 522.698 92.9557 523.242 93.2308C523.789 93.5026 524.205 93.8887 524.49 94.3892C524.778 94.8864 524.922 95.4714 524.922 96.1442C524.922 96.8203 524.776 97.402 524.485 97.8892C524.193 98.3731 523.77 98.7443 523.217 99.0028C522.667 99.2614 522.001 99.3906 521.218 99.3906H518.529V97.6605H520.87C521.281 97.6605 521.623 97.6042 521.895 97.4915C522.166 97.3788 522.368 97.2098 522.501 96.9844C522.637 96.759 522.705 96.4789 522.705 96.1442C522.705 95.8061 522.637 95.5211 522.501 95.2891C522.368 95.0571 522.165 94.8814 521.89 94.7621C521.618 94.6394 521.275 94.5781 520.86 94.5781H519.409V103H517.256ZM522.755 98.3665L525.285 103H522.909L520.433 98.3665H522.755ZM526.23 101.21V99.5149L530.48 92.8182H531.942V95.1648H531.077L528.397 99.4055V99.4851H534.438V101.21H526.23ZM531.117 103V100.693L531.157 99.9425V92.8182H533.175V103H531.117Z" fill="black"/>
</g>
<defs>
<filter id="filter0_d_9_107" x="0" y="0" width="608" height="258" filterUnits="userSpaceOnUse" color-interpolation-filters="sRGB">
<feFlood flood-opacity="0" result="BackgroundImageFix"/>
<feColorMatrix in="SourceAlpha" type="matrix" values="0 0 0 0 0 0 0 0 0 0 0 0 0 0 0 0 0 0 127 0" result="hardAlpha"/>
<feOffset dx="4" dy="4"/>
<feGaussianBlur stdDeviation="2"/>
<feComposite in2="hardAlpha" operator="out"/>
<feColorMatrix type="matrix" values="0 0 0 0 0 0 0 0 0 0 0 0 0 0 0 0 0 0 0.25 0"/>
<feBlend mode="normal" in2="BackgroundImageFix" result="effect1_dropShadow_9_107"/>
<feBlend mode="normal" in="SourceGraphic" in2="effect1_dropShadow_9_107" result="shape"/>
</filter>
<filter id="filter1_d_9_107" x="30" y="28" width="88" height="138" filterUnits="userSpaceOnUse" color-interpolation-filters="sRGB">
<feFlood flood-opacity="0" result="BackgroundImageFix"/>
<feColorMatrix in="SourceAlpha" type="matrix" values="0 0 0 0 0 0 0 0 0 0 0 0 0 0 0 0 0 0 127 0" result="hardAlpha"/>
<feOffset/>
<feGaussianBlur stdDeviation="2"/>
<feComposite in2="hardAlpha" operator="out"/>
<feColorMatrix type="matrix" values="0 0 0 0 0 0 0 0 0 0 0 0 0 0 0 0 0 0 0.25 0"/>
<feBlend mode="normal" in2="BackgroundImageFix" result="effect1_dropShadow_9_107"/>
<feBlend mode="normal" in="SourceGraphic" in2="effect1_dropShadow_9_107" result="shape"/>
</filter>
<filter id="filter2_d_9_107" x="145" y="28" width="88" height="138" filterUnits="userSpaceOnUse" color-interpolation-filters="sRGB">
<feFlood flood-opacity="0" result="BackgroundImageFix"/>
<feColorMatrix in="SourceAlpha" type="matrix" values="0 0 0 0 0 0 0 0 0 0 0 0 0 0 0 0 0 0 127 0" result="hardAlpha"/>
<feOffset/>
<feGaussianBlur stdDeviation="2"/>
<feComposite in2="hardAlpha" operator="out"/>
<feColorMatrix type="matrix" values="0 0 0 0 0 0 0 0 0 0 0 0 0 0 0 0 0 0 0.25 0"/>
<feBlend mode="normal" in2="BackgroundImageFix" result="effect1_dropShadow_9_107"/>
<feBlend mode="normal" in="SourceGraphic" in2="effect1_dropShadow_9_107" result="shape"/>
</filter>
<filter id="filter3_d_9_107" x="375" y="28" width="88" height="138" filterUnits="userSpaceOnUse" color-interpolation-filters="sRGB">
<feFlood flood-opacity="0" result="BackgroundImageFix"/>
<feColorMatrix in="SourceAlpha" type="matrix" values="0 0 0 0 0 0 0 0 0 0 0 0 0 0 0 0 0 0 127 0" result="hardAlpha"/>
<feOffset/>
<feGaussianBlur stdDeviation="2"/>
<feComposite in2="hardAlpha" operator="out"/>
<feColorMatrix type="matrix" values="0 0 0 0 0 0 0 0 0 0 0 0 0 0 0 0 0 0 0.25 0"/>
<feBlend mode="normal" in2="BackgroundImageFix" result="effect1_dropShadow_9_107"/>
<feBlend mode="normal" in="SourceGraphic" in2="effect1_dropShadow_9_107" result="shape"/>
</filter>
<filter id="filter4_d_9_107" x="490" y="28" width="88" height="138" filterUnits="userSpaceOnUse" color-interpolation-filters="sRGB">
<feFlood flood-opacity="0" result="BackgroundImageFix"/>
<feColorMatrix in="SourceAlpha" type="matrix" values="0 0 0 0 0 0 0 0 0 0 0 0 0 0 0 0 0 0 127 0" result="hardAlpha"/>
<feOffset/>
<feGaussianBlur stdDeviation="2"/>
<feComposite in2="hardAlpha" operator="out"/>
<feColorMatrix type="matrix" values="0 0 0 0 0 0 0 0 0 0 0 0 0 0 0 0 0 0 0.25 0"/>
<feBlend mode="normal" in2="BackgroundImageFix" result="effect1_dropShadow_9_107"/>
<feBlend mode="normal" in="SourceGraphic" in2="effect1_dropShadow_9_107" result="shape"/>
</filter>
</defs>
</svg>
