<svg width="608" height="258" viewBox="0 0 608 258" fill="none" xmlns="http://www.w3.org/2000/svg">
<g filter="url(#filter0_d_11_30)">
<path fill-rule="evenodd" clip-rule="evenodd" d="M600 4C600 1.79086 598.209 0 596 0H4C1.79086 0 0 1.79085 0 3.99999V246C0 248.209 1.79086 250 4 250H340C342.209 250 344 248.209 344 246V217C344 213.686 346.686 211 350 211C353.314 211 356 213.686 356 217V246C356 248.209 357.791 250 360 250H596C598.209 250 600 248.209 600 246V4Z" fill="#499A79"/>
<g filter="url(#filter1_d_11_30)">
<rect x="34" y="32" width="80" height="130" rx="2" fill="#54535D"/>
</g>
<g filter="url(#filter2_d_11_30)">
<rect x="149" y="32" width="80" height="130" rx="2" fill="#54535D"/>
</g>
<g filter="url(#filter3_d_11_30)">
<rect x="379" y="32" width="80" height="130" rx="2" fill="#54535D"/>
</g>
<g filter="url(#filter4_d_11_30)">
<rect x="494" y="32" width="80" height="130" rx="2" fill="#54535D"/>
</g>
<rect x="8" y="229" width="4" height="21" rx="2" fill="#F5E19C"/>
<rect x="136" y="229" width="4" height="21" rx="2" fill="#F5E19C"/>
<rect x="264" y="229" width="4" height="21" rx="2" fill="#F5E19C"/>
<rect x="392" y="229" width="4" height="21" rx="2" fill="#F5E19C"/>
<rect x="520" y="229" width="4" height="21" rx="2" fill="#F5E19C"/>
<rect x="16" y="229" width="4" height="21" rx="2" fill="#F5E19C"/>
<rect x="144" y="229" width="4" height="21" rx="2" fill="#F5E19C"/>
<rect x="272" y="229" width="4" height="21" rx="2" fill="#F5E19C"/>
<rect x="400" y="229" width="4" height="21" rx="2" fill="#F5E19C"/>
<rect x="528" y="229" width="4" height="21" rx="2" fill="#F5E19C"/>
<rect x="24" y="229" width="4" height="21" rx="2" fill="#F5E19C"/>
<rect x="152" y="229" width="4" height="21" rx="2" fill="#F5E19C"/>
<rect x="280" y="229" width="4" height="21" rx="2" fill="#F5E19C"/>
<rect x="408" y="229" width="4" height="21" rx="2" fill="#F5E19C"/>
<rect x="536" y="229" width="4" height="21" rx="2" fill="#F5E19C"/>
<rect x="32" y="229" width="4" height="21" rx="2" fill="#F5E19C"/>
<rect x="160" y="229" width="4" height="21" rx="2" fill="#F5E19C"/>
<rect x="288" y="229" width="4" height="21" rx="2" fill="#F5E19C"/>
<rect x="416" y="229" width="4" height="21" rx="2" fill="#F5E19C"/>
<rect x="544" y="229" width="4" height="21" rx="2" fill="#F5E19C"/>
<rect x="40" y="229" width="4" height="21" rx="2" fill="#F5E19C"/>
<rect x="168" y="229" width="4" height="21" rx="2" fill="#F5E19C"/>
<rect x="296" y="229" width="4" height="21" rx="2" fill="#F5E19C"/>
<rect x="424" y="229" width="4" height="21" rx="2" fill="#F5E19C"/>
<rect x="552" y="229" width="4" height="21" rx="2" fill="#F5E19C"/>
<rect x="72" y="229" width="4" height="21" rx="2" fill="#F5E19C"/>
<rect x="200" y="229" width="4" height="21" rx="2" fill="#F5E19C"/>
<rect x="328" y="229" width="4" height="21" rx="2" fill="#F5E19C"/>
<rect x="456" y="229" width="4" height="21" rx="2" fill="#F5E19C"/>
<rect x="584" y="229" width="4" height="21" rx="2" fill="#F5E19C"/>
<rect x="104" y="229" width="4" height="21" rx="2" fill="#F5E19C"/>
<rect x="232" y="229" width="4" height="21" rx="2" fill="#F5E19C"/>
<rect x="360" y="229" width="4" height="21" rx="2" fill="#F5E19C"/>
<rect x="488" y="229" width="4" height="21" rx="2" fill="#F5E19C"/>
<rect x="48" y="229" width="4" height="21" rx="2" fill="#F5E19C"/>
<rect x="176" y="229" width="4" height="21" rx="2" fill="#F5E19C"/>
<rect x="304" y="229" width="4" height="21" rx="2" fill="#F5E19C"/>
<rect x="432" y="229" width="4" height="21" rx="2" fill="#F5E19C"/>
<rect x="560" y="229" width="4" height="21" rx="2" fill="#F5E19C"/>
<rect x="80" y="229" width="4" height="21" rx="2" fill="#F5E19C"/>
<rect x="208" y="229" width="4" height="21" rx="2" fill="#F5E19C"/>
<rect x="336" y="229" width="4" height="21" rx="2" fill="#F5E19C"/>
<rect x="464" y="229" width="4" height="21" rx="2" fill="#F5E19C"/>
<rect x="592" y="229" width="4" height="21" rx="2" fill="#F5E19C"/>
<rect x="112" y="229" width="4" height="21" rx="2" fill="#F5E19C"/>
<rect x="240" y="229" width="4" height="21" rx="2" fill="#F5E19C"/>
<rect x="368" y="229" width="4" height="21" rx="2" fill="#F5E19C"/>
<rect x="496" y="229" width="4" height="21" rx="2" fill="#F5E19C"/>
<rect x="56" y="229" width="4" height="21" rx="2" fill="#F5E19C"/>
<rect x="184" y="229" width="4" height="21" rx="2" fill="#F5E19C"/>
<rect x="312" y="229" width="4" height="21" rx="2" fill="#F5E19C"/>
<rect x="440" y="229" width="4" height="21" rx="2" fill="#F5E19C"/>
<rect x="568" y="229" width="4" height="21" rx="2" fill="#F5E19C"/>
<rect x="88" y="229" width="4" height="21" rx="2" fill="#F5E19C"/>
<rect x="216" y="229" width="4" height="21" rx="2" fill="#F5E19C"/>
<rect x="472" y="229" width="4" height="21" rx="2" fill="#F5E19C"/>
<rect x="120" y="229" width="4" height="21" rx="2" fill="#F5E19C"/>
<rect x="248" y="229" width="4" height="21" rx="2" fill="#F5E19C"/>
<rect x="376" y="229" width="4" height="21" rx="2" fill="#F5E19C"/>
<rect x="504" y="229" width="4" height="21" rx="2" fill="#F5E19C"/>
<rect x="64" y="229" width="4" height="21" rx="2" fill="#F5E19C"/>
<rect x="192" y="229" width="4" height="21" rx="2" fill="#F5E19C"/>
<rect x="320" y="229" width="4" height="21" rx="2" fill="#F5E19C"/>
<rect x="448" y="229" width="4" height="21" rx="2" fill="#F5E19C"/>
<rect x="576" y="229" width="4" height="21" rx="2" fill="#F5E19C"/>
<rect x="96" y="229" width="4" height="21" rx="2" fill="#F5E19C"/>
<rect x="224" y="229" width="4" height="21" rx="2" fill="#F5E19C"/>
<rect x="480" y="229" width="4" height="21" rx="2" fill="#F5E19C"/>
<rect x="128" y="229" width="4" height="21" rx="2" fill="#F5E19C"/>
<rect x="256" y="229" width="4" height="21" rx="2" fill="#F5E19C"/>
<rect x="384" y="229" width="4" height="21" rx="2" fill="#F5E19C"/>
<rect x="512" y="229" width="4" height="21" rx="2" fill="#F5E19C"/>
<rect x="54" y="62" width="500" height="70" rx="8" fill="#F9FAFC"/>
<path d="M76.6236 103.139C75.858 103.139 75.1768 103.015 74.5803 102.766C73.987 102.514 73.5213 102.171 73.1832 101.737C72.8452 101.303 72.6761 100.811 72.6761 100.261C72.6761 99.8364 72.7723 99.447 72.9645 99.0923C73.16 98.7344 73.4252 98.4377 73.7599 98.2024C74.0947 97.9638 74.4692 97.8113 74.8835 97.745V97.6754C74.34 97.5661 73.8991 97.3026 73.5611 96.8849C73.223 96.464 73.054 95.9751 73.054 95.4183C73.054 94.8913 73.2081 94.4223 73.5163 94.0114C73.8246 93.5971 74.2472 93.2723 74.7841 93.0369C75.3243 92.7983 75.9375 92.679 76.6236 92.679C77.3097 92.679 77.9212 92.7983 78.4581 93.0369C78.9983 93.2756 79.4226 93.602 79.7308 94.0163C80.0391 94.4273 80.1948 94.8946 80.1982 95.4183C80.1948 95.9785 80.0225 96.4673 79.6811 96.8849C79.3397 97.3026 78.9022 97.5661 78.3686 97.6754V97.745C78.7763 97.8113 79.1458 97.9638 79.4773 98.2024C79.812 98.4377 80.0772 98.7344 80.2727 99.0923C80.4716 99.447 80.5727 99.8364 80.576 100.261C80.5727 100.811 80.402 101.303 80.0639 101.737C79.7259 102.171 79.2585 102.514 78.6619 102.766C78.0687 103.015 77.3892 103.139 76.6236 103.139ZM76.6236 101.558C76.965 101.558 77.2633 101.497 77.5185 101.374C77.7737 101.248 77.9725 101.076 78.1151 100.857C78.2609 100.635 78.3338 100.38 78.3338 100.092C78.3338 99.7966 78.2592 99.5365 78.1101 99.3111C77.9609 99.0824 77.7588 98.9034 77.5036 98.7741C77.2483 98.6416 76.955 98.5753 76.6236 98.5753C76.2955 98.5753 76.0021 98.6416 75.7436 98.7741C75.4851 98.9034 75.2813 99.0824 75.1321 99.3111C74.9863 99.5365 74.9134 99.7966 74.9134 100.092C74.9134 100.38 74.9846 100.635 75.1271 100.857C75.2696 101.076 75.4702 101.248 75.7287 101.374C75.9872 101.497 76.2855 101.558 76.6236 101.558ZM76.6236 97.0092C76.9086 97.0092 77.1622 96.9512 77.3842 96.8352C77.6063 96.7192 77.7803 96.5585 77.9062 96.353C78.0322 96.1475 78.0952 95.9105 78.0952 95.642C78.0952 95.3769 78.0322 95.1449 77.9062 94.946C77.7803 94.7438 77.608 94.5864 77.3892 94.4737C77.1705 94.3577 76.9152 94.2997 76.6236 94.2997C76.3352 94.2997 76.08 94.3577 75.858 94.4737C75.6359 94.5864 75.4619 94.7438 75.3359 94.946C75.2133 95.1449 75.152 95.3769 75.152 95.642C75.152 95.9105 75.215 96.1475 75.3409 96.353C75.4669 96.5585 75.6409 96.7192 75.8629 96.8352C76.085 96.9512 76.3385 97.0092 76.6236 97.0092ZM88.8922 96.1094C88.8226 95.8674 88.7248 95.6536 88.5989 95.468C88.473 95.2791 88.3188 95.12 88.1365 94.9908C87.9576 94.8582 87.7521 94.7571 87.5201 94.6875C87.2914 94.6179 87.0378 94.5831 86.7594 94.5831C86.2391 94.5831 85.7817 94.7124 85.3873 94.9709C84.9962 95.2294 84.6912 95.6056 84.4725 96.0994C84.2537 96.59 84.1444 97.1899 84.1444 97.8991C84.1444 98.6084 84.2521 99.2116 84.4675 99.7088C84.6829 100.206 84.9879 100.585 85.3823 100.847C85.7767 101.106 86.2424 101.235 86.7793 101.235C87.2665 101.235 87.6825 101.149 88.0272 100.977C88.3752 100.801 88.6403 100.554 88.8226 100.236C89.0082 99.9176 89.101 99.5414 89.101 99.1072L89.5385 99.1719H86.9135V97.5511H91.1742V98.8338C91.1742 99.7287 90.9853 100.498 90.6074 101.141C90.2296 101.78 89.7092 102.274 89.0463 102.622C88.3835 102.967 87.6245 103.139 86.7694 103.139C85.8148 103.139 84.9763 102.929 84.2537 102.508C83.5312 102.084 82.9677 101.482 82.5634 100.703C82.1623 99.9209 81.9618 98.9929 81.9618 97.919C81.9618 97.0937 82.0811 96.358 82.3198 95.7116C82.5617 95.062 82.8998 94.5118 83.334 94.0611C83.7682 93.6103 84.2736 93.2673 84.8503 93.032C85.427 92.7966 86.0518 92.679 86.7246 92.679C87.3013 92.679 87.8382 92.7635 88.3354 92.9325C88.8326 93.0982 89.2734 93.3336 89.6578 93.6385C90.0456 93.9434 90.3622 94.3063 90.6074 94.7273C90.8527 95.1449 91.0101 95.6056 91.0797 96.1094H88.8922ZM92.7912 103V92.8182H96.8679C97.617 92.8182 98.2417 92.9292 98.7422 93.1513C99.2427 93.3733 99.6188 93.6816 99.8707 94.076C100.123 94.4671 100.249 94.9179 100.249 95.4283C100.249 95.826 100.169 96.1757 100.01 96.4773C99.8509 96.7756 99.6321 97.0208 99.3537 97.2131C99.0786 97.402 98.7637 97.5362 98.4091 97.6158V97.7152C98.7969 97.7318 99.1598 97.8411 99.4979 98.0433C99.8393 98.2455 100.116 98.5289 100.328 98.8935C100.54 99.2547 100.646 99.6856 100.646 100.186C100.646 100.726 100.512 101.209 100.244 101.633C99.9785 102.054 99.5857 102.387 99.0653 102.632C98.545 102.877 97.9036 103 97.1413 103H92.7912ZM94.9439 101.24H96.6989C97.2988 101.24 97.7363 101.126 98.0114 100.897C98.2865 100.665 98.424 100.357 98.424 99.9723C98.424 99.6906 98.3561 99.442 98.2202 99.2266C98.0843 99.0111 97.8904 98.8421 97.6385 98.7195C97.3899 98.5968 97.0933 98.5355 96.7486 98.5355H94.9439V101.24ZM94.9439 97.0788H96.5398C96.8348 97.0788 97.0966 97.0275 97.3253 96.9247C97.5573 96.8187 97.7396 96.6695 97.8722 96.4773C98.008 96.285 98.076 96.0547 98.076 95.7862C98.076 95.4183 97.9451 95.1217 97.6832 94.8963C97.4247 94.6709 97.0568 94.5582 96.5795 94.5582H94.9439V97.0788Z" fill="black"/>
<path d="M500.494 103H496.885V92.8182H500.524C501.548 92.8182 502.43 93.022 503.169 93.4297C503.908 93.834 504.477 94.4157 504.874 95.1747C505.275 95.9337 505.476 96.8419 505.476 97.8991C505.476 98.9598 505.275 99.8712 504.874 100.634C504.477 101.396 503.905 101.981 503.159 102.388C502.417 102.796 501.528 103 500.494 103ZM499.038 101.156H500.405C501.041 101.156 501.576 101.043 502.011 100.817C502.448 100.589 502.776 100.236 502.995 99.7585C503.217 99.2779 503.328 98.6581 503.328 97.8991C503.328 97.1468 503.217 96.532 502.995 96.0547C502.776 95.5774 502.45 95.2261 502.016 95.0007C501.581 94.7753 501.046 94.6626 500.41 94.6626H499.038V101.156ZM510.68 103H507.07V92.8182H510.71C511.734 92.8182 512.615 93.022 513.355 93.4297C514.094 93.834 514.662 94.4157 515.06 95.1747C515.461 95.9337 515.661 96.8419 515.661 97.8991C515.661 98.9598 515.461 99.8712 515.06 100.634C514.662 101.396 514.09 101.981 513.345 102.388C512.602 102.796 511.714 103 510.68 103ZM509.223 101.156H510.59C511.227 101.156 511.762 101.043 512.196 100.817C512.634 100.589 512.962 100.236 513.181 99.7585C513.403 99.2779 513.514 98.6581 513.514 97.8991C513.514 97.1468 513.403 96.532 513.181 96.0547C512.962 95.5774 512.635 95.2261 512.201 95.0007C511.767 94.7753 511.232 94.6626 510.595 94.6626H509.223V101.156ZM517.256 103V92.8182H521.273C522.042 92.8182 522.698 92.9557 523.242 93.2308C523.789 93.5026 524.205 93.8887 524.49 94.3892C524.778 94.8864 524.922 95.4714 524.922 96.1442C524.922 96.8203 524.776 97.402 524.485 97.8892C524.193 98.3731 523.77 98.7443 523.217 99.0028C522.667 99.2614 522.001 99.3906 521.218 99.3906H518.529V97.6605H520.87C521.281 97.6605 521.623 97.6042 521.895 97.4915C522.166 97.3788 522.368 97.2098 522.501 96.9844C522.637 96.759 522.705 96.4789 522.705 96.1442C522.705 95.8061 522.637 95.5211 522.501 95.2891C522.368 95.0571 522.165 94.8814 521.89 94.7621C521.618 94.6394 521.275 94.5781 520.86 94.5781H519.409V103H517.256ZM522.755 98.3665L525.285 103H522.909L520.433 98.3665H522.755ZM526.23 101.21V99.5149L530.48 92.8182H531.942V95.1648H531.077L528.397 99.4055V99.4851H534.438V101.21H526.23ZM531.117 103V100.693L531.157 99.9425V92.8182H533.175V103H531.117Z" fill="black"/>
</g>
<defs>
<filter id="filter0_d_11_30" x="0" y="0" width="608" height="258" filterUnits="userSpaceOnUse" color-interpolation-filters="sRGB">
<feFlood flood-opacity="0" result="BackgroundImageFix"/>
<feColorMatrix in="SourceAlpha" type="matrix" values="0 0 0 0 0 0 0 0 0 0 0 0 0 0 0 0 0 0 127 0" result="hardAlpha"/>
<feOffset dx="4" dy="4"/>
<feGaussianBlur stdDeviation="2"/>
<feComposite in2="hardAlpha" operator="out"/>
<feColorMatrix type="matrix" values="0 0 0 0 0 0 0 0 0 0 0 0 0 0 0 0 0 0 0.25 0"/>
<feBlend mode="normal" in2="BackgroundImageFix" result="effect1_dropShadow_11_30"/>
<feBlend mode="normal" in="SourceGraphic" in2="effect1_dropShadow_11_30" result="shape"/>
</filter>
<filter id="filter1_d_11_30" x="30" y="28" width="88" height="138" filterUnits="userSpaceOnUse" color-interpolation-filters="sRGB">
<feFlood flood-opacity="0" result="BackgroundImageFix"/>
<feColorMatrix in="SourceAlpha" type="matrix" values="0 0 0 0 0 0 0 0 0 0 0 0 0 0 0 0 0 0 127 0" result="hardAlpha"/>
<feOffset/>
<feGaussianBlur stdDeviation="2"/>
<feComposite in2="hardAlpha" operator="out"/>
<feColorMatrix type="matrix" values="0 0 0 0 0 0 0 0 0 0 0 0 0 0 0 0 0 0 0.25 0"/>
<feBlend mode="normal" in2="BackgroundImageFix" result="effect1_dropShadow_11_30"/>
<feBlend mode="normal" in="SourceGraphic" in2="effect1_dropShadow_11_30" result="shape"/>
</filter>
<filter id="filter2_d_11_30" x="145" y="28" width="88" height="138" filterUnits="userSpaceOnUse" color-interpolation-filters="sRGB">
<feFlood flood-opacity="0" result="BackgroundImageFix"/>
<feColorMatrix in="SourceAlpha" type="matrix" values="0 0 0 0 0 0 0 0 0 0 0 0 0 0 0 0 0 0 127 0" result="hardAlpha"/>
<feOffset/>
<feGaussianBlur stdDeviation="2"/>
<feComposite in2="hardAlpha" operator="out"/>
<feColorMatrix type="matrix" values="0 0 0 0 0 0 0 0 0 0 0 0 0 0 0 0 0 0 0.25 0"/>
<feBlend mode="normal" in2="BackgroundImageFix" result="effect1_dropShadow_11_30"/>
<feBlend mode="normal" in="SourceGraphic" in2="effect1_dropShadow_11_30" result="shape"/>
</filter>
<filter id="filter3_d_11_30" x="375" y="28" width="88" height="138" filterUnits="userSpaceOnUse" color-interpolation-filters="sRGB">
<feFlood flood-opacity="0" result="BackgroundImageFix"/>
<feColorMatrix in="SourceAlpha" type="matrix" values="0 0 0 0 0 0 0 0 0 0 0 0 0 0 0 0 0 0 127 0" result="hardAlpha"/>
<feOffset/>
<feGaussianBlur stdDeviation="2"/>
<feComposite in2="hardAlpha" operator="out"/>
<feColorMatrix type="matrix" values="0 0 0 0 0 0 0 0 0 0 0 0 0 0 0 0 0 0 0.25 0"/>
<feBlend mode="normal" in2="BackgroundImageFix" result="effect1_dropShadow_11_30"/>
<feBlend mode="normal" in="SourceGraphic" in2="effect1_dropShadow_11_30" result="shape"/>
</filter>
<filter id="filter4_d_11_30" x="490" y="28" width="88" height="138" filterUnits="userSpaceOnUse" color-interpolation-filters="sRGB">
<feFlood flood-opacity="0" result="BackgroundImageFix"/>
<feColorMatrix in="SourceAlpha" type="matrix" values="0 0 0 0 0 0 0 0 0 0 0 0 0 0 0 0 0 0 127 0" result="hardAlpha"/>
<feOffset/>
<feGaussianBlur stdDeviation="2"/>
<feComposite in2="hardAlpha" operator="out"/>
<feColorMatrix type="matrix" values="0 0 0 0 0 0 0 0 0 0 0 0 0 0 0 0 0 0 0.25 0"/>
<feBlend mode="normal" in2="BackgroundImageFix" result="effect1_dropShadow_11_30"/>
<feBlend mode="normal" in="SourceGraphic" in2="effect1_dropShadow_11_30" result="shape"/>
</filter>
</defs>
</svg>
