<svg width="255" height="255" viewBox="0 0 255 255" fill="none" xmlns="http://www.w3.org/2000/svg">
<rect width="255" height="255" fill="#DFCB89"/>
<rect x="3" y="2" width="250" height="250" fill="#1E3E34"/>
<rect x="20" y="58" width="16" height="139" rx="4" fill="#E7E7E7"/>
<rect x="220" y="58" width="16" height="139" rx="4" fill="#E7E7E7"/>
<rect x="69" y="20" width="117" height="15" rx="4" fill="#E7E7E7"/>
<rect x="69" y="221" width="117" height="15" rx="4" fill="#E7E7E7"/>
<g filter="url(#filter0_d_11_15)">
<rect x="28" y="27" width="200" height="200" rx="4" fill="#E7E7E7"/>
</g>
<path d="M55.7045 82.1818C55.7045 83.4508 55.464 84.5303 54.983 85.4205C54.5057 86.3106 53.8542 86.9905 53.0284 87.4602C52.2064 87.9261 51.2822 88.1591 50.2557 88.1591C49.2216 88.1591 48.2936 87.9242 47.4716 87.4545C46.6496 86.9848 46 86.3049 45.5227 85.4148C45.0455 84.5246 44.8068 83.447 44.8068 82.1818C44.8068 80.9129 45.0455 79.8333 45.5227 78.9432C46 78.053 46.6496 77.375 47.4716 76.9091C48.2936 76.4394 49.2216 76.2045 50.2557 76.2045C51.2822 76.2045 52.2064 76.4394 53.0284 76.9091C53.8542 77.375 54.5057 78.053 54.983 78.9432C55.464 79.8333 55.7045 80.9129 55.7045 82.1818ZM53.2102 82.1818C53.2102 81.3598 53.0871 80.6667 52.8409 80.1023C52.5985 79.5379 52.2557 79.1098 51.8125 78.8182C51.3693 78.5265 50.8504 78.3807 50.2557 78.3807C49.661 78.3807 49.142 78.5265 48.6989 78.8182C48.2557 79.1098 47.911 79.5379 47.6648 80.1023C47.4223 80.6667 47.3011 81.3598 47.3011 82.1818C47.3011 83.0038 47.4223 83.697 47.6648 84.2614C47.911 84.8258 48.2557 85.2538 48.6989 85.5455C49.142 85.8371 49.661 85.983 50.2557 85.983C50.8504 85.983 51.3693 85.8371 51.8125 85.5455C52.2557 85.2538 52.5985 84.8258 52.8409 84.2614C53.0871 83.697 53.2102 83.0038 53.2102 82.1818ZM61.4247 88.1705C60.5308 88.1705 59.7618 87.9811 59.1179 87.6023C58.4777 87.2197 57.9853 86.6894 57.6406 86.0114C57.2997 85.3333 57.1293 84.553 57.1293 83.6705C57.1293 82.7765 57.3016 81.9924 57.6463 81.3182C57.9948 80.6402 58.4891 80.1117 59.1293 79.733C59.7694 79.3504 60.5308 79.1591 61.4134 79.1591C62.1747 79.1591 62.8414 79.2973 63.4134 79.5739C63.9853 79.8504 64.438 80.2386 64.7713 80.7386C65.1046 81.2386 65.2884 81.8258 65.3224 82.5H63.0384C62.974 82.0644 62.8035 81.714 62.527 81.4489C62.2543 81.1799 61.8963 81.0455 61.4531 81.0455C61.0781 81.0455 60.7505 81.1477 60.4702 81.3523C60.1937 81.553 59.9777 81.8466 59.8224 82.233C59.6671 82.6193 59.5895 83.0871 59.5895 83.6364C59.5895 84.1932 59.6652 84.6667 59.8168 85.0568C59.9721 85.447 60.1899 85.7443 60.4702 85.9489C60.7505 86.1534 61.0781 86.2557 61.4531 86.2557C61.7296 86.2557 61.9777 86.1989 62.1974 86.0852C62.4209 85.9716 62.6046 85.8068 62.7486 85.5909C62.8963 85.3712 62.9929 85.108 63.0384 84.8011H65.3224C65.2846 85.4678 65.1027 86.0549 64.777 86.5625C64.455 87.0663 64.0099 87.4602 63.4418 87.7443C62.8736 88.0284 62.2012 88.1705 61.4247 88.1705ZM71.5142 79.2727V81.0909H66.2585V79.2727H71.5142ZM67.4517 77.1818H69.8722V85.3182C69.8722 85.5417 69.9063 85.7159 69.9744 85.8409C70.0426 85.9621 70.1373 86.0473 70.2585 86.0966C70.3835 86.1458 70.5275 86.1705 70.6903 86.1705C70.804 86.1705 70.9176 86.161 71.0312 86.142C71.1449 86.1193 71.232 86.1023 71.2926 86.0909L71.6733 87.892C71.5521 87.9299 71.3816 87.9735 71.1619 88.0227C70.9422 88.0758 70.6752 88.108 70.3608 88.1193C69.7775 88.142 69.2661 88.0644 68.8267 87.8864C68.3911 87.7083 68.0521 87.4318 67.8097 87.0568C67.5672 86.6818 67.4479 86.2083 67.4517 85.6364V77.1818ZM75.5795 88.1648C75.0227 88.1648 74.5265 88.0682 74.0909 87.875C73.6553 87.678 73.3106 87.3883 73.0568 87.0057C72.8068 86.6193 72.6818 86.1383 72.6818 85.5625C72.6818 85.0777 72.7708 84.6705 72.9489 84.3409C73.1269 84.0114 73.3693 83.7462 73.6761 83.5455C73.983 83.3447 74.3314 83.1932 74.7216 83.0909C75.1155 82.9886 75.5284 82.9167 75.9602 82.875C76.4678 82.822 76.8769 82.7727 77.1875 82.7273C77.4981 82.678 77.7235 82.6061 77.8636 82.5114C78.0038 82.4167 78.0739 82.2765 78.0739 82.0909V82.0568C78.0739 81.697 77.9602 81.4186 77.733 81.2216C77.5095 81.0246 77.1913 80.9261 76.7784 80.9261C76.3428 80.9261 75.9962 81.0227 75.7386 81.2159C75.4811 81.4053 75.3106 81.6439 75.2273 81.9318L72.9886 81.75C73.1023 81.2197 73.3258 80.7614 73.6591 80.375C73.9924 79.9848 74.4223 79.6856 74.9489 79.4773C75.4792 79.2652 76.0928 79.1591 76.7898 79.1591C77.2746 79.1591 77.7386 79.2159 78.1818 79.3295C78.6288 79.4432 79.0246 79.6193 79.3693 79.858C79.7178 80.0966 79.9924 80.4034 80.1932 80.7784C80.3939 81.1496 80.4943 81.5947 80.4943 82.1136V88H78.1989V86.7898H78.1307C77.9905 87.0625 77.803 87.303 77.5682 87.5114C77.3333 87.7159 77.0511 87.8769 76.7216 87.9943C76.392 88.108 76.0114 88.1648 75.5795 88.1648ZM76.2727 86.4943C76.6288 86.4943 76.9432 86.4242 77.2159 86.2841C77.4886 86.1402 77.7027 85.947 77.858 85.7045C78.0133 85.4621 78.0909 85.1875 78.0909 84.8807V83.9545C78.0152 84.0038 77.911 84.0492 77.7784 84.0909C77.6496 84.1288 77.5038 84.1648 77.3409 84.1989C77.178 84.2292 77.0152 84.2576 76.8523 84.2841C76.6894 84.3068 76.5417 84.3277 76.4091 84.3466C76.125 84.3883 75.8769 84.4545 75.6648 84.5455C75.4527 84.6364 75.2879 84.7595 75.1705 84.9148C75.053 85.0663 74.9943 85.2557 74.9943 85.483C74.9943 85.8125 75.1136 86.0644 75.3523 86.2386C75.5947 86.4091 75.9015 86.4943 76.2727 86.4943ZM96.3878 80.4375H93.8991C93.8537 80.1155 93.7609 79.8295 93.6207 79.5795C93.4806 79.3258 93.3007 79.1098 93.081 78.9318C92.8613 78.7538 92.6075 78.6174 92.3196 78.5227C92.0355 78.428 91.7268 78.3807 91.3935 78.3807C90.7912 78.3807 90.2666 78.5303 89.8196 78.8295C89.3726 79.125 89.026 79.5568 88.7798 80.125C88.5336 80.6894 88.4105 81.375 88.4105 82.1818C88.4105 83.0114 88.5336 83.7083 88.7798 84.2727C89.0298 84.8371 89.3783 85.2633 89.8253 85.5511C90.2723 85.839 90.7893 85.983 91.3764 85.983C91.706 85.983 92.0109 85.9394 92.2912 85.8523C92.5753 85.7652 92.8272 85.6383 93.0469 85.4716C93.2666 85.3011 93.4484 85.0947 93.5923 84.8523C93.7401 84.6098 93.8423 84.3333 93.8991 84.0227L96.3878 84.0341C96.3234 84.5682 96.1624 85.0833 95.9048 85.5795C95.651 86.072 95.3082 86.5133 94.8764 86.9034C94.4484 87.2898 93.937 87.5966 93.3423 87.8239C92.7514 88.0473 92.0829 88.1591 91.3366 88.1591C90.2988 88.1591 89.3707 87.9242 88.5526 87.4545C87.7382 86.9848 87.0942 86.3049 86.6207 85.4148C86.151 84.5246 85.9162 83.447 85.9162 82.1818C85.9162 80.9129 86.1548 79.8333 86.6321 78.9432C87.1094 78.053 87.7571 77.375 88.5753 76.9091C89.3935 76.4394 90.3139 76.2045 91.3366 76.2045C92.0109 76.2045 92.6359 76.2992 93.2116 76.4886C93.7912 76.678 94.3045 76.9545 94.7514 77.3182C95.1984 77.678 95.562 78.1193 95.8423 78.642C96.1264 79.1648 96.3082 79.7633 96.3878 80.4375ZM102.05 88.1705C101.167 88.1705 100.404 87.983 99.7599 87.608C99.1198 87.2292 98.6255 86.7027 98.277 86.0284C97.9285 85.3504 97.7543 84.5644 97.7543 83.6705C97.7543 82.7689 97.9285 81.9811 98.277 81.3068C98.6255 80.6288 99.1198 80.1023 99.7599 79.7273C100.404 79.3485 101.167 79.1591 102.05 79.1591C102.932 79.1591 103.694 79.3485 104.334 79.7273C104.978 80.1023 105.474 80.6288 105.822 81.3068C106.171 81.9811 106.345 82.7689 106.345 83.6705C106.345 84.5644 106.171 85.3504 105.822 86.0284C105.474 86.7027 104.978 87.2292 104.334 87.608C103.694 87.983 102.932 88.1705 102.05 88.1705ZM102.061 86.2955C102.463 86.2955 102.798 86.1818 103.067 85.9545C103.336 85.7235 103.538 85.4091 103.675 85.0114C103.815 84.6136 103.885 84.161 103.885 83.6534C103.885 83.1458 103.815 82.6932 103.675 82.2955C103.538 81.8977 103.336 81.5833 103.067 81.3523C102.798 81.1212 102.463 81.0057 102.061 81.0057C101.656 81.0057 101.315 81.1212 101.038 81.3523C100.766 81.5833 100.559 81.8977 100.419 82.2955C100.283 82.6932 100.214 83.1458 100.214 83.6534C100.214 84.161 100.283 84.6136 100.419 85.0114C100.559 85.4091 100.766 85.7235 101.038 85.9545C101.315 86.1818 101.656 86.2955 102.061 86.2955ZM107.919 88V79.2727H110.266V80.7955H110.357C110.516 80.2538 110.783 79.8447 111.158 79.5682C111.533 79.2879 111.964 79.1477 112.453 79.1477C112.574 79.1477 112.705 79.1553 112.845 79.1705C112.985 79.1856 113.108 79.2064 113.214 79.233V81.3807C113.101 81.3466 112.944 81.3163 112.743 81.2898C112.542 81.2633 112.358 81.25 112.192 81.25C111.836 81.25 111.518 81.3277 111.237 81.483C110.961 81.6345 110.741 81.8466 110.578 82.1193C110.419 82.392 110.339 82.7064 110.339 83.0625V88H107.919ZM118.037 88.1705C117.139 88.1705 116.366 87.9886 115.719 87.625C115.075 87.2576 114.579 86.7386 114.23 86.0682C113.882 85.3939 113.707 84.5966 113.707 83.6761C113.707 82.7784 113.882 81.9905 114.23 81.3125C114.579 80.6345 115.069 80.1061 115.702 79.7273C116.338 79.3485 117.084 79.1591 117.94 79.1591C118.516 79.1591 119.052 79.2519 119.548 79.4375C120.048 79.6193 120.484 79.8939 120.855 80.2614C121.23 80.6288 121.522 81.0909 121.73 81.6477C121.938 82.2008 122.043 82.8485 122.043 83.5909V84.2557H114.673V82.7557H119.764C119.764 82.4072 119.688 82.0985 119.537 81.8295C119.385 81.5606 119.175 81.3504 118.906 81.1989C118.641 81.0436 118.332 80.9659 117.98 80.9659C117.613 80.9659 117.287 81.0511 117.003 81.2216C116.723 81.3883 116.503 81.6136 116.344 81.8977C116.185 82.178 116.103 82.4905 116.099 82.8352V84.2614C116.099 84.6932 116.179 85.0663 116.338 85.3807C116.501 85.6951 116.73 85.9375 117.026 86.108C117.321 86.2784 117.671 86.3636 118.077 86.3636C118.346 86.3636 118.592 86.3258 118.815 86.25C119.039 86.1742 119.23 86.0606 119.389 85.9091C119.548 85.7576 119.67 85.572 119.753 85.3523L121.991 85.5C121.878 86.0379 121.645 86.5076 121.293 86.9091C120.944 87.3068 120.493 87.6174 119.94 87.8409C119.391 88.0606 118.757 88.1705 118.037 88.1705ZM137.638 80.4375H135.149C135.104 80.1155 135.011 79.8295 134.871 79.5795C134.731 79.3258 134.551 79.1098 134.331 78.9318C134.111 78.7538 133.857 78.6174 133.57 78.5227C133.286 78.428 132.977 78.3807 132.643 78.3807C132.041 78.3807 131.517 78.5303 131.07 78.8295C130.623 79.125 130.276 79.5568 130.03 80.125C129.784 80.6894 129.661 81.375 129.661 82.1818C129.661 83.0114 129.784 83.7083 130.03 84.2727C130.28 84.8371 130.628 85.2633 131.075 85.5511C131.522 85.839 132.039 85.983 132.626 85.983C132.956 85.983 133.261 85.9394 133.541 85.8523C133.825 85.7652 134.077 85.6383 134.297 85.4716C134.517 85.3011 134.698 85.0947 134.842 84.8523C134.99 84.6098 135.092 84.3333 135.149 84.0227L137.638 84.0341C137.573 84.5682 137.412 85.0833 137.155 85.5795C136.901 86.072 136.558 86.5133 136.126 86.9034C135.698 87.2898 135.187 87.5966 134.592 87.8239C134.001 88.0473 133.333 88.1591 132.587 88.1591C131.549 88.1591 130.621 87.9242 129.803 87.4545C128.988 86.9848 128.344 86.3049 127.871 85.4148C127.401 84.5246 127.166 83.447 127.166 82.1818C127.166 80.9129 127.405 79.8333 127.882 78.9432C128.359 78.053 129.007 77.375 129.825 76.9091C130.643 76.4394 131.564 76.2045 132.587 76.2045C133.261 76.2045 133.886 76.2992 134.462 76.4886C135.041 76.678 135.554 76.9545 136.001 77.3182C136.448 77.678 136.812 78.1193 137.092 78.642C137.376 79.1648 137.558 79.7633 137.638 80.4375ZM139.402 88V76.3636H143.993C144.875 76.3636 145.627 76.5322 146.249 76.8693C146.87 77.2027 147.343 77.6667 147.669 78.2614C147.999 78.8523 148.163 79.5341 148.163 80.3068C148.163 81.0795 147.997 81.7614 147.663 82.3523C147.33 82.9432 146.847 83.4034 146.214 83.733C145.586 84.0625 144.824 84.2273 143.93 84.2273H141.004V82.2557H143.533C144.006 82.2557 144.396 82.1742 144.703 82.0114C145.014 81.8447 145.245 81.6155 145.396 81.3239C145.552 81.0284 145.629 80.6894 145.629 80.3068C145.629 79.9205 145.552 79.5833 145.396 79.2955C145.245 79.0038 145.014 78.7784 144.703 78.6193C144.393 78.4564 143.999 78.375 143.521 78.375H141.862V88H139.402ZM156.949 76.3636H159.409V83.9205C159.409 84.7689 159.206 85.5114 158.801 86.1477C158.4 86.7841 157.837 87.2803 157.114 87.6364C156.39 87.9886 155.547 88.1648 154.585 88.1648C153.619 88.1648 152.775 87.9886 152.051 87.6364C151.328 87.2803 150.765 86.7841 150.364 86.1477C149.962 85.5114 149.761 84.7689 149.761 83.9205V76.3636H152.222V83.7102C152.222 84.1534 152.318 84.5473 152.511 84.892C152.708 85.2367 152.985 85.5076 153.341 85.7045C153.697 85.9015 154.112 86 154.585 86C155.063 86 155.477 85.9015 155.83 85.7045C156.186 85.5076 156.46 85.2367 156.653 84.892C156.85 84.5473 156.949 84.1534 156.949 83.7102V76.3636Z" fill="#4B4B4B"/>
<path d="M44.6989 110.21V109.341L48.5341 103.273H49.1648V104.619H48.7386L45.8409 109.205V109.273H51.0057V110.21H44.6989ZM48.8068 112V109.946V109.541V103.273H49.8125V112H48.8068ZM52.9425 112.068C52.7322 112.068 52.5518 111.993 52.4013 111.842C52.2507 111.692 52.1754 111.511 52.1754 111.301C52.1754 111.091 52.2507 110.911 52.4013 110.76C52.5518 110.609 52.7322 110.534 52.9425 110.534C53.1527 110.534 53.3331 110.609 53.4837 110.76C53.6342 110.911 53.7095 111.091 53.7095 111.301C53.7095 111.44 53.674 111.568 53.603 111.685C53.5348 111.801 53.4425 111.895 53.326 111.966C53.2124 112.034 53.0845 112.068 52.9425 112.068ZM58.0391 112.119C57.397 112.119 56.8501 111.945 56.3984 111.595C55.9467 111.243 55.6016 110.733 55.3629 110.065C55.1243 109.395 55.005 108.585 55.005 107.636C55.005 106.693 55.1243 105.888 55.3629 105.22C55.6044 104.55 55.951 104.038 56.4027 103.686C56.8572 103.331 57.4027 103.153 58.0391 103.153C58.6754 103.153 59.2195 103.331 59.6712 103.686C60.1257 104.038 60.4723 104.55 60.7109 105.22C60.9524 105.888 61.0732 106.693 61.0732 107.636C61.0732 108.585 60.9538 109.395 60.7152 110.065C60.4766 110.733 60.1314 111.243 59.6797 111.595C59.228 111.945 58.6811 112.119 58.0391 112.119ZM58.0391 111.182C58.6754 111.182 59.1697 110.875 59.522 110.261C59.8743 109.648 60.0504 108.773 60.0504 107.636C60.0504 106.881 59.9695 106.237 59.8075 105.706C59.6484 105.175 59.4183 104.77 59.1172 104.491C58.8189 104.213 58.4595 104.074 58.0391 104.074C57.4084 104.074 56.9155 104.385 56.5604 105.007C56.2053 105.626 56.0277 106.503 56.0277 107.636C56.0277 108.392 56.1072 109.034 56.2663 109.562C56.4254 110.091 56.6541 110.493 56.9524 110.768C57.2536 111.044 57.6158 111.182 58.0391 111.182ZM72.1868 106C72.093 105.713 71.9695 105.456 71.8161 105.229C71.6655 104.999 71.4851 104.803 71.2749 104.641C71.0675 104.479 70.8317 104.355 70.5675 104.27C70.3033 104.185 70.0135 104.142 69.6982 104.142C69.1811 104.142 68.7109 104.276 68.2876 104.543C67.8643 104.81 67.5277 105.203 67.2777 105.723C67.0277 106.243 66.9027 106.881 66.9027 107.636C66.9027 108.392 67.0291 109.03 67.282 109.55C67.5348 110.07 67.8771 110.463 68.3089 110.73C68.7408 110.997 69.2266 111.131 69.7663 111.131C70.2663 111.131 70.7067 111.024 71.0874 110.811C71.4709 110.595 71.7692 110.291 71.9822 109.899C72.1982 109.504 72.3061 109.04 72.3061 108.506L72.63 108.574H70.005V107.636H73.3288V108.574C73.3288 109.293 73.1754 109.918 72.8686 110.449C72.5646 110.98 72.1442 111.392 71.6072 111.685C71.0732 111.974 70.4595 112.119 69.7663 112.119C68.9936 112.119 68.3146 111.938 67.7294 111.574C67.147 111.21 66.6925 110.693 66.3658 110.023C66.0419 109.352 65.88 108.557 65.88 107.636C65.88 106.946 65.9723 106.325 66.157 105.774C66.3445 105.22 66.6087 104.749 66.9496 104.359C67.2905 103.97 67.6939 103.672 68.1598 103.464C68.6257 103.257 69.1385 103.153 69.6982 103.153C70.1584 103.153 70.5874 103.223 70.9851 103.362C71.3857 103.499 71.7422 103.693 72.0547 103.946C72.37 104.196 72.6328 104.496 72.843 104.845C73.0533 105.192 73.1982 105.577 73.2777 106H72.1868ZM75.1388 112V103.273H76.1957V107.159H80.8491V103.273H81.9059V112H80.8491V108.097H76.1957V112H75.1388ZM83.6978 112V111.233L87.4137 106.46V106.392H83.8171V105.455H88.7092V106.256L85.0955 110.994V111.062H88.8285V112H83.6978Z" fill="#4B4B4B"/>
<path d="M47.9716 122.273V131H46.9148V123.381H46.8636L44.733 124.795V123.722L46.9148 122.273H47.9716ZM53.3793 131.119C53.0213 131.114 52.6634 131.045 52.3054 130.915C51.9474 130.784 51.6207 130.564 51.3253 130.254C51.0298 129.942 50.7926 129.52 50.6136 128.989C50.4347 128.455 50.3452 127.784 50.3452 126.977C50.3452 126.205 50.4176 125.52 50.5625 124.923C50.7074 124.324 50.9176 123.82 51.1932 123.411C51.4688 122.999 51.8011 122.686 52.1903 122.473C52.5824 122.26 53.0241 122.153 53.5156 122.153C54.0043 122.153 54.4389 122.251 54.8196 122.447C55.2031 122.641 55.5156 122.911 55.7571 123.257C55.9986 123.604 56.1548 124.003 56.2259 124.455H55.1861C55.0895 124.062 54.902 123.737 54.6236 123.479C54.3452 123.22 53.9759 123.091 53.5156 123.091C52.8395 123.091 52.3068 123.385 51.9176 123.973C51.5313 124.561 51.3366 125.386 51.3338 126.449H51.402C51.5611 126.207 51.75 126.001 51.9688 125.831C52.1903 125.658 52.4347 125.524 52.7017 125.43C52.9688 125.337 53.2514 125.29 53.5497 125.29C54.0497 125.29 54.5071 125.415 54.9219 125.665C55.3366 125.912 55.669 126.254 55.919 126.692C56.169 127.126 56.294 127.625 56.294 128.188C56.294 128.727 56.1733 129.222 55.9318 129.67C55.6903 130.116 55.3509 130.472 54.9134 130.736C54.4787 130.997 53.9673 131.125 53.3793 131.119ZM53.3793 130.182C53.7372 130.182 54.0582 130.092 54.3423 129.913C54.6293 129.734 54.8551 129.494 55.0199 129.193C55.1875 128.892 55.2713 128.557 55.2713 128.188C55.2713 127.827 55.1903 127.499 55.0284 127.203C54.8693 126.905 54.6491 126.668 54.3679 126.491C54.0895 126.315 53.7713 126.227 53.4134 126.227C53.1435 126.227 52.892 126.281 52.6591 126.389C52.4261 126.494 52.2216 126.639 52.0455 126.824C51.8722 127.009 51.7358 127.22 51.6364 127.459C51.5369 127.695 51.4872 127.943 51.4872 128.205C51.4872 128.551 51.5682 128.875 51.7301 129.176C51.8949 129.477 52.1193 129.72 52.4034 129.905C52.6903 130.089 53.0156 130.182 53.3793 130.182ZM58.1232 122.273H59.3846L62.3505 129.517H62.4528L65.4187 122.273H66.68V131H65.6914V124.369H65.6062L62.8789 131H61.9244L59.1971 124.369H59.1119V131H58.1232V122.273ZM68.799 131V122.273H71.8501C72.4581 122.273 72.9595 122.378 73.3544 122.588C73.7493 122.795 74.0433 123.075 74.2365 123.428C74.4297 123.777 74.5263 124.165 74.5263 124.591C74.5263 124.966 74.4595 125.276 74.326 125.52C74.1953 125.764 74.022 125.957 73.8061 126.099C73.593 126.241 73.3615 126.347 73.1115 126.415V126.5C73.3786 126.517 73.647 126.611 73.9169 126.781C74.1868 126.952 74.4126 127.196 74.5945 127.514C74.7763 127.832 74.8672 128.222 74.8672 128.682C74.8672 129.119 74.7678 129.513 74.5689 129.862C74.37 130.212 74.0561 130.489 73.6271 130.693C73.1982 130.898 72.6399 131 71.9524 131H68.799ZM69.8558 130.062H71.9524C72.6428 130.062 73.1328 129.929 73.4226 129.662C73.7152 129.392 73.8615 129.065 73.8615 128.682C73.8615 128.386 73.7862 128.114 73.6357 127.864C73.4851 127.611 73.2706 127.409 72.9922 127.259C72.7138 127.105 72.3842 127.028 72.0036 127.028H69.8558V130.062ZM69.8558 126.108H71.8161C72.1342 126.108 72.4212 126.045 72.6768 125.92C72.9354 125.795 73.1399 125.619 73.2905 125.392C73.4439 125.165 73.5206 124.898 73.5206 124.591C73.5206 124.207 73.3871 123.882 73.12 123.615C72.853 123.345 72.4297 123.21 71.8501 123.21H69.8558V126.108ZM87.0014 125H85.9446C85.8821 124.696 85.7727 124.429 85.6165 124.199C85.4631 123.969 85.2756 123.776 85.054 123.619C84.8352 123.46 84.5923 123.341 84.3253 123.261C84.0582 123.182 83.7798 123.142 83.4901 123.142C82.9616 123.142 82.483 123.276 82.054 123.543C81.6278 123.81 81.2884 124.203 81.0355 124.723C80.7855 125.243 80.6605 125.881 80.6605 126.636C80.6605 127.392 80.7855 128.03 81.0355 128.55C81.2884 129.07 81.6278 129.463 82.054 129.73C82.483 129.997 82.9616 130.131 83.4901 130.131C83.7798 130.131 84.0582 130.091 84.3253 130.011C84.5923 129.932 84.8352 129.814 85.054 129.658C85.2756 129.499 85.4631 129.304 85.6165 129.074C85.7727 128.841 85.8821 128.574 85.9446 128.273H87.0014C86.9219 128.719 86.777 129.118 86.5668 129.47C86.3565 129.822 86.0952 130.122 85.7827 130.369C85.4702 130.614 85.1193 130.8 84.7301 130.928C84.3438 131.055 83.9304 131.119 83.4901 131.119C82.7457 131.119 82.0838 130.938 81.5043 130.574C80.9247 130.21 80.4688 129.693 80.1364 129.023C79.804 128.352 79.6378 127.557 79.6378 126.636C79.6378 125.716 79.804 124.92 80.1364 124.25C80.4688 123.58 80.9247 123.062 81.5043 122.699C82.0838 122.335 82.7457 122.153 83.4901 122.153C83.9304 122.153 84.3438 122.217 84.7301 122.345C85.1193 122.473 85.4702 122.661 85.7827 122.908C86.0952 123.152 86.3565 123.45 86.5668 123.803C86.777 124.152 86.9219 124.551 87.0014 125ZM90.4989 131.153C90.0842 131.153 89.7077 131.075 89.3697 130.919C89.0316 130.76 88.7631 130.531 88.5643 130.233C88.3654 129.932 88.266 129.568 88.266 129.142C88.266 128.767 88.3398 128.463 88.4876 128.23C88.6353 127.994 88.8327 127.81 89.0799 127.676C89.3271 127.543 89.5998 127.443 89.8981 127.378C90.1992 127.31 90.5018 127.256 90.8058 127.216C91.2035 127.165 91.5259 127.126 91.7731 127.101C92.0231 127.072 92.2049 127.026 92.3185 126.96C92.435 126.895 92.4933 126.781 92.4933 126.619V126.585C92.4933 126.165 92.3782 125.838 92.1481 125.605C91.9208 125.372 91.5756 125.256 91.1126 125.256C90.6325 125.256 90.256 125.361 89.9833 125.571C89.7106 125.781 89.5188 126.006 89.408 126.244L88.4535 125.903C88.6239 125.506 88.8512 125.196 89.1353 124.974C89.4222 124.75 89.7347 124.594 90.0728 124.506C90.4137 124.415 90.7489 124.369 91.0785 124.369C91.2887 124.369 91.5302 124.395 91.8029 124.446C92.0785 124.494 92.3441 124.595 92.5998 124.749C92.8583 124.902 93.0728 125.134 93.2433 125.443C93.4137 125.753 93.4989 126.168 93.4989 126.688V131H92.4933V130.114H92.4421C92.3739 130.256 92.2603 130.408 92.1012 130.57C91.9421 130.732 91.7305 130.869 91.4663 130.983C91.2021 131.097 90.8796 131.153 90.4989 131.153ZM90.6523 130.25C91.0501 130.25 91.3853 130.172 91.658 130.016C91.9336 129.859 92.141 129.658 92.2802 129.411C92.4222 129.163 92.4933 128.903 92.4933 128.631V127.71C92.4506 127.761 92.3569 127.808 92.212 127.851C92.07 127.891 91.9052 127.926 91.7177 127.957C91.533 127.986 91.3526 128.011 91.1765 128.034C91.0032 128.054 90.8626 128.071 90.7546 128.085C90.4933 128.119 90.2489 128.175 90.0217 128.251C89.7972 128.325 89.6154 128.437 89.4762 128.588C89.3398 128.736 89.2717 128.937 89.2717 129.193C89.2717 129.543 89.4009 129.807 89.6594 129.986C89.9208 130.162 90.2518 130.25 90.6523 130.25ZM97.9936 131.136C97.38 131.136 96.8516 130.991 96.4084 130.702C95.9652 130.412 95.6243 130.013 95.3857 129.504C95.147 128.996 95.0277 128.415 95.0277 127.761C95.0277 127.097 95.1499 126.51 95.3942 126.001C95.6413 125.49 95.9851 125.091 96.4254 124.804C96.8686 124.514 97.3857 124.369 97.9766 124.369C98.4368 124.369 98.8516 124.455 99.2209 124.625C99.5902 124.795 99.8928 125.034 100.129 125.341C100.364 125.648 100.511 126.006 100.567 126.415H99.5618C99.4851 126.116 99.3146 125.852 99.0504 125.622C98.7891 125.389 98.4368 125.273 97.9936 125.273C97.6016 125.273 97.2578 125.375 96.9624 125.58C96.6697 125.781 96.4411 126.067 96.2763 126.436C96.1143 126.803 96.0334 127.233 96.0334 127.727C96.0334 128.233 96.1129 128.673 96.272 129.048C96.4339 129.423 96.6612 129.714 96.9538 129.922C97.2493 130.129 97.5959 130.233 97.9936 130.233C98.255 130.233 98.4922 130.188 98.7053 130.097C98.9183 130.006 99.0987 129.875 99.2464 129.705C99.3942 129.534 99.4993 129.33 99.5618 129.091H100.567C100.511 129.477 100.37 129.825 100.146 130.135C99.924 130.442 99.63 130.686 99.2635 130.868C98.8999 131.047 98.4766 131.136 97.9936 131.136ZM103.043 127.062V131H102.038V122.273H103.043V125.477H103.129C103.282 125.139 103.512 124.871 103.819 124.672C104.129 124.47 104.54 124.369 105.055 124.369C105.501 124.369 105.891 124.459 106.227 124.638C106.562 124.814 106.822 125.085 107.006 125.452C107.194 125.815 107.288 126.278 107.288 126.841V131H106.282V126.909C106.282 126.389 106.147 125.987 105.877 125.703C105.61 125.416 105.239 125.273 104.765 125.273C104.435 125.273 104.14 125.342 103.879 125.482C103.62 125.621 103.415 125.824 103.265 126.091C103.117 126.358 103.043 126.682 103.043 127.062ZM111.872 131.136C111.241 131.136 110.697 130.997 110.24 130.719C109.785 130.438 109.434 130.045 109.187 129.543C108.943 129.037 108.821 128.449 108.821 127.778C108.821 127.108 108.943 126.517 109.187 126.006C109.434 125.491 109.778 125.091 110.218 124.804C110.662 124.514 111.179 124.369 111.77 124.369C112.11 124.369 112.447 124.426 112.779 124.54C113.112 124.653 113.414 124.838 113.687 125.094C113.96 125.347 114.177 125.682 114.339 126.099C114.501 126.517 114.582 127.031 114.582 127.642V128.068H109.537V127.199H113.559C113.559 126.83 113.485 126.5 113.338 126.21C113.193 125.92 112.985 125.692 112.716 125.524C112.449 125.357 112.133 125.273 111.77 125.273C111.369 125.273 111.022 125.372 110.73 125.571C110.44 125.767 110.217 126.023 110.061 126.338C109.904 126.653 109.826 126.991 109.826 127.352V127.932C109.826 128.426 109.912 128.845 110.082 129.189C110.255 129.53 110.495 129.79 110.802 129.969C111.109 130.145 111.466 130.233 111.872 130.233C112.136 130.233 112.375 130.196 112.588 130.122C112.804 130.045 112.99 129.932 113.146 129.781C113.302 129.628 113.423 129.437 113.508 129.21L114.48 129.483C114.377 129.812 114.206 130.102 113.964 130.352C113.723 130.599 113.424 130.793 113.069 130.932C112.714 131.068 112.315 131.136 111.872 131.136Z" fill="#4B4B4B"/>
<path d="M7 223L32.9808 248.5H7L7 223Z" fill="#EAD093"/>
<defs>
<filter id="filter0_d_11_15" x="21" y="20" width="214" height="214" filterUnits="userSpaceOnUse" color-interpolation-filters="sRGB">
<feFlood flood-opacity="0" result="BackgroundImageFix"/>
<feColorMatrix in="SourceAlpha" type="matrix" values="0 0 0 0 0 0 0 0 0 0 0 0 0 0 0 0 0 0 127 0" result="hardAlpha"/>
<feMorphology radius="3" operator="dilate" in="SourceAlpha" result="effect1_dropShadow_11_15"/>
<feOffset/>
<feGaussianBlur stdDeviation="2"/>
<feComposite in2="hardAlpha" operator="out"/>
<feColorMatrix type="matrix" values="0 0 0 0 0 0 0 0 0 0 0 0 0 0 0 0 0 0 0.1 0"/>
<feBlend mode="normal" in2="BackgroundImageFix" result="effect1_dropShadow_11_15"/>
<feBlend mode="normal" in="SourceGraphic" in2="effect1_dropShadow_11_15" result="shape"/>
</filter>
</defs>
</svg>
