<svg width="450" height="550" viewBox="0 0 450 550" fill="none" xmlns="http://www.w3.org/2000/svg">
<rect width="450" height="550" fill="#DEDEDE"/>
<path fill-rule="evenodd" clip-rule="evenodd" d="M25 95.1321V454.289L95.4213 524.711L95.132 525H354.289L354 524.711L424.711 454L425 454.289V95.7107L354.289 25H95.132L25 95.1321Z" fill="#B8B8B8"/>
<path d="M170.943 260.261C170.67 257.511 169.5 255.375 167.432 253.852C165.364 252.33 162.557 251.568 159.011 251.568C156.602 251.568 154.568 251.909 152.909 252.591C151.25 253.25 149.977 254.17 149.091 255.352C148.227 256.534 147.795 257.875 147.795 259.375C147.75 260.625 148.011 261.716 148.58 262.648C149.17 263.58 149.977 264.386 151 265.068C152.023 265.727 153.205 266.307 154.545 266.807C155.886 267.284 157.318 267.693 158.841 268.034L165.114 269.534C168.159 270.216 170.955 271.125 173.5 272.261C176.045 273.398 178.25 274.795 180.114 276.455C181.977 278.114 183.42 280.068 184.443 282.318C185.489 284.568 186.023 287.148 186.045 290.057C186.023 294.33 184.932 298.034 182.773 301.17C180.636 304.284 177.545 306.705 173.5 308.432C169.477 310.136 164.625 310.989 158.943 310.989C153.307 310.989 148.398 310.125 144.216 308.398C140.057 306.67 136.807 304.114 134.466 300.727C132.148 297.318 130.932 293.102 130.818 288.08H145.102C145.261 290.42 145.932 292.375 147.114 293.943C148.318 295.489 149.92 296.659 151.92 297.455C153.943 298.227 156.227 298.614 158.773 298.614C161.273 298.614 163.443 298.25 165.284 297.523C167.148 296.795 168.591 295.784 169.614 294.489C170.636 293.193 171.148 291.705 171.148 290.023C171.148 288.455 170.682 287.136 169.75 286.068C168.841 285 167.5 284.091 165.727 283.341C163.977 282.591 161.83 281.909 159.284 281.295L151.682 279.386C145.795 277.955 141.148 275.716 137.739 272.67C134.33 269.625 132.636 265.523 132.659 260.364C132.636 256.136 133.761 252.443 136.034 249.284C138.33 246.125 141.477 243.659 145.477 241.886C149.477 240.114 154.023 239.227 159.114 239.227C164.295 239.227 168.818 240.114 172.682 241.886C176.568 243.659 179.591 246.125 181.75 249.284C183.909 252.443 185.023 256.102 185.091 260.261H170.943ZM233.849 260.261C233.577 257.511 232.406 255.375 230.338 253.852C228.27 252.33 225.463 251.568 221.918 251.568C219.509 251.568 217.474 251.909 215.815 252.591C214.156 253.25 212.884 254.17 211.997 255.352C211.134 256.534 210.702 257.875 210.702 259.375C210.656 260.625 210.918 261.716 211.486 262.648C212.077 263.58 212.884 264.386 213.906 265.068C214.929 265.727 216.111 266.307 217.452 266.807C218.793 267.284 220.224 267.693 221.747 268.034L228.02 269.534C231.065 270.216 233.861 271.125 236.406 272.261C238.952 273.398 241.156 274.795 243.02 276.455C244.884 278.114 246.327 280.068 247.349 282.318C248.395 284.568 248.929 287.148 248.952 290.057C248.929 294.33 247.838 298.034 245.679 301.17C243.543 304.284 240.452 306.705 236.406 308.432C232.384 310.136 227.531 310.989 221.849 310.989C216.213 310.989 211.304 310.125 207.122 308.398C202.963 306.67 199.713 304.114 197.372 300.727C195.054 297.318 193.838 293.102 193.724 288.08H208.009C208.168 290.42 208.838 292.375 210.02 293.943C211.224 295.489 212.827 296.659 214.827 297.455C216.849 298.227 219.134 298.614 221.679 298.614C224.179 298.614 226.349 298.25 228.19 297.523C230.054 296.795 231.497 295.784 232.52 294.489C233.543 293.193 234.054 291.705 234.054 290.023C234.054 288.455 233.588 287.136 232.656 286.068C231.747 285 230.406 284.091 228.634 283.341C226.884 282.591 224.736 281.909 222.19 281.295L214.588 279.386C208.702 277.955 204.054 275.716 200.645 272.67C197.236 269.625 195.543 265.523 195.565 260.364C195.543 256.136 196.668 252.443 198.94 249.284C201.236 246.125 204.384 243.659 208.384 241.886C212.384 240.114 216.929 239.227 222.02 239.227C227.202 239.227 231.724 240.114 235.588 241.886C239.474 243.659 242.497 246.125 244.656 249.284C246.815 252.443 247.929 256.102 247.997 260.261H233.849ZM283.631 310H258.881V240.182H283.835C290.858 240.182 296.903 241.58 301.972 244.375C307.04 247.148 310.938 251.136 313.665 256.341C316.415 261.545 317.79 267.773 317.79 275.023C317.79 282.295 316.415 288.545 313.665 293.773C310.938 299 307.017 303.011 301.903 305.807C296.812 308.602 290.722 310 283.631 310ZM273.642 297.352H283.017C287.381 297.352 291.051 296.58 294.028 295.034C297.028 293.466 299.278 291.045 300.778 287.773C302.301 284.477 303.062 280.227 303.062 275.023C303.062 269.864 302.301 265.648 300.778 262.375C299.278 259.102 297.04 256.693 294.062 255.148C291.085 253.602 287.415 252.83 283.051 252.83H273.642V297.352Z" fill="#525252"/>
<circle cx="35" cy="35" r="10" fill="black"/>
<circle cx="415" cy="35" r="10" fill="black"/>
<circle cx="35" cy="515" r="10" fill="black"/>
<circle cx="415" cy="515" r="10" fill="black"/>
</svg>
