<svg width="560" height="373" viewBox="0 0 560 373" fill="none" xmlns="http://www.w3.org/2000/svg">
<g filter="url(#filter0_d_11_766)">
<path fill-rule="evenodd" clip-rule="evenodd" d="M456 117C456 115.895 455.105 115 454 115H146C144.895 115 144 115.895 144 117V363C144 364.105 144.895 365 146 365H320.88C321.985 365 322.88 364.105 322.88 363V329.12C322.88 327.397 324.277 326 326 326C327.723 326 329.12 327.397 329.12 329.12V363C329.12 364.105 330.015 365 331.12 365H454C455.105 365 456 364.105 456 363V117Z" fill="#4A9E7C"/>
<rect x="220" y="344" width="4" height="21" rx="2" fill="#F5E19C"/>
<rect x="348" y="344" width="4" height="21" rx="2" fill="#F5E19C"/>
<rect x="228" y="344" width="4" height="21" rx="2" fill="#F5E19C"/>
<rect x="356" y="344" width="4" height="21" rx="2" fill="#F5E19C"/>
<rect x="236" y="344" width="4" height="21" rx="2" fill="#F5E19C"/>
<rect x="364" y="344" width="4" height="21" rx="2" fill="#F5E19C"/>
<rect x="244" y="344" width="4" height="21" rx="2" fill="#F5E19C"/>
<rect x="372" y="344" width="4" height="21" rx="2" fill="#F5E19C"/>
<rect x="252" y="344" width="4" height="21" rx="2" fill="#F5E19C"/>
<rect x="380" y="344" width="4" height="21" rx="2" fill="#F5E19C"/>
<rect x="156" y="344" width="4" height="21" rx="2" fill="#F5E19C"/>
<rect x="284" y="344" width="4" height="21" rx="2" fill="#F5E19C"/>
<rect x="412" y="344" width="4" height="21" rx="2" fill="#F5E19C"/>
<rect x="188" y="344" width="4" height="21" rx="2" fill="#F5E19C"/>
<rect x="316" y="344" width="4" height="21" rx="2" fill="#F5E19C"/>
<rect x="428" y="344" width="4" height="21" rx="2" fill="#F5E19C"/>
<rect x="260" y="344" width="4" height="21" rx="2" fill="#F5E19C"/>
<rect x="388" y="344" width="4" height="21" rx="2" fill="#F5E19C"/>
<rect x="164" y="344" width="4" height="21" rx="2" fill="#F5E19C"/>
<rect x="292" y="344" width="4" height="21" rx="2" fill="#F5E19C"/>
<rect x="420" y="344" width="4" height="21" rx="2" fill="#F5E19C"/>
<rect x="196" y="344" width="4" height="21" rx="2" fill="#F5E19C"/>
<rect x="436" y="344" width="4" height="21" rx="2" fill="#F5E19C"/>
<rect x="268" y="344" width="4" height="21" rx="2" fill="#F5E19C"/>
<rect x="396" y="344" width="4" height="21" rx="2" fill="#F5E19C"/>
<rect x="172" y="344" width="4" height="21" rx="2" fill="#F5E19C"/>
<rect x="300" y="344" width="4" height="21" rx="2" fill="#F5E19C"/>
<rect x="204" y="344" width="4" height="21" rx="2" fill="#F5E19C"/>
<rect x="332" y="344" width="4" height="21" rx="2" fill="#F5E19C"/>
<rect x="444" y="344" width="4" height="21" rx="2" fill="#F5E19C"/>
<rect x="148" y="344" width="4" height="21" rx="2" fill="#F5E19C"/>
<rect x="276" y="344" width="4" height="21" rx="2" fill="#F5E19C"/>
<rect x="404" y="344" width="4" height="21" rx="2" fill="#F5E19C"/>
<rect x="180" y="344" width="4" height="21" rx="2" fill="#F5E19C"/>
<rect x="308" y="344" width="4" height="21" rx="2" fill="#F5E19C"/>
<rect x="212" y="344" width="4" height="21" rx="2" fill="#F5E19C"/>
<rect x="340" y="344" width="4" height="21" rx="2" fill="#F5E19C"/>
<rect x="34" y="16" width="518" height="300" fill="#B8B8B8"/>
<circle cx="329" cy="166" r="125" fill="#262626"/>
<rect x="276" y="81" width="8" height="100" transform="rotate(-30 276 81)" fill="#D9D9D9"/>
<rect x="242" y="121.928" width="8" height="100" transform="rotate(-60 242 121.928)" fill="#D9D9D9"/>
<rect x="233" y="172" width="8" height="100" transform="rotate(-90 233 172)" fill="#D9D9D9"/>
<rect x="246" y="220.928" width="8" height="100" transform="rotate(-120 246 220.928)" fill="#D9D9D9"/>
<rect x="282.928" y="250.603" width="8" height="100" transform="rotate(-150 282.928 250.603)" fill="#D9D9D9"/>
<rect x="333" y="264" width="8" height="100" transform="rotate(180 333 264)" fill="#D9D9D9"/>
<rect x="381.928" y="250.603" width="8" height="100" transform="rotate(150 381.928 250.603)" fill="#D9D9D9"/>
<rect x="381.928" y="251" width="8" height="100" transform="rotate(150 381.928 251)" fill="#D9D9D9"/>
<rect x="415.928" y="210.072" width="8" height="100" transform="rotate(120 415.928 210.072)" fill="#D9D9D9"/>
<rect x="424.928" y="160" width="8" height="100" transform="rotate(90 424.928 160)" fill="#D9D9D9"/>
<rect x="411.928" y="111.072" width="8" height="100" transform="rotate(60 411.928 111.072)" fill="#D9D9D9"/>
<rect x="375" y="81.3975" width="8" height="100" transform="rotate(30 375 81.3975)" fill="#D9D9D9"/>
<rect x="324.928" y="68" width="8" height="100" fill="#D9D9D9"/>
<rect x="276" y="81.3975" width="8" height="100" transform="rotate(-30 276 81.3975)" fill="#D9D9D9"/>
<rect x="24" width="10" height="330" fill="#989898"/>
<rect width="34" height="10" fill="#989898"/>
</g>
<defs>
<filter id="filter0_d_11_766" x="0" y="0" width="560" height="373" filterUnits="userSpaceOnUse" color-interpolation-filters="sRGB">
<feFlood flood-opacity="0" result="BackgroundImageFix"/>
<feColorMatrix in="SourceAlpha" type="matrix" values="0 0 0 0 0 0 0 0 0 0 0 0 0 0 0 0 0 0 127 0" result="hardAlpha"/>
<feOffset dx="4" dy="4"/>
<feGaussianBlur stdDeviation="2"/>
<feComposite in2="hardAlpha" operator="out"/>
<feColorMatrix type="matrix" values="0 0 0 0 0 0 0 0 0 0 0 0 0 0 0 0 0 0 0.15 0"/>
<feBlend mode="normal" in2="BackgroundImageFix" result="effect1_dropShadow_11_766"/>
<feBlend mode="normal" in="SourceGraphic" in2="effect1_dropShadow_11_766" result="shape"/>
</filter>
</defs>
</svg>
