<svg width="426" height="513" viewBox="0 0 426 513" fill="none" xmlns="http://www.w3.org/2000/svg">
<rect width="426" height="513" fill="#DEDEDE"/>
<ellipse cx="213" cy="250" rx="179" ry="175" fill="#B8B8B8"/>
<circle cx="22" cy="22" r="10" fill="black"/>
<circle cx="22" cy="491" r="10" fill="black"/>
<circle cx="404" cy="22" r="10" fill="black"/>
<circle cx="404" cy="491" r="10" fill="black"/>
<path d="M21 456V358.5H36L53 398L105.5 448.5H138V491.5H60.5L21 456Z" fill="black" stroke="black"/>
<g filter="url(#filter0_d_9_272)">
<path d="M169.095 318.196C158.55 313.196 53.8903 405.386 41.7835 430.249C29.6767 455.112 59.527 482.475 83.9082 465.596C108.289 448.716 179.64 323.196 169.095 318.196Z" fill="#EEEEEE"/>
<path d="M169.095 318.196C158.55 313.196 53.8903 405.386 41.7835 430.249C29.6767 455.112 59.527 482.475 83.9082 465.596C108.289 448.716 179.64 323.196 169.095 318.196Z" stroke="black"/>
</g>
<circle cx="61.9919" cy="450.176" r="10" fill="black"/>
<circle cx="213" cy="250" r="19" fill="#E8E8E8"/>
<circle cx="213" cy="250" r="18" fill="#B8B8B8"/>
<circle cx="213" cy="250" r="16" fill="#E8E8E8"/>
<circle cx="213" cy="250" r="12" fill="#B8B8B8"/>
<defs>
<filter id="filter0_d_9_272" x="34.4991" y="317.5" width="140.151" height="161.818" filterUnits="userSpaceOnUse" color-interpolation-filters="sRGB">
<feFlood flood-opacity="0" result="BackgroundImageFix"/>
<feColorMatrix in="SourceAlpha" type="matrix" values="0 0 0 0 0 0 0 0 0 0 0 0 0 0 0 0 0 0 127 0" result="hardAlpha"/>
<feOffset dy="4"/>
<feGaussianBlur stdDeviation="2"/>
<feComposite in2="hardAlpha" operator="out"/>
<feColorMatrix type="matrix" values="0 0 0 0 0 0 0 0 0 0 0 0 0 0 0 0 0 0 0.25 0"/>
<feBlend mode="normal" in2="BackgroundImageFix" result="effect1_dropShadow_9_272"/>
<feBlend mode="normal" in="SourceGraphic" in2="effect1_dropShadow_9_272" result="shape"/>
</filter>
</defs>
</svg>
