<svg width="608" height="258" viewBox="0 0 608 258" fill="none" xmlns="http://www.w3.org/2000/svg">
<g filter="url(#filter0_d_11_362)">
<path fill-rule="evenodd" clip-rule="evenodd" d="M600 4C600 1.79086 598.209 0 596 0H4C1.79086 0 0 1.79085 0 3.99999V246C0 248.209 1.79086 250 4 250H340C342.209 250 344 248.209 344 246V217C344 213.686 346.686 211 350 211C353.314 211 356 213.686 356 217V246C356 248.209 357.791 250 360 250H596C598.209 250 600 248.209 600 246V4Z" fill="#499A79"/>
<g filter="url(#filter1_d_11_362)">
<rect x="34" y="32" width="80" height="130" rx="2" fill="#54535D"/>
</g>
<g filter="url(#filter2_d_11_362)">
<rect x="149" y="32" width="80" height="130" rx="2" fill="#54535D"/>
</g>
<g filter="url(#filter3_d_11_362)">
<rect x="379" y="32" width="80" height="130" rx="2" fill="#54535D"/>
</g>
<g filter="url(#filter4_d_11_362)">
<rect x="494" y="32" width="80" height="130" rx="2" fill="#54535D"/>
</g>
<rect x="8" y="229" width="4" height="21" rx="2" fill="#F5E19C"/>
<rect x="136" y="229" width="4" height="21" rx="2" fill="#F5E19C"/>
<rect x="264" y="229" width="4" height="21" rx="2" fill="#F5E19C"/>
<rect x="392" y="229" width="4" height="21" rx="2" fill="#F5E19C"/>
<rect x="520" y="229" width="4" height="21" rx="2" fill="#F5E19C"/>
<rect x="16" y="229" width="4" height="21" rx="2" fill="#F5E19C"/>
<rect x="144" y="229" width="4" height="21" rx="2" fill="#F5E19C"/>
<rect x="272" y="229" width="4" height="21" rx="2" fill="#F5E19C"/>
<rect x="400" y="229" width="4" height="21" rx="2" fill="#F5E19C"/>
<rect x="528" y="229" width="4" height="21" rx="2" fill="#F5E19C"/>
<rect x="24" y="229" width="4" height="21" rx="2" fill="#F5E19C"/>
<rect x="152" y="229" width="4" height="21" rx="2" fill="#F5E19C"/>
<rect x="280" y="229" width="4" height="21" rx="2" fill="#F5E19C"/>
<rect x="408" y="229" width="4" height="21" rx="2" fill="#F5E19C"/>
<rect x="536" y="229" width="4" height="21" rx="2" fill="#F5E19C"/>
<rect x="32" y="229" width="4" height="21" rx="2" fill="#F5E19C"/>
<rect x="160" y="229" width="4" height="21" rx="2" fill="#F5E19C"/>
<rect x="288" y="229" width="4" height="21" rx="2" fill="#F5E19C"/>
<rect x="416" y="229" width="4" height="21" rx="2" fill="#F5E19C"/>
<rect x="544" y="229" width="4" height="21" rx="2" fill="#F5E19C"/>
<rect x="40" y="229" width="4" height="21" rx="2" fill="#F5E19C"/>
<rect x="168" y="229" width="4" height="21" rx="2" fill="#F5E19C"/>
<rect x="296" y="229" width="4" height="21" rx="2" fill="#F5E19C"/>
<rect x="424" y="229" width="4" height="21" rx="2" fill="#F5E19C"/>
<rect x="552" y="229" width="4" height="21" rx="2" fill="#F5E19C"/>
<rect x="72" y="229" width="4" height="21" rx="2" fill="#F5E19C"/>
<rect x="200" y="229" width="4" height="21" rx="2" fill="#F5E19C"/>
<rect x="328" y="229" width="4" height="21" rx="2" fill="#F5E19C"/>
<rect x="456" y="229" width="4" height="21" rx="2" fill="#F5E19C"/>
<rect x="584" y="229" width="4" height="21" rx="2" fill="#F5E19C"/>
<rect x="104" y="229" width="4" height="21" rx="2" fill="#F5E19C"/>
<rect x="232" y="229" width="4" height="21" rx="2" fill="#F5E19C"/>
<rect x="360" y="229" width="4" height="21" rx="2" fill="#F5E19C"/>
<rect x="488" y="229" width="4" height="21" rx="2" fill="#F5E19C"/>
<rect x="48" y="229" width="4" height="21" rx="2" fill="#F5E19C"/>
<rect x="176" y="229" width="4" height="21" rx="2" fill="#F5E19C"/>
<rect x="304" y="229" width="4" height="21" rx="2" fill="#F5E19C"/>
<rect x="432" y="229" width="4" height="21" rx="2" fill="#F5E19C"/>
<rect x="560" y="229" width="4" height="21" rx="2" fill="#F5E19C"/>
<rect x="80" y="229" width="4" height="21" rx="2" fill="#F5E19C"/>
<rect x="208" y="229" width="4" height="21" rx="2" fill="#F5E19C"/>
<rect x="336" y="229" width="4" height="21" rx="2" fill="#F5E19C"/>
<rect x="464" y="229" width="4" height="21" rx="2" fill="#F5E19C"/>
<rect x="592" y="229" width="4" height="21" rx="2" fill="#F5E19C"/>
<rect x="112" y="229" width="4" height="21" rx="2" fill="#F5E19C"/>
<rect x="240" y="229" width="4" height="21" rx="2" fill="#F5E19C"/>
<rect x="368" y="229" width="4" height="21" rx="2" fill="#F5E19C"/>
<rect x="496" y="229" width="4" height="21" rx="2" fill="#F5E19C"/>
<rect x="56" y="229" width="4" height="21" rx="2" fill="#F5E19C"/>
<rect x="184" y="229" width="4" height="21" rx="2" fill="#F5E19C"/>
<rect x="312" y="229" width="4" height="21" rx="2" fill="#F5E19C"/>
<rect x="440" y="229" width="4" height="21" rx="2" fill="#F5E19C"/>
<rect x="568" y="229" width="4" height="21" rx="2" fill="#F5E19C"/>
<rect x="88" y="229" width="4" height="21" rx="2" fill="#F5E19C"/>
<rect x="216" y="229" width="4" height="21" rx="2" fill="#F5E19C"/>
<rect x="472" y="229" width="4" height="21" rx="2" fill="#F5E19C"/>
<rect x="120" y="229" width="4" height="21" rx="2" fill="#F5E19C"/>
<rect x="248" y="229" width="4" height="21" rx="2" fill="#F5E19C"/>
<rect x="376" y="229" width="4" height="21" rx="2" fill="#F5E19C"/>
<rect x="504" y="229" width="4" height="21" rx="2" fill="#F5E19C"/>
<rect x="64" y="229" width="4" height="21" rx="2" fill="#F5E19C"/>
<rect x="192" y="229" width="4" height="21" rx="2" fill="#F5E19C"/>
<rect x="320" y="229" width="4" height="21" rx="2" fill="#F5E19C"/>
<rect x="448" y="229" width="4" height="21" rx="2" fill="#F5E19C"/>
<rect x="576" y="229" width="4" height="21" rx="2" fill="#F5E19C"/>
<rect x="96" y="229" width="4" height="21" rx="2" fill="#F5E19C"/>
<rect x="224" y="229" width="4" height="21" rx="2" fill="#F5E19C"/>
<rect x="480" y="229" width="4" height="21" rx="2" fill="#F5E19C"/>
<rect x="128" y="229" width="4" height="21" rx="2" fill="#F5E19C"/>
<rect x="256" y="229" width="4" height="21" rx="2" fill="#F5E19C"/>
<rect x="384" y="229" width="4" height="21" rx="2" fill="#F5E19C"/>
<rect x="512" y="229" width="4" height="21" rx="2" fill="#F5E19C"/>
<rect x="54" y="62" width="500" height="70" rx="8" fill="#F9FAFC"/>
<path d="M77.255 92.8182V103H75.1023V94.8615H75.0426L72.7109 96.3232V94.4141L75.2315 92.8182H77.255ZM83.5826 103.139C83.0589 103.136 82.5534 103.048 82.0662 102.876C81.5823 102.703 81.1481 102.423 80.7637 102.036C80.3792 101.648 80.0743 101.134 79.8489 100.494C79.6268 99.8546 79.5158 99.0691 79.5158 98.1378C79.5191 97.2827 79.6169 96.5187 79.8091 95.8459C80.0047 95.1697 80.2831 94.5964 80.6444 94.1257C81.0089 93.6551 81.4448 93.2971 81.9519 93.0518C82.459 92.8033 83.0274 92.679 83.6571 92.679C84.3366 92.679 84.9365 92.8116 85.4569 93.0767C85.9772 93.3385 86.3948 93.6948 86.7097 94.1456C87.0279 94.5964 87.2201 95.1018 87.2864 95.6619H85.1635C85.0807 95.3073 84.9067 95.0289 84.6415 94.8267C84.3764 94.6245 84.0482 94.5234 83.6571 94.5234C82.9943 94.5234 82.4905 94.8118 82.1458 95.3885C81.8044 95.9652 81.6304 96.7491 81.6238 97.7401H81.6934C81.8458 97.4384 82.0513 97.1816 82.3098 96.9695C82.5717 96.754 82.8683 96.59 83.1998 96.4773C83.5345 96.3613 83.8875 96.3033 84.2587 96.3033C84.8619 96.3033 85.3989 96.4458 85.8695 96.7308C86.3401 97.0125 86.7114 97.4003 86.9831 97.8942C87.2549 98.388 87.3908 98.9531 87.3908 99.5895C87.3908 100.279 87.2301 100.892 86.9086 101.429C86.5904 101.966 86.1446 102.387 85.5712 102.692C85.0011 102.993 84.3382 103.143 83.5826 103.139ZM83.5726 101.449C83.9041 101.449 84.2007 101.369 84.4625 101.21C84.7244 101.051 84.9299 100.836 85.079 100.564C85.2282 100.292 85.3027 99.9872 85.3027 99.6491C85.3027 99.3111 85.2282 99.0078 85.079 98.7393C84.9332 98.4709 84.731 98.2571 84.4725 98.098C84.214 97.9389 83.919 97.8594 83.5875 97.8594C83.339 97.8594 83.1086 97.9058 82.8965 97.9986C82.6877 98.0914 82.5037 98.2206 82.3446 98.3864C82.1889 98.5521 82.0662 98.7443 81.9767 98.9631C81.8873 99.1785 81.8425 99.4089 81.8425 99.6541C81.8425 99.9822 81.9171 100.282 82.0662 100.554C82.2187 100.826 82.4242 101.043 82.6827 101.205C82.9445 101.368 83.2412 101.449 83.5726 101.449ZM95.7282 96.1094C95.6586 95.8674 95.5608 95.6536 95.4348 95.468C95.3089 95.2791 95.1548 95.12 94.9725 94.9908C94.7935 94.8582 94.588 94.7571 94.356 94.6875C94.1273 94.6179 93.8738 94.5831 93.5953 94.5831C93.075 94.5831 92.6176 94.7124 92.2232 94.9709C91.8321 95.2294 91.5272 95.6056 91.3084 96.0994C91.0897 96.59 90.9803 97.1899 90.9803 97.8991C90.9803 98.6084 91.088 99.2116 91.3034 99.7088C91.5189 100.206 91.8238 100.585 92.2182 100.847C92.6126 101.106 93.0783 101.235 93.6152 101.235C94.1025 101.235 94.5184 101.149 94.8631 100.977C95.2111 100.801 95.4763 100.554 95.6586 100.236C95.8442 99.9176 95.937 99.5414 95.937 99.1072L96.3745 99.1719H93.7495V97.5511H98.0101V98.8338C98.0101 99.7287 97.8212 100.498 97.4434 101.141C97.0655 101.78 96.5452 102.274 95.8823 102.622C95.2194 102.967 94.4604 103.139 93.6053 103.139C92.6507 103.139 91.8122 102.929 91.0897 102.508C90.3671 102.084 89.8037 101.482 89.3993 100.703C88.9983 99.9209 88.7978 98.9929 88.7978 97.919C88.7978 97.0937 88.9171 96.358 89.1557 95.7116C89.3977 95.062 89.7357 94.5118 90.1699 94.0611C90.6041 93.6103 91.1096 93.2673 91.6863 93.032C92.263 92.7966 92.8877 92.679 93.5605 92.679C94.1373 92.679 94.6742 92.7635 95.1713 92.9325C95.6685 93.0982 96.1093 93.3336 96.4938 93.6385C96.8816 93.9434 97.1981 94.3063 97.4434 94.7273C97.6886 95.1449 97.8461 95.6056 97.9157 96.1094H95.7282ZM99.6271 103V92.8182H103.704C104.453 92.8182 105.078 92.9292 105.578 93.1513C106.079 93.3733 106.455 93.6816 106.707 94.076C106.959 94.4671 107.085 94.9179 107.085 95.4283C107.085 95.826 107.005 96.1757 106.846 96.4773C106.687 96.7756 106.468 97.0208 106.19 97.2131C105.915 97.402 105.6 97.5362 105.245 97.6158V97.7152C105.633 97.7318 105.996 97.8411 106.334 98.0433C106.675 98.2455 106.952 98.5289 107.164 98.8935C107.376 99.2547 107.482 99.6856 107.482 100.186C107.482 100.726 107.348 101.209 107.08 101.633C106.814 102.054 106.422 102.387 105.901 102.632C105.381 102.877 104.74 103 103.977 103H99.6271ZM101.78 101.24H103.535C104.135 101.24 104.572 101.126 104.847 100.897C105.122 100.665 105.26 100.357 105.26 99.9723C105.26 99.6906 105.192 99.442 105.056 99.2266C104.92 99.0111 104.726 98.8421 104.474 98.7195C104.226 98.5968 103.929 98.5355 103.585 98.5355H101.78V101.24ZM101.78 97.0788H103.376C103.671 97.0788 103.933 97.0275 104.161 96.9247C104.393 96.8187 104.576 96.6695 104.708 96.4773C104.844 96.285 104.912 96.0547 104.912 95.7862C104.912 95.4183 104.781 95.1217 104.519 94.8963C104.261 94.6709 103.893 94.5582 103.415 94.5582H101.78V97.0788Z" fill="black"/>
<path d="M500.494 103H496.885V92.8182H500.524C501.548 92.8182 502.43 93.022 503.169 93.4297C503.908 93.834 504.477 94.4157 504.874 95.1747C505.275 95.9337 505.476 96.8419 505.476 97.8991C505.476 98.9598 505.275 99.8712 504.874 100.634C504.477 101.396 503.905 101.981 503.159 102.388C502.417 102.796 501.528 103 500.494 103ZM499.038 101.156H500.405C501.041 101.156 501.576 101.043 502.011 100.817C502.448 100.589 502.776 100.236 502.995 99.7585C503.217 99.2779 503.328 98.6581 503.328 97.8991C503.328 97.1468 503.217 96.532 502.995 96.0547C502.776 95.5774 502.45 95.2261 502.016 95.0007C501.581 94.7753 501.046 94.6626 500.41 94.6626H499.038V101.156ZM510.68 103H507.07V92.8182H510.71C511.734 92.8182 512.615 93.022 513.355 93.4297C514.094 93.834 514.662 94.4157 515.06 95.1747C515.461 95.9337 515.661 96.8419 515.661 97.8991C515.661 98.9598 515.461 99.8712 515.06 100.634C514.662 101.396 514.09 101.981 513.345 102.388C512.602 102.796 511.714 103 510.68 103ZM509.223 101.156H510.59C511.227 101.156 511.762 101.043 512.196 100.817C512.634 100.589 512.962 100.236 513.181 99.7585C513.403 99.2779 513.514 98.6581 513.514 97.8991C513.514 97.1468 513.403 96.532 513.181 96.0547C512.962 95.5774 512.635 95.2261 512.201 95.0007C511.767 94.7753 511.232 94.6626 510.595 94.6626H509.223V101.156ZM517.256 103V92.8182H521.273C522.042 92.8182 522.698 92.9557 523.242 93.2308C523.789 93.5026 524.205 93.8887 524.49 94.3892C524.778 94.8864 524.922 95.4714 524.922 96.1442C524.922 96.8203 524.776 97.402 524.485 97.8892C524.193 98.3731 523.77 98.7443 523.217 99.0028C522.667 99.2614 522.001 99.3906 521.218 99.3906H518.529V97.6605H520.87C521.281 97.6605 521.623 97.6042 521.895 97.4915C522.166 97.3788 522.368 97.2098 522.501 96.9844C522.637 96.759 522.705 96.4789 522.705 96.1442C522.705 95.8061 522.637 95.5211 522.501 95.2891C522.368 95.0571 522.165 94.8814 521.89 94.7621C521.618 94.6394 521.275 94.5781 520.86 94.5781H519.409V103H517.256ZM522.755 98.3665L525.285 103H522.909L520.433 98.3665H522.755ZM526.23 101.21V99.5149L530.48 92.8182H531.942V95.1648H531.077L528.397 99.4055V99.4851H534.438V101.21H526.23ZM531.117 103V100.693L531.157 99.9425V92.8182H533.175V103H531.117Z" fill="black"/>
</g>
<defs>
<filter id="filter0_d_11_362" x="0" y="0" width="608" height="258" filterUnits="userSpaceOnUse" color-interpolation-filters="sRGB">
<feFlood flood-opacity="0" result="BackgroundImageFix"/>
<feColorMatrix in="SourceAlpha" type="matrix" values="0 0 0 0 0 0 0 0 0 0 0 0 0 0 0 0 0 0 127 0" result="hardAlpha"/>
<feOffset dx="4" dy="4"/>
<feGaussianBlur stdDeviation="2"/>
<feComposite in2="hardAlpha" operator="out"/>
<feColorMatrix type="matrix" values="0 0 0 0 0 0 0 0 0 0 0 0 0 0 0 0 0 0 0.25 0"/>
<feBlend mode="normal" in2="BackgroundImageFix" result="effect1_dropShadow_11_362"/>
<feBlend mode="normal" in="SourceGraphic" in2="effect1_dropShadow_11_362" result="shape"/>
</filter>
<filter id="filter1_d_11_362" x="30" y="28" width="88" height="138" filterUnits="userSpaceOnUse" color-interpolation-filters="sRGB">
<feFlood flood-opacity="0" result="BackgroundImageFix"/>
<feColorMatrix in="SourceAlpha" type="matrix" values="0 0 0 0 0 0 0 0 0 0 0 0 0 0 0 0 0 0 127 0" result="hardAlpha"/>
<feOffset/>
<feGaussianBlur stdDeviation="2"/>
<feComposite in2="hardAlpha" operator="out"/>
<feColorMatrix type="matrix" values="0 0 0 0 0 0 0 0 0 0 0 0 0 0 0 0 0 0 0.25 0"/>
<feBlend mode="normal" in2="BackgroundImageFix" result="effect1_dropShadow_11_362"/>
<feBlend mode="normal" in="SourceGraphic" in2="effect1_dropShadow_11_362" result="shape"/>
</filter>
<filter id="filter2_d_11_362" x="145" y="28" width="88" height="138" filterUnits="userSpaceOnUse" color-interpolation-filters="sRGB">
<feFlood flood-opacity="0" result="BackgroundImageFix"/>
<feColorMatrix in="SourceAlpha" type="matrix" values="0 0 0 0 0 0 0 0 0 0 0 0 0 0 0 0 0 0 127 0" result="hardAlpha"/>
<feOffset/>
<feGaussianBlur stdDeviation="2"/>
<feComposite in2="hardAlpha" operator="out"/>
<feColorMatrix type="matrix" values="0 0 0 0 0 0 0 0 0 0 0 0 0 0 0 0 0 0 0.25 0"/>
<feBlend mode="normal" in2="BackgroundImageFix" result="effect1_dropShadow_11_362"/>
<feBlend mode="normal" in="SourceGraphic" in2="effect1_dropShadow_11_362" result="shape"/>
</filter>
<filter id="filter3_d_11_362" x="375" y="28" width="88" height="138" filterUnits="userSpaceOnUse" color-interpolation-filters="sRGB">
<feFlood flood-opacity="0" result="BackgroundImageFix"/>
<feColorMatrix in="SourceAlpha" type="matrix" values="0 0 0 0 0 0 0 0 0 0 0 0 0 0 0 0 0 0 127 0" result="hardAlpha"/>
<feOffset/>
<feGaussianBlur stdDeviation="2"/>
<feComposite in2="hardAlpha" operator="out"/>
<feColorMatrix type="matrix" values="0 0 0 0 0 0 0 0 0 0 0 0 0 0 0 0 0 0 0.25 0"/>
<feBlend mode="normal" in2="BackgroundImageFix" result="effect1_dropShadow_11_362"/>
<feBlend mode="normal" in="SourceGraphic" in2="effect1_dropShadow_11_362" result="shape"/>
</filter>
<filter id="filter4_d_11_362" x="490" y="28" width="88" height="138" filterUnits="userSpaceOnUse" color-interpolation-filters="sRGB">
<feFlood flood-opacity="0" result="BackgroundImageFix"/>
<feColorMatrix in="SourceAlpha" type="matrix" values="0 0 0 0 0 0 0 0 0 0 0 0 0 0 0 0 0 0 127 0" result="hardAlpha"/>
<feOffset/>
<feGaussianBlur stdDeviation="2"/>
<feComposite in2="hardAlpha" operator="out"/>
<feColorMatrix type="matrix" values="0 0 0 0 0 0 0 0 0 0 0 0 0 0 0 0 0 0 0.25 0"/>
<feBlend mode="normal" in2="BackgroundImageFix" result="effect1_dropShadow_11_362"/>
<feBlend mode="normal" in="SourceGraphic" in2="effect1_dropShadow_11_362" result="shape"/>
</filter>
</defs>
</svg>
