<svg width="173" height="116" viewBox="0 0 173 116" fill="none" xmlns="http://www.w3.org/2000/svg">
<path d="M74.7181 42C74.7181 62.4345 58.1527 79 37.7181 79C33.5612 79 29.417 77.039 25.5238 74.1083C21.6359 71.1817 18.0478 67.3255 15.0121 63.6206C12.4991 60.5536 10.3771 57.606 8.77988 55.3874C8.44804 54.9265 8.13885 54.497 7.85351 54.1045C7.03882 52.9837 6.38792 52.1197 5.96406 51.7181C5.85843 51.618 5.73216 51.5122 5.59502 51.4463C5.47069 51.3866 5.15327 51.2823 4.88684 51.5322C4.78011 51.6323 4.73149 51.7509 4.70787 51.8358C4.68368 51.9228 4.67601 52.0091 4.67455 52.0837C4.67163 52.2323 4.69263 52.4048 4.72618 52.5894C4.83556 53.1912 4.88823 53.6521 4.89775 53.984C4.7897 53.8302 4.66546 53.631 4.527 53.382C3.51745 51.5665 2.0303 47.6186 0.705271 41.8874C0.0809674 39.187 0.933443 36.1637 2.55687 33.0682C4.17541 29.982 6.51661 26.9051 8.75158 24.1258C9.24129 23.5169 9.72744 22.9205 10.2 22.3408C11.8641 20.2993 13.3593 18.465 14.2459 17.0192C14.5338 16.5497 14.7678 16.1052 14.9249 15.6947C15.0803 15.2887 15.1735 14.8826 15.1437 14.5011C15.1124 14.1002 14.9451 13.7415 14.619 13.4727C14.3094 13.2175 13.8948 13.0747 13.4169 13.0052C13.021 12.9476 12.8099 12.8568 12.7109 12.7829C12.6415 12.7311 12.641 12.7045 12.6436 12.6656C12.6489 12.5841 12.7005 12.4242 12.8802 12.1761C13.0538 11.9364 13.3161 11.6566 13.6687 11.3417C15.0883 10.0745 17.7415 8.44199 20.9407 6.82102C24.1289 5.20563 27.82 3.62136 31.2881 2.44213C34.7698 1.25831 37.9776 0.5 40.2182 0.5C50.3876 0.5 59.0024 5.72376 65.0902 13.5407C71.1812 21.3618 74.7181 31.753 74.7181 42ZM4.85787 54.4792C4.85782 54.4792 4.85838 54.4777 4.8597 54.4751C4.85858 54.478 4.85792 54.4793 4.85787 54.4792Z" fill="#A1A1A1" stroke="black"/>
<path d="M97.4999 42C97.4999 62.4345 114.065 79 134.5 79C138.657 79 142.801 77.039 146.694 74.1083C150.582 71.1817 154.17 67.3255 157.206 63.6206C159.719 60.5536 161.841 57.606 163.438 55.3874C163.77 54.9265 164.079 54.497 164.365 54.1045C165.179 52.9837 165.83 52.1197 166.254 51.7181C166.36 51.618 166.486 51.5122 166.623 51.4463C166.747 51.3866 167.065 51.2823 167.331 51.5322C167.438 51.6323 167.487 51.7509 167.51 51.8358C167.534 51.9228 167.542 52.0091 167.543 52.0837C167.546 52.2323 167.525 52.4048 167.492 52.5894C167.382 53.1912 167.33 53.6521 167.32 53.984C167.428 53.8302 167.553 53.631 167.691 53.382C168.701 51.5665 170.188 47.6186 171.513 41.8874C172.137 39.187 171.285 36.1637 169.661 33.0682C168.043 29.982 165.701 26.9051 163.466 24.1258C162.977 23.5169 162.491 22.9205 162.018 22.3408C160.354 20.2993 158.859 18.465 157.972 17.0192C157.684 16.5497 157.45 16.1052 157.293 15.6947C157.138 15.2887 157.045 14.8826 157.074 14.5011C157.106 14.1002 157.273 13.7415 157.599 13.4727C157.909 13.2175 158.323 13.0747 158.801 13.0052C159.197 12.9476 159.408 12.8568 159.507 12.7829C159.577 12.7311 159.577 12.7045 159.574 12.6656C159.569 12.5841 159.518 12.4242 159.338 12.1761C159.164 11.9364 158.902 11.6566 158.549 11.3417C157.13 10.0745 154.476 8.44199 151.277 6.82102C148.089 5.20563 144.398 3.62136 140.93 2.44213C137.448 1.25831 134.24 0.5 132 0.5C121.83 0.5 113.216 5.72376 107.128 13.5407C101.037 21.3618 97.4999 31.753 97.4999 42ZM167.36 54.4792C167.36 54.4792 167.36 54.4777 167.358 54.4751C167.359 54.478 167.36 54.4793 167.36 54.4792Z" fill="#A1A1A1" stroke="black"/>
<circle cx="38.2178" cy="41.5" r="24.5" fill="#DDBAB8" stroke="black"/>
<circle cx="131" cy="41" r="24.5" fill="#DDBAB8" stroke="black"/>
<circle cx="81" cy="66" r="49.5" fill="#A1A1A1" stroke="black"/>
<circle cx="62" cy="54" r="9.5" fill="#FBF7F6" stroke="#312929"/>
<circle cx="63" cy="55" r="8" fill="#312929"/>
<circle cx="62.5" cy="48.5" r="2.5" fill="#FBF7F6"/>
<circle cx="96" cy="54" r="9.5" fill="#FBF7F6" stroke="#312929"/>
<circle cx="95" cy="55" r="8" fill="#312929"/>
<circle cx="94.5" cy="48.5" r="2.5" fill="#FBF7F6"/>
<path d="M80.5469 55.5C81.108 55.5 81.801 55.7403 82.6038 56.24C83.3996 56.7354 84.2622 57.46 85.1517 58.3645C86.9301 60.173 88.7731 62.6564 90.3585 65.3271C91.944 67.9981 93.2581 70.8333 93.9923 73.3387C94.3594 74.5915 94.5773 75.7479 94.6171 76.7517C94.6571 77.7597 94.5161 78.5789 94.2003 79.186C93.8866 79.7892 93.2938 80.3659 92.4364 80.8938C91.5825 81.4194 90.4968 81.8777 89.244 82.2574C86.7384 83.0168 83.6215 83.4447 80.4958 83.495C77.369 83.5453 74.2648 83.2173 71.7816 82.4852C69.267 81.744 67.5265 80.6302 66.9079 79.2164C66.2691 77.7561 66.4037 75.5618 67.1502 72.9944C67.8896 70.4518 69.1996 67.6432 70.7768 65.0247C72.3539 62.4062 74.185 59.9999 75.9529 58.2554C76.8371 57.3829 77.6951 56.6864 78.4878 56.2109C79.2865 55.7316 79.9804 55.5 80.5469 55.5Z" fill="#312929" stroke="black"/>
<path d="M81 98.5C83.8154 98.5 86.3884 97.9875 88.2763 97.1379C90.1172 96.3095 91.5 95.062 91.5 93.5C91.5 91.9381 90.1172 90.6905 88.2763 89.8621C86.3884 89.0125 83.8154 88.5 81 88.5C78.1846 88.5 75.6116 89.0125 73.7237 89.8621C71.8828 90.6905 70.5 91.9381 70.5 93.5C70.5 95.062 71.8828 96.3095 73.7237 97.1379C75.6116 97.9875 78.1846 98.5 81 98.5Z" fill="#312929" stroke="black"/>
<mask id="mask0_35_885" style="mask-type:alpha" maskUnits="userSpaceOnUse" x="71" y="89" width="20" height="9">
<ellipse cx="81" cy="93.5" rx="10" ry="4.5" fill="#312929"/>
</mask>
<g mask="url(#mask0_35_885)">
<circle cx="80.5" cy="99.5" r="7" fill="#BD8592" stroke="black"/>
</g>
</svg>
